<svg id="one_finished" data-name="one finished" xmlns="http://www.w3.org/2000/svg" viewBox="0 0 450.863 329.507">
  <defs>
    <style>
      .cls-1 {
        fill: #fff;
      }

      .cls-2 {
        fill: #a73931;
      }

      .cls-3 {
        fill: #aeb8c0;
      }

      .cls-4 {
        fill: #dc3246;
      }

      .cls-5 {
        fill: #d6e0e8;
      }

      .cls-6 {
        fill: #3f7ae6;
      }

      .cls-7 {
        fill: #f15a24;
      }

      .cls-8 {
        fill: #2b2b2b;
      }

      .cls-9 {
        fill: #eabc42;
      }

      .cls-10 {
        fill: none;
        stroke: #fff;
        stroke-miterlimit: 10;
      }
    </style>
  </defs>
  <title>parrot_logo_muse</title>
  <path class="cls-1" d="M796.675,487.184c-20.224-15.03-42.24-16.521-56.978-11.539-22.154,7.491-31.479,31.2-24.156,53.2,8.679,26.049,1,3.142,9.779,29.152l14.22,42.518s25.9-7.945,36.548-10.8c12.35-3.318,34.342-11.3,46.332-15.77" transform="translate(-430.4 -340.493)"/>
  <path class="cls-2" d="M756.171,453.459l-7.269-45.21-27.576,3.436-19.274,8.575-12.937,14.887-11.029,20.576,2.892,24.344,20.882,5.652s34.767-9.553,36.975-12.4S756.171,453.459,756.171,453.459Z" transform="translate(-430.4 -340.493)"/>
  <path class="cls-3" d="M750.5,417.6c-36.618,5.406-64.925,39.25-63.635,76.081.322,9.264.325,9.28-8.751,10.733-5.832.933-11.67,1.806-17.508,2.707-7.966-53.3,28.165-105.341,79.975-115.469,4.591-.9,6.322-.051,6.769,4.772.662,7.094,2.062,14.122,3.149,21.175" transform="translate(-430.4 -340.493)"/>
  <path class="cls-4" d="M842,570.19q-9.03,2.925-18.08,5.84l-25.75-86.76c-20.22-15.03-42.23-16.52-56.97-11.54-22.16,7.49-31.48,31.2-24.16,53.2,8.68,26.05,1,3.14,9.78,29.15l13.73,41.04-93.36,27.67q-62.76.63-106.14-44.47c-1.27-1.32-2.55-2.61-3.82-3.92-12.9-16.03-22.66-33.7-28.1-53.63q33.27-11.415,66.53-22.82c7.19-2.34,14.39-4.65,21.56-7.04,11.16-3.71,11.16-3.73,8.83-15.36-9.24-46.26,19.51-94.87,64.65-109.27,9.39,27.76,18.95,55.47,28.05,83.33,1.77,5.45,3.64,6.47,9.04,4.51,12.01-4.36,23.99-9.08,36.99-10.01,30.77-2.2,59.84,14.69,71.29,43.34C826.08,518.51,834,544.39,842,570.19Z" transform="translate(-430.4 -340.493)"/>
  <path class="cls-5" d="M670.7,372.279c-45.137,14.4-73.893,63.009-64.645,109.267,2.323,11.635,2.33,11.655-8.834,15.367-7.174,2.385-14.368,4.695-21.556,7.041-21.087-65.677,13.789-138.891,77.139-162.4,5.614-2.084,7.975-1.373,9.538,4.628,2.3,8.825,5.526,17.412,8.358,26.1" transform="translate(-430.4 -340.493)"/>
  <path class="cls-6" d="M509.128,526.774c5.443,19.931,15.2,37.6,28.1,53.631-36.993,16.122-76.567,8.173-102.932-20.678-5.486-6-5.456-6.231,1.886-8.683q36.468-12.168,72.948-24.27" transform="translate(-430.4 -340.493)"/>
  <path class="cls-7" d="M712.315,422.552" transform="translate(-430.4 -340.493)"/>
  <path class="cls-8" d="M769.263,525.988c-11.25,3.763-22.973-2.184-26.814-13.6-3.933-11.709,2.014-23.741,13.567-27.426a21.56,21.56,0,0,1,13.248,41.03" transform="translate(-430.4 -340.493)"/>
  <path class="cls-9" d="M799.848,502.279c-1.087-11.1-3.065-25.354-4.152-36.454,33.208-3.252,62.806,15.5,77.622,44.839,14.025,27.777,9.162,61.2-12.04,84.951-4.176,4.683-7.654,6.785-12.414,1.049-1.287-1.553-3.308-2.477-4.736-3.943-2.563-2.626-4.777-2.509-7.618-.213-5.591,4.521-19.119-1.586-19.119-1.586-1.733-.39-10.333-4.5-10.333-4.5-3.089-28.428-3.011-47.554-6.127-75.983-.3-2.727-.721-5.44-1.083-8.16" transform="translate(-430.4 -340.493)"/>
  <path class="cls-7" d="M827.418,573.621" transform="translate(-430.4 -340.493)"/>
  <path class="cls-10" d="M741.5,670" transform="translate(-430.4 -340.493)"/>
  <path class="cls-10" d="M856.3,628.8" transform="translate(-430.4 -340.493)"/>
</svg>
