<svg id="Layer_1" data-name="Layer 1" xmlns="http://www.w3.org/2000/svg" xmlns:xlink="http://www.w3.org/1999/xlink" viewBox="0 0 741.975 136.358">
  <defs>
    <style>
      .cls-1 {
        fill: none;
      }

      .cls-2 {
        clip-path: url(#clip-path);
      }

      .cls-3 {
        opacity: 0.49;
      }

      .cls-4 {
        clip-path: url(#clip-path-3);
      }

      .cls-5 {
        fill: #d6e0e8;
      }

      .cls-6 {
        fill: #6396a6;
      }

      .cls-7 {
        fill: #faebeb;
      }

      .cls-8 {
        fill: #fcfafa;
      }
    </style>
    <clipPath id="clip-path" transform="translate(-296 -401.632)">
      <rect class="cls-1" x="313" y="414.632" width="707.975" height="122.358"/>
    </clipPath>
    <clipPath id="clip-path-3" transform="translate(-296 -401.632)">
      <rect class="cls-1" x="296" y="401.632" width="741.975" height="136.358"/>
    </clipPath>
  </defs>
  <title>soundwave</title>
  <g class="cls-2">
    <g class="cls-2">
      <g class="cls-3">
        <g class="cls-4">
          <path class="cls-5" d="M934.383,474.53h20.251a61.659,61.659,0,0,0,14.081,1.9c9.976.519,19.862-1.183,29.817-1.09,7.552-2.433,14.96.02,22.443.989-22.828,2.995-45.658,5.566-68.684,1.812a38.457,38.457,0,0,0-16.59.006c-7.592.686-14.436,3.615-21.1,7.069-7.86,4.077-15.531,6.9-23.355-.42-2.482-2.321-5.912-1.639-8.867.1-13.754,8.076-26.958,5.531-39.95-2-1.761-1.021-3.069-3.284-5.661-2.4a3.216,3.216,0,0,0-2.173-3.08c-5.346-4.588-11.568-8.609-18.421-5.5a71.589,71.589,0,0,0-25.39,19.2,3.324,3.324,0,0,0-2.027,2.553c-3.378,3.813-7.274,3.984-11.648,1.842a63.956,63.956,0,0,0-15.468-5.289c-6.323-1.287-10.8-5.655-14.671-10.554-7.623-9.658-14.132-20.074-20.485-30.589a7.764,7.764,0,0,0-2.928-3.311c-2.139-4.4-4.028-5-7.933-2.516a1.806,1.806,0,0,0-1.152,2.056c-2.49.024-3.093,2.253-4.28,3.739-7.874,9.862-12.608,21.372-17.481,32.862-7.1,16.748-17.652,31.538-27.432,46.746a23.094,23.094,0,0,1-4.059,4.381c-5.479,4.967-10.108,5.25-16.113.811-4.982-3.684-8.86-8.517-13.011-13.062-3.459-3.785-6.6-7.946-11.377-10.286a2.741,2.741,0,0,0-2.364-1.376c-2.114-2.772-5.075-3.033-8.212-2.77-.9-.293-1.8-1.248-2.67.051-13.228,1.915-22.028-4.577-29.193-14.851-4.832-6.928-10.39-13.373-14.317-20.9-3.756-7.193-8.812-11.51-17.467-9.254l-3.127-.224c-9.859-5.038-18.89-4.063-26.92,3.782a18.244,18.244,0,0,1-10,5.19c-2.876.474-5.482,1.439-6.951,4.243a3.146,3.146,0,0,0-1.951,2.88c-4.623,11.859-15.064,18.275-24.333,25.7-4.871,3.9-7.574,3.061-11.936-1.545-14.128-14.916-30.789-24.277-52.062-24.093-27.464.237-54.931.116-82.4,0A44.4,44.4,0,0,1,313,474.992c5.177-.771,10.335-1.723,15.536-2.252,3.68-.374,7.418-.175,11.13-.233,1.493,1.6,3.444.906,5.18.91,10.623.027,21.247-.056,31.87-.1q12.858,0,25.71,0l12.132.041a37.335,37.335,0,0,1,18.235,4.181c10.632,5.614,22.169,9.891,29.907,19.945,2.9,3.775,6.738,4.15,10.4,1.057,5.816-4.909,11.654-9.829,17.045-15.185a14.788,14.788,0,0,0,4.278-8.769,2.582,2.582,0,0,0,1.912-2.457c2.341-3.442,5.4-5.752,9.687-6.09,4.047-.319,7.031-2.669,9.8-5.283,7.141-6.734,15.2-8.024,24.239-4.471a44.434,44.434,0,0,0,5.717,1.44,2.732,2.732,0,0,0,2.8.56c4.852-1.916,8.6.057,12.073,3.2.048.605.347.93.982.882l-.061-.056c6.693,13.308,16.494,24.27,26.754,34.8a17.779,17.779,0,0,0,16.368,5.28l2.312-.052c4.948.148,9.352,2.037,13.652,4.26a2.615,2.615,0,0,0,2.392,1.73c7.578,6.964,13.506,15.579,21.737,21.878,6.036,4.62,10.837,4.317,16.443-.9a26.218,26.218,0,0,0,4.046-4.388c9.433-14.05,18.749-28.229,25.481-43.791,5.342-12.35,10.076-24.924,18.758-35.473a3.763,3.763,0,0,0,1.067-3.2c.847-.064,1.727-.071,2.02-1.129,6.441-5.058,7.722-4.867,12.673,1.771a30.55,30.55,0,0,0,2.335,2.514c-.15,1.578.89,2.588,1.753,3.683,4.867,9.128,11.279,17.221,17.094,25.72,6.363,9.3,15.759,12.6,26.14,14.334l-.044-.039c-.2.792.309.93.9.994,6.093,4.12,8.843,4.151,14.021.158,7.156-9.732,17.444-15.646,27.395-21.782,5.008-3.087,10.61-1.549,15.5,1.684q3.1,2.052,6.217,4.089a2.932,2.932,0,0,0,2.824,1.893c10.755,10.045,29.82,13.022,41.038,5.964,5.1-3.208,9.421-3.26,13.917.668A10.446,10.446,0,0,0,905.09,485.1c4.985-1.7,9.943-3.551,14.318-6.614l14.975-3.953" transform="translate(-296 -401.632)"/>
          <path class="cls-6" d="M934.383,474.53l-14.975,3.953a40.7,40.7,0,0,1-19.18-4.737c-10.3-5.56-21.555-9.76-29-19.642-2.367-3.14-5.831-4.341-9.1-1.542-8.354,7.156-18.472,12.687-22.711,23.785a2.932,2.932,0,0,1-2.824-1.893c4.419-11.793,14.822-18.041,23.867-25.465,5.171-4.245,8.155-3.424,12.648,1.7,10.9,12.435,24.926,19.8,40.847,23.131,6.571,1.376,13.6.541,20.429.711" transform="translate(-296 -401.632)"/>
          <path class="cls-6" d="M623.051,508.326a2.617,2.617,0,0,1-2.392-1.73,100.4,100.4,0,0,0,17.849-30.185c6.921-18.831,18.3-35.2,29.249-51.7,8.7-13.1,15.661-13.123,26.761-1.887,6.06,6.136,11.259,13.114,18.085,18.5-.293,1.058-1.172,1.065-2.021,1.128A85.841,85.841,0,0,1,700,431.942c-3.344-3.691-6.628-7.438-10.682-10.406-6.12-4.481-10.837-4.284-16.428.9a28.193,28.193,0,0,0-4.662,5.157C659,441.9,649.247,456,642.806,471.82c-5.277,12.959-11.032,25.49-19.755,36.506" transform="translate(-296 -401.632)"/>
          <path class="cls-6" d="M496.337,472.127a2.582,2.582,0,0,1-1.912,2.457,64.949,64.949,0,0,0-6.3-3.972c-11.212-5.453-22.785-7.376-34.228-1.209-5.332,2.873-9.671,3.526-14.352-.723a10.094,10.094,0,0,0-10.718-2c-4.938,1.8-9.9,3.627-14.269,6.679l-12.132-.041c8.055-2.119,15.368-6.038,22.89-9.428,5.694-2.566,10.873-2.348,15.716,1.859,3.193,2.774,6.734,3.435,10.518,1.206,14.092-8.3,27.558-5.691,40.707,2.321,1.415.862,2.723,1.9,4.08,2.855" transform="translate(-296 -401.632)"/>
          <path class="cls-6" d="M787.48,490.462c-5.177,3.993-7.928,3.962-14.021-.158.019-.623-.234-1-.9-.994l.043.04c-6.733-12.872-16.254-23.637-26.143-34.06-4.517-4.762-10.3-7.1-17.09-5.995-.863-1.1-1.9-2.105-1.754-3.683,10.671-1.905,18.733,2.268,25.069,10.64,6,7.926,12.493,15.515,17.139,24.371,3.784,7.212,8.72,12.036,17.661,9.839" transform="translate(-296 -401.632)"/>
          <path class="cls-6" d="M560.652,461.481c-3.472-3.141-7.221-5.113-12.073-3.2a2.728,2.728,0,0,1-2.8-.56c2.906-3.477,6.538-3.592,10.29-1.887a83.165,83.165,0,0,0,17.33,5.914c4.824,1.018,8.624,4.271,11.725,8.041a193.619,193.619,0,0,1,21.879,32.544l-2.312.052c-4.129-7.988-9.931-14.886-14.664-22.468-6.646-10.647-16.44-15.833-28.457-17.612l.06.056c.284-.975-.434-.834-.982-.882" transform="translate(-296 -401.632)"/>
          <path class="cls-6" d="M834.6,477.417a3.215,3.215,0,0,1,2.173,3.08,9.634,9.634,0,0,1-7.625,4.937,16,16,0,0,0-9.736,4.512c-7.827,7.85-16.739,9.571-26.854,4.858a26.048,26.048,0,0,0-3.8-1.124,3.322,3.322,0,0,1,2.027-2.554c10.972,4.494,20.578,2.694,28.817-6.047,2.1-2.225,5.056-2.99,8.015-3.538,2.82-.523,5.421-1.45,6.979-4.124" transform="translate(-296 -401.632)"/>
          <path class="cls-6" d="M543.373,461.187l3.127.224c-7.373,9.683-17.632,15.811-27.792,21.869-4.923,2.936-10.284,1.139-14.984-1.877-2.082-1.336-4.116-2.745-6.171-4.121a3.145,3.145,0,0,1,1.952-2.88c6.366,4.981,13.164,9.064,21.191,4.179,8.148-4.959,16.044-10.391,22.677-17.394" transform="translate(-296 -401.632)"/>
          <path class="cls-6" d="M998.532,475.345c-9.955-.094-19.841,1.608-29.818,1.089a61.712,61.712,0,0,1-14.08-1.9q20.672-.07,41.344-.127c.927,0,2.045-.292,2.554.941" transform="translate(-296 -401.632)"/>
          <path class="cls-6" d="M376.716,473.314c-10.623.046-21.246.129-31.869.1-1.737,0-3.688.687-5.181-.91,10.742-.468,21.481-1.915,32.231-.147,1.615.266,3.213.634,4.819.954" transform="translate(-296 -401.632)"/>
          <path class="cls-6" d="M607.477,506.414c.865-1.3,1.774-.344,2.67-.052,2.038,3,4.445,4.9,8.212,2.771a2.741,2.741,0,0,1,2.364,1.376c-4.672,4.642-7.009,4.579-10.8-.368-.9-1.175-1.634-2.481-2.444-3.727" transform="translate(-296 -401.632)"/>
          <path class="cls-6" d="M723.561,445.778a7.758,7.758,0,0,1,2.928,3.311,20.494,20.494,0,0,1-12.012-3.77,1.807,1.807,0,0,1,1.151-2.057,18.61,18.61,0,0,0,7.933,2.516" transform="translate(-296 -401.632)"/>
          <path class="cls-6" d="M935.7,478.151a38.457,38.457,0,0,1,16.59-.006l-16.59.006" transform="translate(-296 -401.632)"/>
          <path class="cls-7" d="M723.561,445.778a18.61,18.61,0,0,1-7.933-2.516c3.9-2.481,5.794-1.881,7.933,2.516" transform="translate(-296 -401.632)"/>
          <path class="cls-7" d="M618.359,509.133c-3.767,2.129-6.174.229-8.212-2.77,3.138-.263,6.1,0,8.212,2.77" transform="translate(-296 -401.632)"/>
          <path class="cls-8" d="M560.652,461.481c.548.048,1.266-.093.982.882-.635.048-.934-.277-.982-.882" transform="translate(-296 -401.632)"/>
          <path class="cls-8" d="M772.554,489.311c.67,0,.923.371.9.994-.6-.064-1.109-.2-.9-.994" transform="translate(-296 -401.632)"/>
        </g>
      </g>
    </g>
  </g>
</svg>
