<svg id="Layer_1" data-name="Layer 1" xmlns="http://www.w3.org/2000/svg" viewBox="0 0 1049.49 620.567">
  <defs>
    <style>
      .cls-1 {
        fill: #efeef5;
      }

      .cls-2 {
        fill: #cbd4e1;
      }

      .cls-3 {
        fill: #e3e7ef;
      }

      .cls-4 {
        fill: #d7dce8;
      }

      .cls-5 {
        fill: #c3d3e0;
      }

      .cls-6 {
        fill: #dadde9;
      }

      .cls-7 {
        fill: #c6cedc;
      }

      .cls-8 {
        fill: #d9e1ea;
      }

      .cls-9 {
        fill: #eef0f6;
      }

      .cls-10 {
        fill: #d2dbe6;
      }

      .cls-11 {
        fill: #d1d9e5;
      }

      .cls-12 {
        fill: #d9dae7;
      }

      .cls-13 {
        fill: #c6d6e2;
      }

      .cls-14 {
        fill: #f0f1f7;
      }

      .cls-15 {
        fill: #999ba2;
      }

      .cls-16 {
        fill: #41527b;
      }

      .cls-17 {
        fill: #999aa2;
      }

      .cls-18 {
        fill: #9a9ba2;
      }

      .cls-19 {
        fill: #9a9ba3;
      }

      .cls-20 {
        fill: #42537c;
      }

      .cls-21 {
        fill: #41537b;
      }

      .cls-22 {
        fill: #42547c;
      }

      .cls-23 {
        fill: #d4d9e5;
      }

      .cls-24 {
        fill: #f0f0f6;
      }

      .cls-25 {
        fill: #f0f1f6;
      }

      .cls-26 {
        fill: #e6e9f1;
      }

      .cls-27 {
        fill: #515661;
      }

      .cls-28 {
        fill: #626b80;
      }

      .cls-29 {
        fill: #8592a9;
      }

      .cls-30 {
        fill: #868ba5;
      }

      .cls-31 {
        fill: #555e71;
      }

      .cls-32 {
        fill: #97b5c7;
      }

      .cls-33 {
        fill: #66798f;
      }

      .cls-34 {
        fill: #a3b6c9;
      }

      .cls-35 {
        fill: #a4b8ca;
      }

      .cls-36 {
        fill: #a0b4c7;
      }

      .cls-37 {
        fill: #99aec3;
      }

      .cls-38 {
        fill: #96acc0;
      }

      .cls-39 {
        fill: #96acc1;
      }

      .cls-40 {
        fill: #8ba2b8;
      }

      .cls-41 {
        fill: #69768e;
      }

      .cls-42 {
        fill: #97adc1;
      }

      .cls-43 {
        fill: #98adc2;
      }

      .cls-44 {
        fill: #9bb0c4;
      }

      .cls-45 {
        fill: #97acc1;
      }

      .cls-46 {
        fill: #97abc1;
      }

      .cls-47 {
        fill: #96abc0;
      }

      .cls-48 {
        fill: #1bc2f2;
      }

      .cls-49 {
        fill: #9a9ca3;
      }

      .cls-50 {
        fill: #d1a3a7;
      }

      .cls-51 {
        fill: #d1adb1;
      }

      .cls-52 {
        fill: #ece7ec;
      }

      .cls-53 {
        fill: #d2a4a8;
      }

      .cls-54 {
        fill: #ce9b9f;
      }

      .cls-55 {
        fill: #d59b9e;
      }

      .cls-56 {
        fill: #e9696b;
      }

      .cls-57 {
        fill: #eb676a;
      }

      .cls-58 {
        fill: #eb8386;
      }

      .cls-59 {
        fill: #dabcc1;
      }

      .cls-60 {
        fill: #d2aeb3;
      }

      .cls-61 {
        fill: #eb7072;
      }

      .cls-62 {
        fill: #eb6b6d;
      }

      .cls-63 {
        fill: #ea5d5f;
      }

      .cls-64 {
        fill: #e95f61;
      }

      .cls-65 {
        fill: #ea6366;
      }

      .cls-66 {
        fill: #eb6f72;
      }

      .cls-67 {
        fill: #ed8d91;
      }

      .cls-68 {
        fill: #eeeef4;
      }

      .cls-69 {
        fill: #eeedf4;
      }

      .cls-70 {
        fill: #ebeaf0;
      }

      .cls-71 {
        fill: #eeedf3;
      }

      .cls-72 {
        fill: #7f9ab0;
      }

      .cls-73 {
        fill: #efeff5;
      }

      .cls-74 {
        fill: #ececf2;
      }

      .cls-75 {
        fill: #f0eff5;
      }

      .cls-76 {
        fill: #efecf2;
      }

      .cls-77 {
        fill: #efeef3;
      }

      .cls-78 {
        fill: #f0edf3;
      }
    </style>
  </defs>
  <title>VoiceCoach_down_wrong</title>
  <g>
    <path class="cls-1" d="M87,360c8.089-6.118,17.091-10.765,25.8-15.875,14.6-8.565,29.308-16.932,43.988-25.353Q175.572,308,194.393,297.282q17.281-9.894,34.543-19.823,16.842-9.658,33.691-19.3c14.814-8.519,29.585-17.115,44.428-25.583,13.408-7.649,26.953-15.061,40.314-22.79,8.508-4.922,17.183-9.518,26.428-12.789,26.425-9.35,51.442-5.735,75.356,8.458,16.123,9.569,32.526,18.666,48.775,28.024,16.822,9.687,33.593,19.462,50.416,29.147,16.247,9.353,32.55,18.609,48.8,27.963,16.675,9.6,33.288,19.31,49.974,28.891,12.662,7.271,25.421,14.372,38.093,21.626,14.54,8.323,29.019,16.755,43.549,25.1,12.662,7.269,25.365,14.467,38.037,21.719q23.108,13.224,46.2,26.48c12.532,7.166,25.1,14.263,37.627,21.444,14.82,8.5,29.592,17.084,44.413,25.582,12.524,7.181,25.106,14.258,37.629,21.44,14.82,8.5,29.583,17.1,44.409,25.587,12.671,7.256,25.419,14.378,38.092,21.631,14.541,8.323,29.033,16.732,43.553,25.09,9.776,5.628,19.577,11.213,29.334,16.873a41.813,41.813,0,0,1,3.96,2.944c.773,1.753,2.361,2.741,3.719,3.939,8.432,7.442,8.8,17.637,1.065,25.627-10.333,10.676-23.7,16.878-36.016,24.624a3.229,3.229,0,0,1-3.753.064c-.262-3.217,2.611-3.98,4.46-5.329,4.576-3.339,9.909-5.45,14.558-8.74a65.617,65.617,0,0,0,9.519-8.05c7.814-8.128,5.845-21.539-3.8-27.471-13.875-8.53-28.135-16.4-42.136-24.677-9.561-5.655-19.017-11.575-28.869-16.662-7.931-4.1-14.813-9.934-23.818-13.493,3.615,3.38,7.623,5.07,11.263,6.891,9.93,4.969,19.007,11.293,28.554,16.851,4.7,2.735,4.64,5.012-.234,7.789-20.676,11.78-41.43,23.423-62.067,35.274-17.194,9.873-34.454,19.63-51.566,29.646-2.155,1.261-4.267,2.629-6.762,3.152a1.745,1.745,0,0,1-1.836-.443c-.69-.854-.105-1.59.43-2.184a17.05,17.05,0,0,1,4.507-3.109c28.4-16.127,56.636-32.524,84.988-48.726,8.524-4.871,17.011-9.81,25.23-15.191,3.166-2.072,3.14-2.826.1-4.712-42.6-26.4-86.513-50.566-129.9-75.611q-69.482-40.1-139.163-79.87-17.358-9.907-34.71-19.832c-5.29-3.032-10.541-6.278-16.479-8.082-3.742-1.137-6.075-4.5-9.608-6.176A81.761,81.761,0,0,0,677,356.231a55.207,55.207,0,0,1-16.73-7.566,4.625,4.625,0,0,0-5.2-.351c-4.113,2.332-8.1,1.339-11.951-.511-3.015-1.45-6.043-2.025-9.177-.9-2.527.908-4.461.677-6.118-1.614-1.443-2-3.222-2.207-5.048-.363-.706.713-1.521,1.848-2.386,1.681-5.921-1.143-12.285.658-17.844-2.224-2.768-1.435-4.9-2.1-7.848-.5-2.608,1.407-5.568,1.939-8.306-.473-2.114-1.862-4.21.073-5.9.93-4.833,2.451-9.054,3.222-12.6-2-1.032-1.522-2.2-1.454-3.634.051-3.765,3.946-7.126,4.517-11.712,2.383-2.57-1.2-5.065-1.631-7.482.391-.895.749-2.332,1.874-3.082,1.253-3.565-2.952-6.979-.7-10.555-.333-3.368.349-7.062.686-9.868-2.255a2.94,2.94,0,0,0-3.259-.637c-3.818,1.365-7.818.569-11.578.927-7.753.738-15.682-.893-23.284,1.6-1.894.62-3.876,1.212-5.7-.315-1.346-1.127-2.365-.34-3.534.47a10.866,10.866,0,0,1-11.341.893c-1.959-.907-2.967-1.126-4.2,1.271-1.977,3.834-5.82,3.8-9.586,3.242-.912-2.158,1.031-2.856,2.078-3.975,3.336-3.566,2.7-6.549-1.818-8.258a7.947,7.947,0,0,0-3.891-.665c-3.214.469-4.93-.656-6.527-3.7-2.186-4.169-6.653-4.536-10.926-4.015-6.173.752-10.859,4.734-15.932,7.8-2.3,1.391-.569,2.435.706,3.217,4.237,2.6,8.7,4.823,12.841,7.575,1.446.96,3.462,1.464,3.621,3.718-1.324,1.827-3.5,2.718-5.183,1.713-5.58-3.332-9.2,1.173-13.5,2.913-.875.354-1.46,1.309-2.381,1.718a2.9,2.9,0,0,1-3.457-1.821c-.1-.745.522-1.78-.2-2.194-.84-.48-1.082.865-1.785,1.122a2.4,2.4,0,0,1-1.945-.053c-1.989-1.1-4.782-1.646-5.123-4.252-.331-2.535,2.287-3.371,3.975-4.627a6.458,6.458,0,0,0,1.927-1.535c-3.329,0-18.065,7.878-25.113,13.437a20.841,20.841,0,0,1-3.541,2.326c-2.259.492-4.206,2.224-6.721,1.725-1.534-1.158-3.135-.721-4.713-.146-2.345.855-4.865.481-7.129.816a66.6,66.6,0,0,0-15.575,4.292c-5.093,2.152-9.615,1.853-14.486,2.107-1.933-2.671-5.12-3.58-7.646-5.419-2.721-1.98-2.786-3.9-.035-5.9,1.482-1.078,3.154-1.858,4.6-2.979,4.352-3.369,4.069-6.62-.927-9.018-5.462-2.622-10.978-2.283-16.352.331-2.687,1.307-5.146,3.05-7.824,4.39-2.716,1.359-2.5,2.523,0,4.044,8.232,5.008,16.727,9.57,24.878,14.723-.137,5.093-3.835,4.837-7.336,4.891-11.387-2.95-22.725-6.1-34.108-9.074a17.514,17.514,0,0,0-4.876-.894c-1.507.041-3.12.187-3.857,1.734-.689,1.446.5,2.5,1.265,3.53,2.979,3.98,6.2,7.777,9.063,11.845,1.127,1.6,2.628,3.075,2.1,5.337-.6.645-1.5,1.209-2.206.911-4.165-1.742-7.129-.942-10.029,2.859-1.72,2.255-11.1-1.186-14.046-5.064a21.278,21.278,0,0,1-11.21,9.927,17.082,17.082,0,0,1-6.393,1.547c-4.612.124-9.267,3.1-10.82,6.7-2.219,5.14-5.789,4.936-9.584,4.9-3.187-.034-5.874-.551-6.858,3.656-.482,2.057-10.307,4.842-12.251,4.03-1.732-.723-.591-2.909-2.571-3.994.526,3.507-1.141,5.061-4.1,6.274-3.781,1.549-4.83,5.986-5.92,9.159-.881,2.565,3.109,4.637,5.941,6.393,26.9,16.687,54.683,31.845,82.112,47.611,46.069,26.479,92.059,53.1,138.195,79.459,29.649,16.942,59.177,34.1,88.85,51a6.938,6.938,0,0,1,1.269.795c1.577,1.433,5.482,2.092,3.916,4.635-1.3,2.109-4.267-.25-6.171-1.343q-27.087-15.546-54.135-31.16c-32.931-18.919-65.967-37.653-98.839-56.676-7.616-4.407-16.234-6.874-23.432-12.192-8.274-6.113-18.1-9.566-26.547-15.659-4.889-3.527-11.039-5.958-16.626-8.862-19.063-9.906-37.482-20.973-56.223-31.46-12.645-7.075-25.435-13.78-38.688-19.707-22.929-10.256-45.51-21.284-68.2-32.076a4.445,4.445,0,0,1-1.624-1.042c8.371,4.7,16.815,10.211,25.576,15.186,6.966,3.956,13.53,8.524,20.294,12.785,1.239.781,2.649,1.587,2.2,3.493-2.147,1.242-3.9-.073-5.546-1.057-15.843-9.47-32.055-18.3-47.916-27.737-8.274-4.924-17.05-9.014-24.566-15.174-4.3-3.521-8.191-7.244-9.812-12.855-2.376-8.225-.344-14.479,6.633-19.6C85.227,362.718,86.721,361.865,87,360Z" transform="translate(-64.644 -191.818)"/>
    <path class="cls-2" d="M225.953,509.031c-9.558-3.141-17.612-9.142-26.259-13.983-20.539-11.5-40.27-24.381-60.885-35.765-4.031-2.226-8.369-4.05-11.829-7.248a.794.794,0,0,1-.309-.73c.044-.269.1-.4.171-.405,1.862-.58,3.781-.929,5.679-1.381,3.143.577,5.487,2.643,8,4.363,1.757,1.2,3.425,2.5,5.752,1.831a1.594,1.594,0,0,1,1.331,1.9,2.829,2.829,0,0,0-.043,1.241,4.565,4.565,0,0,1,.049-.724c.125-.4.243-.783.357-1.183.414-1.333.892-2.934,2.61-1.472,8.021,6.825,17.82,10.468,26.98,15.257.383.271.743.572,1.1.877,11.759,6.782,23.677,13.284,35.335,20.239A41.054,41.054,0,0,1,222.378,498c.724.73,1.719,2.086,2.856.836.852-.936.224-2.22-.44-3.215-.961-1.439-2.587-2.018-3.937-2.959-1.748-1.219-3.882-1.935-5.1-3.848-2.369-3.069-6.273-3.869-9.15-6.181-1.264-1.016-3.509-1.473-2.432-3.951,2.194-.864,3.866.471,5.581,1.4,22.529,12.221,44.208,25.922,66.813,38.029,22.281,11.933,43.944,24.99,65.868,37.57,13.669,7.844,27.58,15.354,41.136,23.348,21.922,12.927,44.105,25.407,66.044,38.3,14.175,8.333,28.4,16.634,42.891,24.481,13.415,7.266,26.3,15.533,39.446,23.323,7.563,4.483,15.773,7.83,23.134,12.7,8.156,5.394,17.107,9.427,25.219,14.914,3.826,2.588,8.163,4.4,12.247,6.553,8.357,4.415,15.548,10.963,24.841,13.634,10.663,6.73,21.781,12.684,32.725,18.93,10.227,5.836,20.559,11.5,30.531,17.753,10.709,6.721,22.316,11.807,33.029,18.5,5.908,3.693,11.667,7.614,18.23,10.185,4.64,1.818,9.1,4.027,14.125,4.755,1.7.247,3.746.5,4.205,2.828-1.852,2.636-4.51,2.088-6.786,1.218-7.549-2.885-15.984-3.294-22.916-8.925.563,4.346,3.238,6.78,7.076,6.166,3.2-.511,5.372.7,7.805,2.295,9.315,6.113,19.224,10.572,30.692,10.516,3.211-.016,3.693.48,4.659,3.279-8.52,2.857-16.984,1.526-25.276-.788-4.593-1.282-8.755-3.9-13.38-5.311a5.431,5.431,0,0,0-4.669.293c-4.407-.33-7.381-3.127-10.312-6-.521-3.233-2.549-5.093-5.349-6.652-10.031-5.582-19.9-11.465-29.906-17.074-5.2-2.914-10-6.9-15.281-8.958-10.657-4.152-19.409-11.251-29.248-16.591-8.875-4.817-17.665-9.868-26.476-14.833-7.813-4.4-15.725-8.638-23.458-13.187-5.423-3.19-11.219-5.751-16.19-9.713-3.258-2.6-7.219-4.1-10.852-5.975-10.5-5.411-20.669-11.39-30.825-17.384-2.743-1.619-5.617-1.886-8.53-2.439A32.912,32.912,0,0,1,511.189,671c-10.32-7.292-21.885-12.453-32.68-18.963-14.727-8.881-29.993-16.982-45.029-25.4-18.84-10.552-37.527-21.4-56.192-32.274-18.495-10.775-37.322-20.973-55.891-31.618-7.772-4.456-15.68-8.731-23.009-13.938-2.59-1.84-5.839-2.438-8.365-4.4-1.187-2.274.515-5.172-1.57-7.257a6.938,6.938,0,0,1-.613-2.023c-.084-2.959-1.649-4.906-4.124-6.368-12.026-7.1-24.313-13.756-36.3-20.929-1.338-.8-2.826-1.933-4.45-.311.376,1.853,2.085,2.044,3.3,2.731,11.007,6.208,21.913,12.59,32.87,18.884A16.106,16.106,0,0,1,286,536.147c.875,2.465,2.2,5-1,6.864-3.724-.067-6.344-2.683-9.306-4.312-10.566-5.812-20.989-11.891-31.359-18.05-6.223-3.7-12.247-7.726-18.361-11.606,1.76-2.676,5.952-4.171,4.112-8.6C231.86,504.849,227.671,506.336,225.953,509.031Z" transform="translate(-64.644 -191.818)"/>
    <path class="cls-3" d="M1057,629a5.6,5.6,0,0,0,3.309-.819c8.42-5.6,17.389-10.3,25.717-16.078a78.263,78.263,0,0,0,12.231-10.944c4.572-4.849,3.385-15.551-2.008-20.35-1.836-1.634-4.2-2.883-4.241-5.822L1100,581c8.388,8.227,8.849,19.115.674,27.5-7.985,8.188-17.955,13.748-27.742,19.436-34.843,20.248-69.889,40.142-104.862,60.161-31.792,18.2-63.542,36.471-95.4,54.56-17.228,9.783-34.392,19.678-51.753,29.227-26.3,14.466-53.4,17.659-80.9,4.3-15.4-7.484-29.942-16.712-44.845-25.2-29.516-16.815-58.938-33.795-88.431-50.648-26.314-15.036-52.544-30.219-78.887-45.2-12.448-7.08-24.824-14.285-37.284-21.342-1.737-.984-3.5-1.97-5.6-1.9a4.141,4.141,0,0,1-3.628-2.236c-3.006-4.1-7.83-5.553-11.949-7.925q-50.619-29.153-101.345-58.12c-42.547-24.15-84.847-48.728-127.378-72.9q-61.414-34.91-122.618-70.19c-11.249-6.467-22.781-12.453-33.591-19.681a29.93,29.93,0,0,1-10.367-11.906c-4.123-8.359-2.809-15.226,4.07-21.6a36.71,36.71,0,0,1,4.83-4.323L87,360c.775.121,1.991.161,1.05,1.321a17.87,17.87,0,0,1-4.451,3.939,13.816,13.816,0,0,0-6.259,11.863,19.848,19.848,0,0,0,7.186,15.225c7.589,6.487,16.086,11.375,24.855,16.046,9.641,5.135,18.634,11.49,28.3,16.583,9.2,4.851,17.566,11.211,27.322,15.027,4.9.487,7.906,4.615,12.183,6.3a27.915,27.915,0,0,0,5.45,3.086c14.256,7.949,28.246,16.362,42.462,24.369Q264.05,495.7,302.75,518.094c24.226,14,48.567,27.8,72.8,41.782,40.536,23.393,81.253,46.471,121.78,69.88,28.123,16.244,56.393,32.232,84.517,48.474,33.6,19.406,67.351,38.563,101.042,57.818,20.386,11.651,40.449,23.889,61.353,34.6,15.77,8.083,32.554,9.259,49.587,5.19,8.275-1.977,15.762-6.28,23.181-10.424q34.447-19.242,68.632-38.947,40.057-23.025,80.124-46.033c18.635-10.675,37.347-21.228,55.924-32,10.37-6.014,21.027-11.529,31.2-17.885C1054.149,629.764,1055.361,628.806,1057,629Z" transform="translate(-64.644 -191.818)"/>
    <path class="cls-4" d="M617,714c-3.952-1.25-7.936-2.493-11.223-5.128-5.978-4.791-12.845-8.352-19.55-11.645-7.342-3.605-13.919-8.463-21.411-11.887-5.147-2.352-10.18-5.97-15.148-9.2a71.491,71.491,0,0,0-14.485-7.353c-2.725-1-4.971-3.23-7.569-4.657-9.652-5.3-18.964-11.2-28.387-16.853-9.173-5.5-18.825-10.106-27.846-15.9-10.974-7.05-22.585-13.106-33.9-19.623-10.761-6.2-21.545-12.354-32.234-18.672-7.512-4.44-15.175-8.621-22.61-13.216a158.418,158.418,0,0,0-16-8.525c-5.827-2.724-11.2-6.84-16.9-10.124-11.2-6.443-22.461-12.765-33.661-19.2-5.293-3.041-10.355-6.518-15.79-9.268-6.783-3.432-13.34-7.3-20.008-10.905-9.564-5.174-19.181-10.331-28.519-15.949-10.438-6.28-20.7-12.9-31.487-18.526-5.39-2.813-10.2-6.874-16.27-8.367-2.017.872-3.6-.322-5.073-1.29-25.2-16.563-52.264-29.943-77.928-45.728-8.177-5.029-16.555-9.844-25.2-14.207-12.015-6.062-20.765-15.918-26.807-28.061-1.224-2.461-.958-5.218-1.95-7.692.954-3.391,2.2-6.62,4.959-9.022,1.136-.234,1.652.423,1.364,1.351-3.8,12.2,2.4,19.951,11.682,26.313,9.041,6.2,18.645,11.453,28.213,16.771,18.716,10.4,37.129,21.339,55.779,31.858,24.872,14.029,49.557,28.385,74.369,42.518,16.44,9.364,32.93,18.648,49.2,28.3,3.56,4.214,8.433,6.23,13.449,8.006a10.106,10.106,0,0,1,2.386,1.473c2.141,3.8,6.092,4.436,9.761,5.568a26.221,26.221,0,0,1,5.55,3.315c2.887,3.631,7.056,5.354,10.908,7.657,14.422,8.62,28.822,17.285,42.933,26.413,3.09,2,6.093,4.112,10.017,4.018A4.331,4.331,0,0,1,390.689,578c8.231,7.692,18.012,12.9,27.988,17.926,5.285,2.661,9.721,6.781,15.034,9.626,14.949,8,29.448,16.821,44.1,25.355q26.277,15.3,52.675,30.413,27.494,15.742,54.929,31.59,14.036,8.078,27.958,16.385C615.144,710.352,617.409,711.192,617,714Z" transform="translate(-64.644 -191.818)"/>
    <path class="cls-5" d="M1111.02,595.975A28.5,28.5,0,0,1,1113,617c-3.491,13.24-14.764,18.584-25.237,24.639-2.111,1.221-4.227,2.49-6.411,3.6-1.593-.376-.95-2.369-2.177-3.048-.043-.63-.408.569.126.171.722,3.145-1.053,4.816-3.565,6.057-1.906.511-3.918.1-5.816.68-2.532,1.664-2.922,5.26-5.885,6.515-1.934.336-3.016,2.329-4.984,2.6-.825-.758-1.551-1.042-2.275.207a13.914,13.914,0,0,1-2.423,3.641c-1.916,1.073-4.279,0-6.152,1.29-2.9.287-3.192,4.024-5.94,4.511-1.973.237-3.18,2.124-5.131,2.408-2.986-.1-3.043,2.4-3.789,4.288-2.082,1.734-5.133-.572-7.087,1.7-1.18-.631-2.006-.508-2.71.837-.741,1.417-1.213,3.033-2.516,4.123a10.293,10.293,0,0,0-7.024,1.875,122.865,122.865,0,0,1-15.737,8.644c-2.373,1.112-4.693,1.854-6.177-.264,3.031,2.257,1.752,4.863-.751,7.433-1.16,1.19-2.265,2.423-3.307,3.728-2.413,3.023-3.313,2.777-5.448-1.881-.618,8.89-7.864,10.605-13.477,14.008a2.69,2.69,0,0,1-2.019-.443c-.946-2.458,1.2-3.134,2.536-4.1a34.673,34.673,0,0,0,6.658-5.848c1.261-1.532,2.273-3.177-.737-3.985a12.192,12.192,0,0,0-3.937.14c-7.249,4.253-14.551,8.4-21.848,12.563-3.922,2.235-7.514,4.842-8.819,9.523a7.809,7.809,0,0,0-.637,3.053c-.014,1.3.856,2.31,1.122,3.518a3.6,3.6,0,0,1-1.411,2.833l.012.012c-3.831.979-3.9-1.846-4.348-4.284-1.292-3.515-3.961-4.491-7.089-2.005-10.075,8.007-21.509,13.719-32.682,19.895q-11.143,6.159-22.319,12.258c-1.668.911-4.058,3.125-5.767.683-1.762-2.519,1.092-3.676,2.68-4.984a7.668,7.668,0,0,0,1.538-1.944,5.192,5.192,0,0,1,1.619-1.5c6-1.838,12.5-3.463,17.041-7.519,6.013-5.376,13.506-7.939,19.852-12.575,3.928-2.869,8.4-5.148,12.332-8.159a8.745,8.745,0,0,1,1.207-.816c4.152-1.857,8.369-3.586,12.018-6.4,1.158-.895,2.4-1.79,3.986-.833.41.867-.038,1.529-.448,2.254a13.313,13.313,0,0,1,4.532-4.723c9.273-5.187,18.169-11.052,27.871-15.468.188-.086,1.291.317.551-.51-2.183-2.441.172-2.886,1.549-3.84,15.881-11,33.194-19.577,49.9-29.145,15.376-8.8,30.482-18.074,45.976-26.654a141.158,141.158,0,0,0,31.04-23.031,25.691,25.691,0,0,0,7.538-13.17C1108.914,598.135,1108.44,595.957,1111.02,595.975Z" transform="translate(-64.644 -191.818)"/>
    <path class="cls-6" d="M289.927,543.958c5.964.378,9.954,4.72,14.7,7.464,9.8,5.658,19.24,11.944,29.175,17.335,6.188,3.358,12.169,7.24,18.88,9.585,2.547.89,4.523,2.747,6.687,4.129,7.424,4.74,15.4,8.45,22.9,12.955,8.449,5.073,17.235,9.584,25.525,14.8,8.336,5.245,16.922,10.149,25.489,14.839,6.263,3.428,12.329,7.39,18.872,10.5,6.063,2.878,12.733,5.339,17.657,10.534a8.37,8.37,0,0,0,6.089,2.986c2.447-.007,4.12,1.942,5.947,3.313,4.729,3.549,9.442,7.058,15.334,8.562,3.8.971,6.27,4.2,9.6,6.064,4.74,2.647,9.316,5.593,14.208,7.981,16.487,8.275,31.818,18.592,48.22,27.067,9.68,5,18.879,11.076,28.432,16.395,12.066,6.717,23.554,14.438,35.727,20.881,12.624,6.682,24.972,13.845,37.3,20.995C686.48,769.5,702.573,778.19,718,788c2.063,3.406,5.714,4.43,9,6,3.122-.1,5.651,1.675,8.428,2.671,10.111,3.625,20.174,6.9,30.975,8.617,11.694,1.862,22.962.4,33.845-2.03,10.009-2.237,19.754-6.566,29.175-11.243,10.269-5.1,19.706-11.66,30.136-16.413,1.742-.794,3.444-2.317,5.474-.588-6.7,5.237-14.4,8.839-21.711,13.045-13.543,7.786-27.133,15.6-42.133,20.309-20.828,6.544-41.237,5.075-60.973-4.3-14.417-6.85-27.351-16.3-41.365-23.882-13.131-7.109-25.958-14.782-38.916-22.211q-22.895-13.126-45.789-26.254c-12.682-7.252-25.4-14.436-38.076-21.7-14.684-8.422-29.318-16.931-44-25.349-12.674-7.265-25.4-14.435-38.087-21.683q-22.916-13.094-45.8-26.249-21.165-12.143-42.321-24.3-23.541-13.5-47.094-26.989c-14.557-8.321-29.155-16.571-43.695-24.922-10.059-5.777-20.05-11.671-30.072-17.512,1.8-2.336.531-4.672,0-7.007.943-1.778,2.444-1.432,3.957-1.04l.092,2.125C291.135,539.149,288.981,541.752,289.927,543.958Z" transform="translate(-64.644 -191.818)"/>
    <path class="cls-7" d="M67.04,382.022c.861.1,1.735.321,1.835,1.333.815,8.267,6.011,14.08,11.007,20.073,6.966,8.355,16.256,13.046,25.752,17.847,5.9,2.983,11.483,6.838,17.285,10.18,6.7,3.86,13.4,7.774,19.956,11.835,9.992,6.194,20.365,11.692,30.6,17.38,10.4,5.777,19.776,13.187,30.521,18.329,3.4,3.757,8.392,5.135,12.259,8.195a.532.532,0,0,1,.053.471c-.051.141-.224.237-.344.353-2.023,1.39-3.462-.266-4.956-1.075-7.892-4.277-15.585-8.909-23.42-13.288a22.086,22.086,0,0,0-5.9-2.619,4.441,4.441,0,0,0-4.589.912c-6.26-2.017-11.294-6.5-17.365-8.781-3.529-1.328-7.143-3.317-8.961-5.845-2.627-3.653-1.862,1.723-2.9.558a6.99,6.99,0,0,0-3.22-4.718c-5.376-3.227-10.871-6.251-16.217-9.527a3.187,3.187,0,0,0-3.712-.163,2.216,2.216,0,0,1-1.915-.262c-.354-.445-.408-1.069-.851-1.468.213.385.3.822.514,1.233,2.873,2.782,7.583,3.041,9.514,7.053-1.4,1.658-3.013,2.27-4.992.971-3.73-.715-7.03-2.114-7.846-6.29-.316-1.617-1.052-1.231-2.039-1.121a7.06,7.06,0,0,1-4.321-.959c-13.25-7.72-27.846-13.324-38.852-24.589-5.212-4.13-7.632-10.092-8.591-16.155C64.314,395.334,64.078,388.432,67.04,382.022Z" transform="translate(-64.644 -191.818)"/>
    <path class="cls-8" d="M873.992,751l-1,.987c-17.712,9.732-34.631,20.94-53.2,29.049-4.339,1.894-8.983,3.1-13.273,5.286a9.862,9.862,0,0,1-7.792.424,1.78,1.78,0,0,1-.954-1.088c2.46-3.539,6.685-4.346,10.195-5.74,20.383-8.1,38.262-20.738,57.477-30.927,10.6-5.619,20.929-11.664,31.215-17.786,17.006-10.121,34.155-19.99,51.294-29.88,18.008-10.392,36.414-20.137,54.149-30.939,11.645-7.093,23.785-13.277,35.338-20.533,10.685-6.711,22.089-12.316,32.833-18.976,10.993-6.815,22.433-12.987,31.488-22.656,4.3-4.587,6.435-9.14,4.515-15.246a2.974,2.974,0,0,1,.583-2.17,1.734,1.734,0,0,1,2.136.2c.689,1.652,1.963,3.065,2.029,4.971-2.1,3.034-1.463,6.865-3.32,10.143-3.959,6.99-9.947,11.943-15.938,16.792-3.036,2.457-6.5,4.511-9.594,7.006-6.974,5.627-15.381,8.818-22.943,13.448-7.347,4.5-14.954,8.617-22.294,13.041-8.941,5.39-18.079,10.5-27.086,15.756-6.055,3.534-12.235,7.05-18.579,10.141-4.805,2.342-8.731,5.979-13.366,8.587a53.014,53.014,0,0,1-5.456,2.677c.268,2.064,2.143.887,2.594,1.611-12.194,7.939-26.515,12.605-36.913,23.477-.491-1.563,1.342-2.933,1.863-4.655-.452-1.943-1.741-.5-2.064-.23C933.7,717.245,928.424,718.9,924,722h0C907.178,731.4,891.162,742.2,873.992,751Z" transform="translate(-64.644 -191.818)"/>
    <path class="cls-9" d="M1107,591q0,1,0,2c1.686,5.878-.509,10.531-4.349,14.878-8.43,9.544-19.4,15.65-30.112,21.934-18.189,10.675-36.562,21.047-54.848,31.56-22.9,13.163-45.893,26.148-68.729,39.413Q911.239,722.7,873.4,744.422c-26.2,15.07-52.246,30.5-80.043,42.6a62.3,62.3,0,0,1-38.183-1.686c-15.069-5.474-28.452-14.406-42.347-22.248-36.53-20.617-72.82-41.655-109.236-62.471-31.5-18.007-63.016-36-94.361-54.281-6.47-3.774-13.174-7.137-19.529-11.11-1.8-1.125-3.942-1.924-4.707-4.225,1.776-1.9,3.1.069,4.3.736,10,5.573,19.914,11.3,29.857,16.978,11.24,6.415,22.5,12.8,33.725,19.241,14.676,8.424,29.311,16.918,43.991,25.334,12.669,7.263,25.395,14.426,38.062,21.691,14.679,8.419,29.308,16.924,43.984,25.347q18.783,10.78,37.622,21.459c6.919,3.943,13.724,8.109,20.792,11.765a82.913,82.913,0,0,0,33.156,9.493c19.121,1.208,36.059-4.828,52.582-13.883,17.765-9.735,35.266-19.925,52.968-29.764,16.818-9.348,33.333-19.239,50.014-28.832,12.372-7.115,24.814-14.107,37.194-21.207,14.967-8.583,29.882-17.257,44.857-25.827,12.675-7.254,25.46-14.316,38.091-21.643,16.634-9.648,33.767-18.5,49.187-30.119,6.231-4.693,10.536-10.468,9.7-19-.451-4.575-3.523-7.8-5.072-11.773,2.992.483,4.4,2.853,5.989,5.014C1105.418,587.858,1107.644,589.139,1107,591Z" transform="translate(-64.644 -191.818)"/>
    <path class="cls-10" d="M865.031,775.016c-3.569-.178-6.266,2.237-8.942,3.8-5.964,3.476-12.205,6.473-17.981,10.33-3.774,2.521-8.551,3.523-12.383,5.978-7.047,4.515-15.578,5.064-22.754,9.157a14.746,14.746,0,0,1-7.147,1.716c-4.63.027-9.251,1.182-13.671,1.385-4.688.215-10.112,2.593-14.719-1.025a1.4,1.4,0,0,0-.939-.263c-7,.891-13.18-2.106-19.666-3.87a76.792,76.792,0,0,1-15.788-6.364c-1.33-.7-3.6.6-4.04-1.855,1.109-1.8,1.678-2.478,4.581-1.541,8.635,2.785,16.242,8.578,26.244,7.884,4.258-.3,8.775-.323,13.175-.347,1.753-1.713,4.012-1.49,6.119-1.38,14.57.76,28.314-3.185,41.761-7.927,5.689-2.007,10.794-5.7,17.015-6.418,3.305.614,4.568-2.242,6.539-3.89,1.622-1.6,3.247-3.2,5.848-2.329,3.083-.63,3.332-3.929,5.284-5.611,1.966-2.239,4.389-.274,6.547-.73,1.189-.881,2.174-1.993,3.363-2.867,2.154-1.436,2.686-5.938,6.822-3.649,1.989-.122,2.919-1.632,3.943-3.009,1.326-2.981,3.183-4.9,6.754-3.37,2.332-.487,3.421-2.68,5.258-3.831a6.087,6.087,0,0,1,5.433-1.779c1.992-.544,3.171-2.122,4.482-3.528a8.779,8.779,0,0,1,3.683-3.81c7.581-3.75,14.759-8.618,22.736-11.162,5.115-1.631,9.052-3.707,12.19-7.824a1.482,1.482,0,0,1,2.22.125c0,2.286-.324,4.763,3.029,5.025-7.474,5.555-15.889,9.55-23.86,14.272-15.7,9.3-31.622,18.213-47.461,27.272A7.676,7.676,0,0,1,865.031,775.016Z" transform="translate(-64.644 -191.818)"/>
    <path class="cls-11" d="M969,714c2.583-1.477,5.233-2.851,7.733-4.457,3.364-2.161,4.547-5.571,4.675-9.366.036-1.074-.224-2.085,1.264-1.985,1,.067,1.257.918,1.293,1.808.034.829.044,1.66.111,2.486a1.392,1.392,0,0,0,1.216,1.354c.891.174,1.008-.327,1.177-1.088.426-1.915,2.189-2.836,3.431-4.117,4.214-4.346,4.131-5.216-1.589-8.591,1.313,0,2.39-.337,2.847.054,3.451,2.95,6.268.589,9.3-.823,5.422-2.521,10.419-5.77,15.554-8.784,1.766-1.036,3.559-1.978,5,.493,1.335-1.992,2.338-4.316,5-4.982,1.443-2.5,3-4.488,5.814-1.393.089.1.779-.35,1.189-.544.8-1.878,1.44-3.914,4-4.063,1.366-1.548,2.451-3.57,5.071-3,3.326.662,2.912-4.2,5.916-4.008a5.346,5.346,0,0,1,6.008-1c1.577-1.426,1.824-4.484,4.938-4.025,1.247-1.724,2.283-3.8,5.038-2.967,3.774-.8,3.885-4.744,6-6.972a10.112,10.112,0,0,1,5.072.042,2.5,2.5,0,0,0,1.085.492c1.262-.117,1.655-1.143,2.16-2.056.641-.94,1.178-2.059,2.659-1.531,1.9-4.218,6.623-4.341,9.881-6.583,8.227-5.661,17.835-9.63,21.175-20.329.131-.418.649-.715.987-1.069-.479,6.57-4.48,11.341-8.515,15.943-7.876,8.982-17.871,15.328-28.062,21.253-28.7,16.684-57.516,33.157-86.284,49.721-8.632,4.97-17.24,9.981-25.887,14.924a20.976,20.976,0,0,1-3.238,1.215C961.5,715.167,965.926,715.474,969,714Z" transform="translate(-64.644 -191.818)"/>
    <path class="cls-1" d="M308,530.016,306.007,529a70.513,70.513,0,0,1-14-8c-9.513-6.345-19.721-11.5-29.593-17.23q-39.563-22.962-79.27-45.675c-24.582-14.109-48.952-28.622-73.961-41.932-7.758-4.129-14.736-9.346-22.459-13.426a41.444,41.444,0,0,1-9.84-7.5c-4.956-5-6.305-11.285-5.079-18.21.226-1.278,2.02-2.611.2-4.019a23.65,23.65,0,0,1,11-10.008c-2.24,3.3-5.492,5.733-7.593,9.187A14.356,14.356,0,0,0,73.985,385.5a28.265,28.265,0,0,0,10.738,13.953c12.287,8.236,25.451,14.964,38.17,22.453,15.3,9.007,30.752,17.742,46.17,26.54,15.133,8.636,30.324,17.171,45.456,25.809s30.212,17.354,45.323,26.022q21.589,12.384,43.194,24.74,22.889,13.114,45.775,26.233,19.014,10.873,38.056,21.7,18.154,10.369,36.288,20.773,19.433,11.136,38.857,22.288,9.492,5.454,18.942,10.98c.672.395,2.23.577,1.04,2.027-2.243,1.459-3.791-.4-5.393-1.3-24.358-13.684-48.521-27.712-72.737-41.644q-36.884-21.22-73.834-42.323c-2.463-1.41-4.642-3.225-7.028-4.74l-4.988-3.017C314.673,534,310.468,533.462,308,530.016Z" transform="translate(-64.644 -191.818)"/>
    <path class="cls-12" d="M73.942,418.042c4.8,1.368,7.7,5.484,11.608,8.145,4.655,3.166,9.183,6.349,14.664,8.06a32.1,32.1,0,0,1,8.977,4.913c2.718,1.956,5.56,4.284,9.336,2.818,1.287-.5,1.471.115,1.445,1.018-.141,4.87,3.741,6.168,7.027,8q-.01.518-.021,1.035c-6.553-2.127-11.994-6.357-17.943-9.61-10.759-5.885-21.674-11.571-31.182-19.485C76.2,421.564,74.251,420.473,73.942,418.042Z" transform="translate(-64.644 -191.818)"/>
    <path class="cls-13" d="M969,714c-2.357,2.422-6.177,2.912-7.991,6.051a128.562,128.562,0,0,1-21,11.963c-.115-1.143.569-2.021.992-2.985.222-1.67,1.486-2.533,2.722-3.336a213.281,213.281,0,0,1,19.557-11.58c1.167-.593,2.406-1.23,3.672-.14Z" transform="translate(-64.644 -191.818)"/>
    <path class="cls-3" d="M1107,591c-.8-1.568-2.687-2.918-1.008-4.988l3,4.992Z" transform="translate(-64.644 -191.818)"/>
    <path class="cls-14" d="M1057,629c-7.409,6.268-16.515,9.7-24.687,14.7-9.706,5.939-19.694,11.418-29.562,17.092q-15.748,9.054-31.5,18.1c-12.21,7.009-24.36,14.125-36.656,20.981-11.719,6.534-23.032,13.759-34.948,19.973-6,3.127-12.025,6.356-17.7,10-10.917,7-22.352,13.043-33.594,19.436-13.328,7.579-26.67,15.134-40.256,22.267-15.616,8.2-31.772,9.221-48.756,5.8-10.345-2.084-19.4-6.964-28.255-12.071-12.357-7.125-24.805-14.094-37.135-21.269-14.339-8.345-28.773-16.525-43.167-24.776q-15.948-9.141-31.9-18.279-21.56-12.363-43.118-24.731-19.43-11.138-38.868-22.263-21.589-12.377-43.167-24.773c-14.377-8.275-28.72-16.611-43.106-24.87C438.536,597.371,426.4,590.518,414.3,583.6c-18.273-10.446-36.62-20.767-54.775-31.415-18.314-10.741-36.865-21.069-55.2-31.783-15.6-9.12-31.277-18.173-47.147-26.857-8.874-4.855-17.5-10.159-26.277-15.2-11.345-6.511-22.748-12.921-34.084-19.447-4.994-2.875-9.885-5.928-14.823-8.9-1.5-1.285-3.462-1.79-5-3-4.71-1.112-7.962-4.725-12-7a139.818,139.818,0,0,0-16.8-11.336c-10.769-6.549-21.742-12.761-32.28-19.689a2.342,2.342,0,0,1-1.365-1.95c4.154,1.65,8.176,2.993,11.975,4.8,13.753,6.556,27.184,13.861,41.213,19.746,12.647,5.305,24.823,11.568,37.282,17.226,11.893,5.4,22.84,12.853,34.389,19.055,15.612,8.383,30.555,17.937,46.473,25.815a152,152,0,0,1,22.021,12.751c4.5,3.262,9.967,4.872,14.575,8.193,7.932,5.718,17.245,9.033,25.8,13.651,14.742,7.955,29.069,16.676,43.6,25.031,14.385,8.273,28.811,16.477,43.2,24.739,14.534,8.344,29.035,16.745,43.576,25.078,8.64,4.952,17.324,9.828,26,14.714a3.049,3.049,0,0,0,2.9.205c-4.649-2.735-9.277-5.507-13.952-8.2q-33.653-19.371-67.332-38.7c-19.3-11.048-38.693-21.934-57.961-33.038-22.424-12.922-44.71-26.085-67.144-38.99-19.853-11.42-39.854-22.584-59.741-33.946-14.983-8.56-30.029-17.026-44.734-26.044-3.8-2.331-9.011-3.408-10.746-8.6-.306-.917-1.371-2.329-.7-2.649,4.541-2.161,2.656-10.487,9.8-10.088a1.247,1.247,0,0,0,1.016-2.123c-1-1.339-1.552-2.63-.113-3.959,1.157-1.068,2.181-.057,3.192.375,2.181.932.979,2.4.557,3.752-.077.246.11.575.239,1.152,2.424-.532,4.48-2.2,7.3-1.887,1.493.164,4.223-.381,4.029-4.05-.162-3.067,3.582-3.457,5.732-2.72,2.678.917,4.867-.109,7.278-.285,1.886-.138,2.9-.537,1.97-2.693-.443-1.027.054-1.832,1.049-2.475,3.127-2.022,6.985-3.024,9.124-6.459a.98.98,0,0,1,.9-.3c3.766,1.939,6.4-.841,9.63-1.7,4.725-1.261,6.274-4.318,8.006-7.753.605-1.2,1.3-2.066,2.475-2.054,1.141.011,1.326,1.224,1.652,2.194,1.073,3.194,2.3,5.623,6.328,2.72,1.839-1.325,2.634,2.192,4.963,2.121.81-1.681,1.62-3.616,3.591-4.776,1.628-.958,2.791-3.336,4.365.179.812,1.814,3.019.682,4.58.959,2.643.692,5.508,2.214,6.868-1.846a13.708,13.708,0,0,0,.323-3.433c-.054-2.915,1.412-3.863,4.092-3.083a10.966,10.966,0,0,0,11.342-2.822c2.864-.376,5.536-1.665,8.451-1.819,2.753-.464,5.459-1.017,7.013-3.734.4-1.554,1.278-2.108,2.794-1.355,3.6.541,7.048-2.035,10.781-.343,1.334.6,1.852-1.242,2.368-2.114,1.487-2.51,3.3-3.1,5.777-1.569,2.4,1.478,3.984,1.147,5.741-1.405,1.647-2.392,4.509-3.622,7.34-1.551,1.312.96,1.93.342,3.028-.1a34.531,34.531,0,0,1,6.144-1.767c1.577-.32,1.554.661,1.009,1.76-1.52,3.607-5.257,4.311-8.107,6.169-1.8,1.175-3.7,2.207-5.422,3.29-.181,1.81,1.243,2.02,2.136,2.549,6.731,3.991,13.348,8.175,20.212,11.945,1.775.975,3.566,2.242,5.605,1.343A94.293,94.293,0,0,0,397.668,377.7c-4.719.995-8.569,3.752-12.64,6.03-5.021,2.81-7.687,2.588-11.79-.951-2.139-1.845-2.294-3.508.108-5.228,2.346-1.68,5.05-2.857,7.128-4.987-3.292.243-5.843,2.077-8.506,3.617-2.062,1.192-4.166,2.321-6.594,1.511-2.668-.89-5.9-1.689-6.389-4.877-.431-2.819,2.826-3.269,4.552-4.669,3.028-2.458,7.624-2.794,9.4-6.946a3.05,3.05,0,0,1,3.159-2.212c3.594-.658,7.114-1.51,10.186-3.645,2.665-1.852,5.206-1.411,7.874.217,5.093,3.109,10.183,6.229,15.352,9.213,2.242,1.294,4.469,2.843,8.058,2.371-1.951-2.383-4.459-2.952-6.22-4.465-1.261-1.083-3.645-1.211-3.337-3.713,2.591-4.938,8.126-5.091,12.27-7.5a1.381,1.381,0,0,1,1.312.231c1.948,3.6,4.773,1.9,7.418,1.3,6.522,2.929,12.407,1.327,18.022-2.467a1.586,1.586,0,0,1,1.809.4c1.784-.32,3.57-.63,5.352-.963,2.071-.387,3.836-.984,3.839-3.674,0-3.3,1.393-2.835,3.7-1.508,5.591,3.215,8.519,2.734,13.3-1.749,1.3-1.218,2.283-1.414,2.911.429.5,1.462,1.093,2.474,2.824,1.7,6.892-3.1,14.439-.637,21.333-2.389,4.351-1.106,8.088,2.177,12.2.308.981-.446,2.236-.309,3.224-1.073,1.908-1.476,3.345-1.23,5.031.774,2.5,2.976,9.438,3.194,12.514.6,1.934-1.63,3.526-1.938,4.834.486,1.217,2.256,2.373,2.216,4.231.574,3.133-2.768,6.714-2.8,10.2-.452,2.142,1.441,7.593.154,8.65-2.043,1.831-3.805,3.181-3.962,5.827-.677,3.883,4.82,3.883,4.819,9.62,2.483,1.529-.622,2.887-1.815,4.628-1.723,1.659.088,2.442-1.676,4.04-1.707.758,1.05-.887,3.373.884,3.305,2.124-.082,4.483.715,6.508-.769,3.3-2.42,5.506-2.468,8.5.419,1.375,1.325,2.8,2.211,4.364,1.6,3.4-1.336,6.485-.669,9.639.608,2.065.837,3.637.682,5.007-1.587,1.765-2.924,5.448-2.769,6.812.329,1.112,2.524,1.836,2.637,4.357,1.508a10.618,10.618,0,0,1,9.96.626c3.717,2.119,7.765,3.62,11.94.319a4.031,4.031,0,0,1,5.5.456c5.858,5.75,13.833,7.234,21.118,9.255a39.261,39.261,0,0,1,14.944,7.356,12.581,12.581,0,0,0,5.813,2.459c3.987.748,7.205,3.624,10.715,5.568,16.8,9.306,33.306,19.132,49.956,28.706,14.382,8.27,28.835,16.417,43.222,24.678,14.529,8.341,29,16.786,43.528,25.127,12.662,7.27,25.387,14.429,38.053,21.692,14.677,8.417,29.311,16.906,43.977,25.341,14.237,8.189,28.6,16.167,42.7,24.593,8.049,4.811,16.2,9.491,24.351,14.071,5.519,3.1,10.627,6.953,16.507,9.52,2.514,1.1,4.232,3.633,7.392,4.275,2.021.411.965,4.78-1.612,5.99-7.868,3.695-14.882,8.848-22.447,13.067-13.038,7.272-25.948,14.773-38.886,22.222q-20.7,11.918-41.349,23.924c-4.686,2.723-9.673,4.954-13.906,8.465,5.379-1.2,9.729-4.534,14.378-7.14,14.9-8.354,29.647-16.985,44.449-25.515,12.935-7.454,25.7-15.218,38.87-22.238,6.213-3.313,11.824-7.721,18.727-9.962,2.469-.8,4.73-3.25,7.338-4.649,2.091-1.121.81-2.561-.532-3.4-2.53-1.583-5.242-2.879-7.739-4.508-3.612-2.356-7.187-4.8-10.742-7.215a44.515,44.515,0,0,0-7.972-4.122c-5.325-2.164-9.627-5.962-14.9-8.027-.944-.37-2.712-.7-1.951-2.267a2.61,2.61,0,0,1,4.257-.783c2.519,2.322,5.725,3.357,8.47,5.207,10.78,7.261,22.428,12.956,33.973,18.838a12.8,12.8,0,0,1,2.126,1.281,110.156,110.156,0,0,0,24.891,14.38c2.222.957,4.134,2.706,6.227,4.042,6.471,4.131,12.974,8.181,19.721,11.861,7.427,4.05,9.964,20.262,4.343,26.7a66.024,66.024,0,0,1-19.218,14.84A58.867,58.867,0,0,0,1057,629Z" transform="translate(-64.644 -191.818)"/>
    <path class="cls-15" d="M448.839,350.931c-3.025.591-5.251,2.733-7.836,4.152-2.815,1.546-5.275,2.5-8.056-.039-1.057-.963-2.611-1.38-3.938-2.046-6.575-4.936-14.257-8.138-21.569-13.419,7.006-3.8,12.643-8.762,20.151-10.263,5.856-1.171,10.74,1.3,13.262,6.958.641,1.438,1.416.956,2.335.846a14.891,14.891,0,0,1,7.32.886c5.475,2.149,6.227,6.444,1.79,10.16C451.164,349.114,449.616,349.542,448.839,350.931Z" transform="translate(-64.644 -191.818)"/>
    <path class="cls-15" d="M372.936,361.2c.447.877,2.749,1.428.3,2.768-3.785,2.07-7.471,4.322-11.183,6.525-.981.582-2.235.812-2.712,2.069,5.648,5.346,6.793,5.492,13.192,1.762a42.728,42.728,0,0,0,4.789-2.655c2.526-1.954,4.487-1.417,6.5,1.028l-11.966,7.127c6.657,6.105,7,6.13,13.857,2.048,2.994-1.782,6.118-3.352,9.053-5.223,2.382-1.52,4.277-1.384,6.358,1.41-6.975,3.965-13.848,7.92-20.774,11.777-1.712.953-3.222-.2-4.637-1.033-8.819-5.194-17.619-10.421-26.784-15.849l17.068-10.14C368.44,362.848,370.182,359.849,372.936,361.2Z" transform="translate(-64.644 -191.818)"/>
    <path class="cls-16" d="M427.875,309.515c-6.73,3.874-13.333,7.685-19.949,11.474-1.135.65-2.2,1.369-3.673.5-9.271-5.459-18.584-10.849-28.614-16.686,7.236-4.162,13.751-7.978,20.343-11.657,1.811-1.011,3.495-.4,4.926,1.566-4.693,3.752-10.327,5.917-15.789,9.734,2.247,1.31,4.235,2.3,6.028,3.566,1.616,1.141,2.912.991,4.519-.019,2.67-1.677,5.577-2.982,8.206-4.714,2.352-1.55,4.213-1.491,6.316,1.184L398.268,311.5c1.521,2.05,3.936,2.585,5.742,3.973,1.724,1.324,3.123,1.084,4.873.009,4.092-2.515,8.37-4.73,12.452-7.261C423.954,306.591,425.93,306.954,427.875,309.515Z" transform="translate(-64.644 -191.818)"/>
    <path class="cls-17" d="M445.559,317.858c3.792-4.048,7.641-3.5,12.073-2.2,10.464,3.085,21.086,5.634,31.647,8.39.8.209,1.646.3,2.131,1.262-2.469,3.083-5.735,3.041-8.785,1.538-7.517-3.706-11.936,2.529-17.389,5.21-1.821.9.732,2.043.837,3.2.147,1.6,4.17,2.252,1.108,4.638-2.667,2.079-4.532.861-6.217-1.4C455.827,331.59,450.672,324.7,445.559,317.858Z" transform="translate(-64.644 -191.818)"/>
    <path class="cls-17" d="M314,375c-2.435,1.585-4.744,3.658-8,2.059-3.961.189-7.776-.915-11.843,1.422-5.618,3.227-5.923,2.7-3.25,8.744-3.469,4.286-4.658,4.4-7.983.779-3.128-6.093-8.128-10.827-11.926-16.434-1.065-1.572-3.657-3.237-2.4-4.906a7.075,7.075,0,0,1,7.593-2.536c2.387.64,4.775,1.275,7.159,1.926q14.312,3.913,28.624,7.827C312.749,374.093,313.641,374.043,314,375Z" transform="translate(-64.644 -191.818)"/>
    <path class="cls-17" d="M323.8,369.911a4.14,4.14,0,0,0-2.794,1.355c-3.907-.643-6.764-3.341-10.037-5.2-6.612-3.757-13.135-7.669-20.534-12.01,8.989-5.15,16.382-12.39,27.49-9.111a17.212,17.212,0,0,1,3.236,1.217c6.069,3.237,6.344,7.275.729,11.259-2.145,1.522-4.691,2.444-6.893,4.519,1.992,2.817,5.344,3.641,7.945,5.463C323.968,368.119,324.931,368.58,323.8,369.911Z" transform="translate(-64.644 -191.818)"/>
    <path class="cls-18" d="M319.3,337.454c8.286-4.6,14.9-10.96,24.646-9.591a16.143,16.143,0,0,1,2.475.236c3.538,1.093,7.479,2.327,8.3,6.3.795,3.864-3.01,5.532-5.6,7.473a70.1,70.1,0,0,1-6.158,3.677l10.172,6.319c-1.674,2.008-3.208,3.732-5.8,2.217C338.189,348.743,329.115,343.291,319.3,337.454Z" transform="translate(-64.644 -191.818)"/>
    <path class="cls-19" d="M408.008,358.968l11.652,7.5c-1.869,2.984-4.12,3.149-6.826,1.54-5.828-3.464-11.847-6.635-17.473-10.4-3.775-2.525-6.871-3.126-10.658-.128-2.4,1.9-5.289,3.636-8.608,1.509a2.3,2.3,0,0,1,1.491-2.306c7.041-4.007,14.08-8.02,21.071-12.113,2.325-1.361,4.258-1.465,6.062,1.052-2.693,2.346-6.213,3.306-8.815,6.068A18.449,18.449,0,0,0,403,356a1.913,1.913,0,0,1,1.9,1.047A6.042,6.042,0,0,0,408.008,358.968Z" transform="translate(-64.644 -191.818)"/>
    <path class="cls-20" d="M399.335,325.939c-6.724,3.885-13.052,7.527-19.362,11.2-1.221.711-2.366,1.1-3.72.292-9.122-5.423-18.261-10.819-27.581-16.334,2.531-3.355,4.914-3.153,7.874-1.3,6.207,3.879,12.635,7.406,18.834,11.3,2.286,1.435,4.08,1.5,6.339.05,3.494-2.24,7.3-4.007,10.736-6.324C395.018,323.087,396.969,323.324,399.335,325.939Z" transform="translate(-64.644 -191.818)"/>
    <path class="cls-21" d="M468.821,304.776c2.314-2.892,4.474-3.194,7.452-1.355,6.359,3.927,12.973,7.437,19.372,11.3,2.265,1.368,4.078,1.554,6.374.058,3.464-2.258,7.263-4,10.707-6.289,2.568-1.7,4.557-1.48,6.892,1.095-6.754,3.89-13.408,7.723-20.064,11.552a2.955,2.955,0,0,1-3.262-.131C487.195,315.592,478.066,310.229,468.821,304.776Z" transform="translate(-64.644 -191.818)"/>
    <path class="cls-22" d="M496.145,288.96c2.689-3.1,5.073-3.045,8.12-1.145,6.21,3.871,12.715,7.267,18.972,11.068a5.394,5.394,0,0,0,6.42-.022c3.371-2.126,7.04-3.8,10.323-6.04,2.723-1.861,4.746-1.412,7.137.947-6.7,3.859-13.178,7.576-19.637,11.323a2.942,2.942,0,0,1-3.257.065C514.9,299.752,505.56,294.384,496.145,288.96Z" transform="translate(-64.644 -191.818)"/>
    <path class="cls-14" d="M895.3,472.1c5.19,2.105,9.849,3.867,13.946,6.606,7.532,5.035,16.5,7.675,23.229,14.009,5.264.278,7.929,5.879,13.11,6.388,1.479.146,2.706,1.174,2.129,2.7-.725,1.917-2.542,1.4-3.749.577-2.309-1.57-4.784-2.835-7.141-4.279-8.008-4.9-16.632-8.679-24.224-14.43-4.017-3.043-9.289-4.692-13.834-7.29C897.235,475.5,895.462,474.872,895.3,472.1Z" transform="translate(-64.644 -191.818)"/>
    <path class="cls-23" d="M287.513,284.336c-3.421-1.958-6.37-.561-9.227,1.021q-13.69,7.585-27.322,15.275c-4.69,2.641-9.339,5.355-14.344,8.23-.494-2.49,1.259-3.162,2.7-3.987,12.78-7.336,25.517-14.75,38.387-21.925C280.987,281.12,284.57,281.184,287.513,284.336Z" transform="translate(-64.644 -191.818)"/>
    <path class="cls-14" d="M975.886,518.917c-3.26.466-5.694-.914-7.716-2.493-5.057-3.948-10.957-6.339-16.4-9.562-.967-.573-3.128-.73-2.143-2.581.937-1.761,2.906-1.781,4.294-.578,5.642,4.893,12.393,7.766,19.067,10.791C974.975,515.394,976.51,516.485,975.886,518.917Z" transform="translate(-64.644 -191.818)"/>
    <path class="cls-14" d="M875,458.911c2.195,2.485,5.666,3.184,7.979,5.41,1.654,1.593,3.044,2.964,5.463,2.695a2.773,2.773,0,0,1,.987.074c1.825.478,2.294,2.229,3.193,3.55.111.164-.326,1.006-.643,1.1-1.433.447-2.626-.415-3.641-1.168a53,53,0,0,0-10.952-6.405,9.594,9.594,0,0,1-3.731-3.2,1.482,1.482,0,0,1-.148-1.338C873.7,459.307,874.316,459.221,875,458.911Z" transform="translate(-64.644 -191.818)"/>
    <path class="cls-14" d="M404.9,357.042A2.036,2.036,0,0,1,403,356c-.2-.978-1.658-2.158.25-2.831a2.251,2.251,0,0,1,2.913,1.222C407.051,355.98,406.834,356.877,404.9,357.042Z" transform="translate(-64.644 -191.818)"/>
    <path class="cls-14" d="M976,519c1.467-.007,3.031-.1,3.631,1.635.235.679-.329,1.244-1.07,1.226C976.73,521.821,976.107,520.622,976,519Z" transform="translate(-64.644 -191.818)"/>
    <path class="cls-14" d="M854.563,448.543c-1.672.61-2.878.668-4.039-.109.034-.326-.04-.786.111-.879C852.026,446.7,853.281,446.777,854.563,448.543Z" transform="translate(-64.644 -191.818)"/>
    <path class="cls-14" d="M857.423,451.648c1.4-1.045,2.624-.7,3.964.338C859.167,452.791,859.167,452.791,857.423,451.648Z" transform="translate(-64.644 -191.818)"/>
    <path class="cls-14" d="M803.116,421.466c-.5-.415-1.713-.247-1.39-1.405a1.248,1.248,0,0,1,1.521-.815,1.366,1.366,0,0,1,1.211,1.242C804.458,421.225,803.892,421.531,803.116,421.466Z" transform="translate(-64.644 -191.818)"/>
    <path class="cls-14" d="M409.553,351.357a2.943,2.943,0,0,1-1.1.484c-.745.01-1.246-.472-.894-1.215.135-.284.826-.434,1.254-.415C409.3,350.234,409.729,350.545,409.553,351.357Z" transform="translate(-64.644 -191.818)"/>
    <path class="cls-14" d="M830.457,435.12c.268.131.922.238,1.038.547.291.773-.283,1.218-.993,1.176a1.426,1.426,0,0,1-1.038-.739C829.252,435.551,829.75,435.278,830.457,435.12Z" transform="translate(-64.644 -191.818)"/>
    <path class="cls-14" d="M824.561,432.081a.952.952,0,0,1-1.031.778c-.72-.027-1.311-.383-1.063-1.168.088-.279.786-.472,1.221-.505A.785.785,0,0,1,824.561,432.081Z" transform="translate(-64.644 -191.818)"/>
    <path class="cls-8" d="M323,539.009c7.337,2.375,13.4,7.16,20.062,10.793,14.972,8.168,29.638,16.9,44.416,25.422,14.491,8.358,28.947,16.777,43.455,25.107q18.965,10.889,38.023,21.615c4.309,2.418,8.367,5.313,13.037,7.068A2.972,2.972,0,0,0,485,631q25.643,14.8,51.292,29.584c16.838,9.658,33.745,19.195,50.578,28.86,19.131,10.985,38.19,22.1,57.326,33.072,14.967,8.586,30.022,17.02,45.005,25.577,15.269,8.72,30.351,17.782,45.8,26.162,9.232,5.007,18.3,10.7,29.046,12.271C773.736,787.948,783.4,788.7,793,786c1.664-.648,3.329-1.056,5-.005l.009.015c-2.526,4.5-7.089,5.053-11.375,5.087-10.542.083-21.076-.507-31.417-2.859-1.86-.423-4.074-.112-5.221-2.235-2.849-2.868-6.866-1.762-10.258-2.975-11.728-4.193-22.031-10.915-32.61-17.222-6.611-3.942-13.281-7.9-20.487-10.669-2.587-.995-4.333-3-6.417-4.44-4.61-3.186-10.2-4.619-14.33-8.64-2.175-2.118-5.359-3.195-8.085-4.408-7.854-3.494-14.483-9.028-22.495-12.349-6.54-2.711-12.238-7.456-18.309-11.3-1.045-2.359-3.332-3.112-5.38-4.194-6.73-3.556-12.909-8.048-19.907-11.214-3.044-1.377-5.766-3.792-8.656-5.707-7.475-4.954-15.687-8.51-23.373-13.033-6.69-3.937-13.184-8.226-19.994-11.937-13.077-7.126-25.808-14.84-38.592-22.455-6.086-3.625-12.284-7.176-18.4-10.635-14.509-8.205-28.709-16.94-43.264-25.056-3.727-2.078-7.621-3.854-11.438-5.77a8.179,8.179,0,0,1-1.766-.924c-9.161-8.009-21.051-11.619-30.595-18.991a52.46,52.46,0,0,0-13.83-7.728c-7.432-2.824-13.708-8.572-20.705-12.684-10.557-6.2-20.5-13.451-31.637-18.661C326.63,543.687,324.789,541.4,323,539.009Z" transform="translate(-64.644 -191.818)"/>
    <path class="cls-13" d="M749.992,786c8.173,1.143,16.237,3.828,24.471,3.519,7.888-.3,16.416,2.293,23.542-3.511,4.609.033,9.219.2,12.738-3.708.578-.642,1.807-.78,2.771-.979,9.515-1.97,17.389-7.416,25.85-11.734,6.827-3.484,12.566-8.893,20.177-10.98,3.175-.871,5.4-3.7,8.338-5.265a9.709,9.709,0,0,1,5.114-1.359c.07,2.642-2.258,2.992-3.866,4-.816.513-1.266,1.228-.865,2.053.493,1.012,1.267.566,2.048.126q9.592-5.408,19.227-10.737c3.03-1.666,6.095-3.281,9.213-4.775,7.448-3.568,14.223-8.29,21.373-12.368,2.446-1.4,4.959-2.3,6.761-5.138,1.626-2.56,5.581-2.627,8.755-1.94,2.027.438,1.143,2.43,1.358,3.8-3.712,1.816-5.1,6.058-8.521,8.189a7.514,7.514,0,0,0-1.315,1.382c-4.568-4.7-7.523,1.322-10.816,2.306-6.038,1.8-11.188,6.375-17.392,8.473-1.705.577-.25,3.017-2.02,3.615-1.3-1.4-2.583-2.341-3.46.322a16.648,16.648,0,0,1-1.372,3.637c-2.046-1.278-3.748-.887-5.129,1.059-2.132-1.477-3.57-.672-4.487,1.458a20.258,20.258,0,0,1-1.421,3.514c-3.45-2.689-3.45-2.689-6.025,2.05-1.3-1.18-2.506-1.769-3.376.438-.481,1.22-.584,2.623-1.674,3.557-1.278-1.335-2.524-2.7-3.616.2a4.018,4.018,0,0,1-2.4,2.787c-.851-.484-1.05-2.552-2.5-1.416-1.424,1.116-1.323,2.8-.488,4.374-.811,1.275-1.949,1.368-2.766.269-1.447-1.946-2.827-.789-4.275-.207-4.159.463-4.428,4.215-5.887,6.962-2.356-2.952-3.368.61-5.027,1.037-5.2-2.2-4.03,3.253-5.971,4.967-.928-.232-1.851-1.258-2.786-.546-3.678,2.8-8.705,2.228-12.372,5.713-2.869,2.726-7.711,2.332-11.583,3.756C797.629,799.557,784.4,800.547,771,800c-3.048-3.368-7.131-1.13-10.676-1.762a65.355,65.355,0,0,1-27.286-11.745c-1.1-.8-2.449-2.146-3.466-1.309-4.238,3.488-6.568-1.64-9.888-2.17-1.2-.191-1.482-3.727-1.083-5.716.268-1.337,1.708-1.353,2.788-.354,6.6,6.1,15.6,6.056,23.352,9.2C746.645,786.91,748.253,786.3,749.992,786Z" transform="translate(-64.644 -191.818)"/>
    <path class="cls-10" d="M718,788c-6.129-1.328-10.822-5.527-16.288-8.189-8.579-4.179-16.514-9.539-24.828-14.212-6.294-3.538-12.171-8.053-18.818-10.885-6.619-2.819-11.958-7.541-18.331-10.708-12.388-6.155-23.918-13.865-35.836-20.872-6.967-4.1-13.895-8.456-21.01-12.045-7.45-3.758-14.358-8.4-21.818-12.114a230.205,230.205,0,0,1-26.022-15.064,46.635,46.635,0,0,0-9.456-4.917c-1.985-.745-4.081-1.5-4.593-3.994,5.617-1.153,9.969,2.108,14.04,4.842,7.719,5.184,16.136,9.033,24.065,13.77,4.867,2.908,10.076,5.117,14.8,8.408,4.47,3.112,9.5,5.626,14.321,8.328,5.039,2.826,9.986,5.871,15.139,8.488,5.831,2.961,10.926,7.2,17.13,9.516a31.65,31.65,0,0,1,7.451,3.977c7.454,5.381,15.88,9.134,23.667,13.966,1.266.786,2.482,1.662,3.792,2.366,3.272,1.759,5.249,5.417,10.143,4.932,2.936-.291,5.039,3.805,7.859,5.553,2.1,1.3,3.834,2.609,6.463,3.129,3.889.77,6.873,3.872,10.209,5.95,7.719,4.806,15.834,8.892,23.683,13.444C716.628,783.331,718.324,784.7,718,788Z" transform="translate(-64.644 -191.818)"/>
    <path class="cls-24" d="M180.917,469.95a10.148,10.148,0,0,1,5.145,1.367c10.051,5.421,19.573,11.791,29.905,16.7,2.216,1.424,4.387,2.926,6.657,4.257,4.743,2.781,4.958,3.212,3.768,9.262a4.514,4.514,0,0,1-3.938-1.641c-6.925-7.231-16.165-10.888-24.537-15.851-6.257-3.709-12.34-7.8-19.187-10.463-.427-.166-.549-1.114-.813-1.7C178.055,469.9,179.561,470.041,180.917,469.95Z" transform="translate(-64.644 -191.818)"/>
    <path class="cls-25" d="M288.955,534.965,285,536c-4.271-6.193-11.371-8.388-17.373-12.058-8.2-5.016-16.75-9.467-25.123-14.207-.9-.51-2.6-.683-2.041-2.29a3.629,3.629,0,0,1,2.986-2.362,5.625,5.625,0,0,1,3.767,1.056q18.969,10.936,37.9,21.937C287.72,529.594,289.515,531.644,288.955,534.965Z" transform="translate(-64.644 -191.818)"/>
    <path class="cls-26" d="M122.76,442.825l2.212.191c1.409-.8,2.591.015,3.7.65q7.989,4.555,15.924,9.2c1.145.674,2.491,1.286,1.454,3.025-1.972,3.372-4.075.594-5.362-.365a68.3,68.3,0,0,0-8.7-5.5c-3.152-2.579-7.793-3.034-9.98-6.99l.3-.36Z" transform="translate(-64.644 -191.818)"/>
    <path class="cls-27" d="M146.055,455.9a2.7,2.7,0,0,0-1.378-1.909q-9.861-5.47-19.7-10.971c-.243-.754-1.605-1.8.37-2.035,1.393-.166,2.435.887,3.559,1.527,5.147,2.928,10.162,6.109,15.437,8.78,2.981,1.51,4.072,3.474,3.54,6.593h.034q-.6.956-.8-.154A1.391,1.391,0,0,0,146.055,455.9Z" transform="translate(-64.644 -191.818)"/>
    <path class="cls-28" d="M225.953,509.031c-.032-.327-.19-.708-.077-.973.9-2.1,3.708-2.762,4.007-5.34.253-2.185-2.315-3.643-1.607-6.188,3.931,1.565,2.916,4.917,2.676,7.491a5.375,5.375,0,0,1-4.979,5.022Z" transform="translate(-64.644 -191.818)"/>
    <path class="cls-29" d="M289.927,543.958c-1.057.031-2.328-.068-1.679-1.505.8-1.769.647-3.563.8-5.363C293.006,538.91,290.6,541.545,289.927,543.958Z" transform="translate(-64.644 -191.818)"/>
    <path class="cls-30" d="M180.917,469.95l-3,1.933q-.406.037-.812.065C177.469,469.552,178.479,468.389,180.917,469.95Z" transform="translate(-64.644 -191.818)"/>
    <path class="cls-7" d="M147.116,457.726a1.063,1.063,0,0,0,.8.154c-.063,1.232.586,2.584-.865,3.918C146.308,460.288,147.346,458.976,147.116,457.726Z" transform="translate(-64.644 -191.818)"/>
    <path class="cls-1" d="M177,447c2.064.339,3.96.96,5,3C179.942,449.652,178.047,449.029,177,447Z" transform="translate(-64.644 -191.818)"/>
    <path class="cls-8" d="M292,520.992c5.182,1.768,9.482,5.081,14,8C300.539,527.726,295.538,525.641,292,520.992Z" transform="translate(-64.644 -191.818)"/>
    <path class="cls-8" d="M308,530.016c3.47,1.771,7.162,3.171,10.016,5.976C314.013,535.109,309.425,535.211,308,530.016Z" transform="translate(-64.644 -191.818)"/>
    <path class="cls-31" d="M939.885,722.878c.289-4.182,2.665-6.967,6.111-8.976,5.972-3.482,11.984-6.893,17.955-10.376,2.383-1.39,4.7-2.894,7.048-4.346,3.381.719,3.38,2.735,1.738,5.053A17.522,17.522,0,0,1,967,709.615c-7.943,4.356-15.769,8.912-23.573,13.512C942.422,723.716,940.851,725.639,939.885,722.878Z" transform="translate(-64.644 -191.818)"/>
    <path class="cls-13" d="M873.992,751c4.094-3.5,9.132-5.562,13.424-8.732,5.283-3.9,11.7-6.005,16.521-10.611,1.8-1.721,4.432-1.372,6.6-2.878,3.035-2.112,6.661-3.5,9.681-5.837A5.343,5.343,0,0,1,924,722c-2.441,3.758-6.531,5.534-10.082,7.739a126.082,126.082,0,0,1-16.721,9.117c-2.463,1.056-3.859,4.441-7,5.781C884.849,746.921,879.882,750.1,873.992,751Z" transform="translate(-64.644 -191.818)"/>
    <path class="cls-32" d="M966.956,713.977c-3.939.89-7.091,3.446-10.542,5.281-5.355,2.848-10.294,6.478-15.41,9.777a2.853,2.853,0,0,1-1.922-3.109c8.129-6,17.3-10.252,25.909-15.453,4.779-2.888,8.912-6.054,10.945-11.414,3.529,1.633,4.084,3.061,1.775,5.633a31.354,31.354,0,0,1-6.6,5.93C969.642,711.536,967.709,712.1,966.956,713.977Z" transform="translate(-64.644 -191.818)"/>
    <path class="cls-33" d="M975.935,699.057c1.34,6.441-4.278,8.268-7.882,10.72-8.859,6.029-18.873,10.221-27.6,16.545-.237.171-.9-.252-1.37-.4-.031-1.095-.18-2.22.8-3.047.3.429.707.749,1.2.422,8.339-5.492,17.108-10.231,25.864-15.006,1.817-.991,3.088-2.955,4.676-4.4,2.116-1.921,1.284-3.373-.63-4.717Z" transform="translate(-64.644 -191.818)"/>
    <path class="cls-13" d="M924,722c.61-.754,1.064-1.818,1.854-2.211,5.47-2.727,10.41-6.48,16.492-8.8-.193,1.834-1.279,2.418-2.361,3-3.838,1.073-6.266,4.524-10.066,5.832A58.438,58.438,0,0,1,924,722Z" transform="translate(-64.644 -191.818)"/>
    <path class="cls-34" d="M1069.98,648.033c.252,3.312-1.718,5.432-3.992,7.366-.766.652-1.473.435-2-.394C1066.684,653.284,1065.916,648.58,1069.98,648.033Z" transform="translate(-64.644 -191.818)"/>
    <path class="cls-35" d="M1026.013,676.006a15.275,15.275,0,0,1-5,4.982c-.626-2.606,1.991-4.044,2.3-6.349a1.4,1.4,0,0,1,1.821-1.221C1026.29,673.861,1025.909,675.07,1026.013,676.006Z" transform="translate(-64.644 -191.818)"/>
    <path class="cls-36" d="M1058.945,657.971,1054.008,662c.141-3.162,2.955-4.882,3.542-7.889C1059.635,655.319,1058.791,656.77,1058.945,657.971Z" transform="translate(-64.644 -191.818)"/>
    <path class="cls-37" d="M1037.014,670.006c-1.459,1.23-2.149,3.217-4,4.063-1.525-3.243,2.485-4.2,2.765-6.7C1037.6,667.592,1036.8,669.034,1037.014,670.006Z" transform="translate(-64.644 -191.818)"/>
    <path class="cls-38" d="M1080.955,644.98a3.674,3.674,0,0,0-1.927,2.087c-1.15,1.012-1.721,3.275-4,1.845q.025-.418.021-.837c2.6-1.383,3.461-4.024,4.333-6.583C1081.351,642.305,1080.922,643.729,1080.955,644.98Z" transform="translate(-64.644 -191.818)"/>
    <path class="cls-39" d="M1048,663c-1.172,1.357-2.3,2.753-3.532,4.057-.734.778-1.616,1.2-2.384-.048,2.077-1.042,2.72-3.2,3.97-4.915C1047.387,660.271,1047.765,661.769,1048,663Z" transform="translate(-64.644 -191.818)"/>
    <path class="cls-40" d="M985.276,698.944c.147-2.388,1.551-3.393,2.9-4.431C989.165,696.9,987.879,697.973,985.276,698.944Z" transform="translate(-64.644 -191.818)"/>
    <path class="cls-41" d="M122.76,442.825a1.756,1.756,0,0,0-.748.215c-1.938-1.649-.562-3,.5-5A5.743,5.743,0,0,1,122.76,442.825Z" transform="translate(-64.644 -191.818)"/>
    <path class="cls-3" d="M798,785.993,793,786c12.936-6.123,25.958-12.076,38.4-19.178q25.949-14.808,51.881-29.646,15.773-9.025,31.522-18.091Q933.156,708.544,951.5,698q19.224-11.015,38.468-22,21.811-12.507,43.6-25.057c12.816-7.345,25.737-14.51,38.456-22.018,9.978-5.891,20.161-11.511,28.48-19.859,4.508-4.524,6.818-9.712,6.5-16.076,2.385,5.733,1.1,10.315-2.837,14.566-11.707,12.627-26.88,20.178-41.2,29.055-9.814,6.085-20.31,10.953-29.855,17.53-5.26,3.624-11.323,6.062-16.891,9.265-12.033,6.922-23.963,14.022-35.97,20.991-6.977,4.05-14.123,7.816-21.01,12.011-13.237,8.063-27.112,15-40.305,23.142-11.21,6.922-22.769,13.273-34.07,20.051-9.871,5.92-20.3,10.856-30.1,16.828-5.774,3.521-11.8,6.676-17.514,10.343a113.968,113.968,0,0,1-19.588,10.268C810.975,779.687,804.542,782.985,798,785.993Z" transform="translate(-64.644 -191.818)"/>
    <path class="cls-42" d="M837.052,785.972c-.069-2.283-.419-4.545,1.7-6.353,2.376-2.026,3.741-1.839,4.271,1.386C841.347,783.04,840.022,785.495,837.052,785.972Z" transform="translate(-64.644 -191.818)"/>
    <path class="cls-43" d="M869.988,767.005c.144-1.749-.587-3.688.81-5.17.953-1.012,1.754-2.846,3.391-2.314,1.523.495.658,2.275.849,3.489C873.677,764.75,872.582,766.826,869.988,767.005Z" transform="translate(-64.644 -191.818)"/>
    <path class="cls-44" d="M848.05,779.968c-.04-1.8-.384-3.662.636-5.32,1.258-2.045,2.839-3.211,5.25-1.641C852.632,775.883,851.581,778.974,848.05,779.968Z" transform="translate(-64.644 -191.818)"/>
    <path class="cls-45" d="M881.062,760.961c.2-2.267-.989-4.7,1.731-6.547,2.57-1.75,3.737-1.5,4.177,1.576C884.682,757.268,883.488,759.845,881.062,760.961Z" transform="translate(-64.644 -191.818)"/>
    <path class="cls-46" d="M860.979,772.945c-2.674-.138-2.1-2.108-1.848-3.615a3.5,3.5,0,0,1,3.256-3.2c3.343-.056,1.636,2.317,1.58,3.86A7.367,7.367,0,0,0,860.979,772.945Z" transform="translate(-64.644 -191.818)"/>
    <path class="cls-47" d="M892.1,754.93a35.492,35.492,0,0,1-.015-4.355,3.5,3.5,0,0,1,3.711-3.158c2.106.147.935,2.27,1.136,3.554Z" transform="translate(-64.644 -191.818)"/>
    <path class="cls-5" d="M1075.03,648.912c1.775.344,2.592-1.39,4-1.845C1078.487,649.4,1077.683,651.158,1075.03,648.912Z" transform="translate(-64.644 -191.818)"/>
    <path class="cls-48" d="M847.61,605.529c-14.869,8.533-28.872,16.548-42.844,24.618-1.583.914-2.979,1.2-4.651.25-17.885-10.2-35.79-20.369-54.184-30.828,6.244-3.627,12.108-6.947,17.874-10.431,2.03-1.226,3.361-.105,4.929.787,11.661,6.631,23.377,13.165,34.982,19.891,2.68,1.553,4.793,1.681,7.5-.009,6.071-3.782,12.4-7.151,18.541-10.82,2.205-1.317,4.015-1.661,6.356-.094C839.55,601.192,843.274,603.059,847.61,605.529Z" transform="translate(-64.644 -191.818)"/>
    <path class="cls-15" d="M228.948,441.1c8.1-3.2,14.12-10.243,23.692-9.17,4.518.507,8.689,1.155,10.129,6.232.534,1.88,1.548,1.063,2.611,1.021a16.393,16.393,0,0,1,9.037,2.172c3.414,2,3.846,5.162.907,7.826-4.353,3.945-9.864,6.122-14.875,9.064a2.278,2.278,0,0,1-2.367-.158C248.381,452.894,238.236,448.467,228.948,441.1Z" transform="translate(-64.644 -191.818)"/>
    <path class="cls-15" d="M311.063,423.177c-1.829-2.659-1.628-4.277,2.1-4.071,6.2.343,11.771-.931,15.839-6.109.611-1.828-.961-2.158-1.972-2.873-5.18-.964-9.5,1.93-14.048,3.443a27.651,27.651,0,0,1-7.027,1.582,7.97,7.97,0,0,1-4.9,0c-3.273-.869-7-1.025-8.172-5.2-1.323-3.265.575-5.194,2.885-6.952,4.821-4.6,11.071-4.933,17.162-5.668.748-.09,1.555.508,2.358.63a1.738,1.738,0,0,1,1.672,1.99c0,1.565-.974,1.767-2.25,1.955-2.887.424-5.979-.864-8.684,1.029-1.348.762-2.918,1.059-4.179,2-2.729,2.637-2.706,3.611.121,5.076a6.029,6.029,0,0,0,5.136.022c5.038-.706,9.4-3.472,14.456-4.424a16.953,16.953,0,0,1,14.273,3.43c2.047,1.974,2.065,3.945-.01,5.913-4.659,4.72-10.46,7.094-16.874,8.207A20.6,20.6,0,0,1,311.063,423.177Z" transform="translate(-64.644 -191.818)"/>
    <path class="cls-15" d="M337.041,383.89c.027-.83.05-1.661.083-2.491.136-3.439,3.221-3.892,5.3-4.036,2.318-.161,1.387,2.532,1.451,3.985.387,8.8.363,8.628,9.6,9.736,5.741.689,11.445,1.7,17.227,2.079a1.832,1.832,0,0,1,1.6,1.165,8.921,8.921,0,0,1-8.089,2.6,134.436,134.436,0,0,0-16.219-2.092c-1.321-.066-3.1-1.738-3.735.425-.58,1.976-.76,4.3,1.7,5.691,2.271,1.281,4.881,2.1,6.6,4.222-2.384,3.12-4.541,2.305-7.709,1.013-9.561-3.9-17.322-10.681-26.551-15.133,3.146-3.991,6.2-3.36,9.491-.827a46.679,46.679,0,0,0,4.694,2.791c1.527.911,3.116,2.752,4.841,1.623,1.416-.926.585-3.075.506-4.7C336.965,388,338.155,385.8,337.041,383.89Z" transform="translate(-64.644 -191.818)"/>
    <path class="cls-15" d="M312.874,427.684c-2.172,3.4-5.018,3.714-7.845,2.175-7.252-3.946-12.171,1.2-17.583,4.267-2.409,1.364-.222,2.746.444,4.073.68,1.355,3.527,2.308.756,4.331-2.135,1.558-3.69,1.325-5.406-.814-4.679-5.829-8.832-12.081-14.153-17.408-1.128-1.129-3.141-3.125-1.574-4.673,1.761-1.74,4.161-3.114,7.193-2.283,9.86,2.7,19.775,5.208,29.658,7.83C307.158,425.924,309.913,426.809,312.874,427.684Z" transform="translate(-64.644 -191.818)"/>
    <path class="cls-15" d="M449.641,403c-2.75,3.4-5.7,3.431-8.548,2-7.282-3.656-12.3,1.482-17.682,4.562-2.356,1.349.331,2.958,1.093,4.375.561,1.043,2.615,1.673,1.443,3.156a6.674,6.674,0,0,1-3.44,1.813c-1.29.343-2.087-.8-2.8-1.716q-7.658-9.792-15.262-19.627c-.518-.674-1.62-1.753-.421-2.491,2.015-1.241,3.705-3.469,6.6-2.655,3.176.9,6.369,1.726,9.554,2.59C429.872,397.64,439.573,400.272,449.641,403Z" transform="translate(-64.644 -191.818)"/>
    <path class="cls-49" d="M394.887,432.172c-9.768-.244-16.9-2.448-22.573-8.267-3.6-3.694-3.645-7.458.119-10.833,5.645-5.062,12.425-6.788,19.9-5.968.98.108,2.232.316,2.156,1.529a2.445,2.445,0,0,1-2.131,2.423c-.982.11-1.988-.018-2.983,0-1.661.026-3.441-.287-4.959.2-3.118,1-6.763,1.992-7.368,5.819-.61,3.86,2.268,5.912,5.307,7.617,5.761,3.232,11.793,4.722,18.15,2.244,3.03-1.181,6.333-2.64,5.043-7.177-.662-2.326,1.55-2.177,2.748-2.6,1.985-.692,3.645-.093,4.311,2.1,1.123,3.7-.986,6.163-3.643,7.985C404.214,430.5,398.987,432.559,394.887,432.172Z" transform="translate(-64.644 -191.818)"/>
    <path class="cls-50" d="M698.861,421.761c6.885-5.268,14.9-8.638,22.254-13.125,4.947-3.017,10-5.93,15.1-8.7,1.535-.835,2.991-2.149,6.028-1.715a59.438,59.438,0,0,1-5.595,4.317c-10.3,6.066-20.583,12.178-31.073,17.907a13.277,13.277,0,0,0-5.224,5.016c-2.378,3.916-5.32,6.767-10.323,6.611a4.392,4.392,0,0,0-4.157,2.307c-3.131,5.694-8.875,7.025-14.421,8.676-2.174.647-4.612.4-6.519,1.949-1.188.269-1.991,1.658-3.439,1.19-6.633-1.416-11.5,3.463-10.62,10.776a13.231,13.231,0,0,1,1.2,2.184,25.68,25.68,0,0,1-12.009,4.91c-.8.507-1.857.567-2.042-.336-.284-1.386.688-2.052,2.1-1.932,5.658-.794,5.765-.908,6.913-6.621.289-1.438.729-2.847.985-4.289.682-3.84,2.953-6.031,6.708-6.951,2.164-.53,4.577-.319,6.413-1.947.953-.34,1.635-1.28,2.762-1.253,7.222.812,13.406-1.381,18.224-6.775a12.328,12.328,0,0,1,7.408-4.474,8.822,8.822,0,0,0,6.954-5,4.279,4.279,0,0,1,2.72-1.818c.242-.083.526-.057.716-.275A.87.87,0,0,1,698.861,421.761Z" transform="translate(-64.644 -191.818)"/>
    <path class="cls-21" d="M453.921,366.707c2.763-3.3,5.34-3.053,8.512-1.028,6.029,3.848,12.361,7.219,18.41,11.037a5.633,5.633,0,0,0,6.856-.029c3.363-2.153,6.976-3.918,10.326-6.09,2.5-1.623,4.56-1.715,6.87,1.128-6.8,3.934-13.508,7.8-20.194,11.7a2.494,2.494,0,0,1-2.779-.3Q467.944,374.941,453.921,366.707Z" transform="translate(-64.644 -191.818)"/>
    <path class="cls-22" d="M426.192,382.691c2.683-2.955,5.034-3.18,8.149-1.185,6.284,4.024,12.865,7.581,19.232,11.481a4.885,4.885,0,0,0,5.851.032c3.635-2.3,7.538-4.176,11.132-6.53,2.439-1.6,4.267-1.246,6.576,1.242-6.892,3.979-13.658,7.876-20.41,11.8a2.031,2.031,0,0,1-2.288-.182C445.057,393.8,435.67,388.277,426.192,382.691Z" transform="translate(-64.644 -191.818)"/>
    <path class="cls-51" d="M593.884,465.844c.3-2.217,1.727-2.972,3.787-2.916,1.792.048,3.585.077,5.378.115-.009,2.734-3.13,1.5-4,3.133-1.628.823-3.075,1.486-1.991,3.951a33.505,33.505,0,0,0,3.931,7.376c4.438,5.688,6.851,12.387,9.288,19.025,2.177,5.93.358,8.333-6.038,8.474-4.8.105-9.6.016-14.4,0-1.652,0-3.339-.182-4.681,1.11a1.773,1.773,0,0,1-.429-2.161c3.982-2.468,8.39-1.164,12.589-1.244,11.1-.211,12.148-1.783,7.73-11.786a63.086,63.086,0,0,0-7.023-12.5,21.146,21.146,0,0,1-4.474-9.836C593.386,467.644,594.046,466.794,593.884,465.844Z" transform="translate(-64.644 -191.818)"/>
    <path class="cls-52" d="M545.053,509.98c-1.4-.122-2.981.551-4.058-.946.25-.991-.845-2.582,1.242-2.764a30.325,30.325,0,0,1,14.055-1.542c4.688,1.1,9.589.414,14.247,1.763.878.254,2.3-.277,2.412,1.035.115,1.368-1.2,1.673-2.35,2.034-5.04,1.585-10.187.873-15.3.769C551.888,510.259,548.5,509.247,545.053,509.98Z" transform="translate(-64.644 -191.818)"/>
    <path class="cls-53" d="M480.05,548.065c-2.566,3.228-6.275,4.948-9.772,6.685-7.9,3.924-15.511,8.285-22.978,12.962-2.257,1.414-4.564,3.266-7.691,2.8a126.156,126.156,0,0,1,20.762-13.257,187.012,187.012,0,0,0,17.685-10.2C478.634,547.568,479.656,547.193,480.05,548.065Z" transform="translate(-64.644 -191.818)"/>
    <path class="cls-1" d="M290.905,387.224a22.386,22.386,0,0,1-1.818-1.659c-2.936-3.312-2.927-3.524.755-5.782,2.246-1.377,4.592-2.59,6.862-3.93,3.429-2.024,6.284.135,9.294,1.206a8.93,8.93,0,0,1-10.258,4.32c-1.388-.36-2.77-.74-4.621-1.237C291.479,382.828,291.846,385.087,290.905,387.224Z" transform="translate(-64.644 -191.818)"/>
    <path class="cls-54" d="M519.134,527.193c-.6,3.142.9,6.273-.093,9.478-.49,1.585-.57,3.248-2.047,4.326-1.184.676-2.3.889-3.219-.429,1.352-3.914,3.914-7.841-.1-11.708a4.352,4.352,0,0,1-1.8-2.07c3.336-.973,5.218-4.168,5.759-6.629,1.555-7.062,6.8-8.074,12.324-9.213a1.412,1.412,0,0,1,.24,1.3c-5.84,2.435-9.063,7.209-11.384,12.765C518.6,525.784,519.065,526.461,519.134,527.193Z" transform="translate(-64.644 -191.818)"/>
    <path class="cls-55" d="M545.053,509.98c3.287-1.844,6.7-.846,10.073-.4a40.233,40.233,0,0,0,15.778-.74,1.633,1.633,0,0,0,1.406-1.544c-3.721-.225-7.3-1.393-11.1-1.291-1.736.047-3.7.507-5.2-.989q-.525-.269-.369-.571c.106-.206.215-.31.327-.31,4.4.475,8.849.725,13.2,1.493a25.886,25.886,0,0,0,10.722-.748,2.678,2.678,0,0,0,2.247-2.836c2.265,2.63,2.046,4.422-.686,5.294-1.42.453-3-.227-4.395.561-7.562,4.306-15.837,3.006-23.941,3.043-1.57-1.059-3.52.133-5.1-.862Z" transform="translate(-64.644 -191.818)"/>
    <path class="cls-56" d="M511.869,526.789c.752.273,1.672.219,2.117,1.089-1.25,1.657-3.256,1.5-4.961,1.995-4.718,1.359-9.087,3.194-12.144,7.324a7.816,7.816,0,0,1-5.521,3.064,10.882,10.882,0,0,0-7.313,3.851,25.147,25.147,0,0,1-4.006,3.935l.008.017c-.749-.168-1.607-.119-1.993-1.005.9-1.387,1.867-2.734,2.677-4.17a8.883,8.883,0,0,1,8.039-4.923c1.85-.034,3.844-.081,4.907-1.84C497.842,529.239,504.645,527.635,511.869,526.789Z" transform="translate(-64.644 -191.818)"/>
    <path class="cls-57" d="M663.1,440.981c.007,1.62-.646,1.949-1.955,1-2.671-3.863-.291-7.685.349-11.411.366-2.129,2.94-2.714,4.923-2.409,5.315.819,10.438-.437,15.63-1,.822.364,1.407.846.932,1.859-3.531,2.254-7.56,2.191-11.51,2.381-6.017.289-6.212.411-7.132,6.427C664.156,438.976,664.075,440.151,663.1,440.981Z" transform="translate(-64.644 -191.818)"/>
    <path class="cls-58" d="M577.058,507.9c.632-1.015,1.672-.819,2.631-.908,3.471-.324,4.105-2.074,2.449-4.947a24.336,24.336,0,0,0-4.643-9.1,31.469,31.469,0,0,1-6.319-12.008c.3-.71.665-1.33,1.609-1.1,3.53,5.737,6.988,11.514,10.894,17.023a7.692,7.692,0,0,1,1.37,7.05l.114,2.207C583.064,509.453,579.866,507.785,577.058,507.9Z" transform="translate(-64.644 -191.818)"/>
    <path class="cls-59" d="M640.122,461.792c-.653.377-1.529.706-1.5,1.541.027.688.878.614,1.437.727-5.741,3.073-11.79,3.421-18.144,2.5-6-.866-12.07-1.225-18.11-1.807.222-1.365,1.338-1.559,2.393-1.832,6.168-.841,12.2,1.141,18.363.852,3.809-.179,7.652.166,11.25-1.494.666-.381,1.333-.763,2.03-1.09A2.29,2.29,0,0,1,640.122,461.792Z" transform="translate(-64.644 -191.818)"/>
    <path class="cls-60" d="M514.04,540.139c.74,1.129,1.909.781,2.954.857-1.822,1.8-4.1.948-6.16.919a71.4,71.4,0,0,0-25.86,4.033c-.747-.468-1.6-.885-1-2.019a6.211,6.211,0,0,1,3.723-2.221,117.3,117.3,0,0,1,20.4-3.122C510.172,538.5,512.425,538.237,514.04,540.139Z" transform="translate(-64.644 -191.818)"/>
    <path class="cls-61" d="M572.061,479.891l-.885,1.042c-.74-1.646-1.554-3.262-2.208-4.941-2.748-7.062-.864-9.946,6.631-10.058,4.448-.067,8.9.052,13.346.055,1.646,0,3.292-.093,4.939-.144.615.348.879.723.091,1.18-3.084,2.39-6.691,1.1-10.066,1.4-1.477.134-2.976,0-4.464.042-7.364.214-8.274,1.322-7.044,8.589A3.262,3.262,0,0,1,572.061,479.891Z" transform="translate(-64.644 -191.818)"/>
    <path class="cls-62" d="M519.134,527.193c-.815-.247-1.781-.254-2.081-1.315.4-.3.8-.729,1.262-.764,6.946-.531,10.377-4.375,10.748-11.212a3.948,3.948,0,0,1,.883-1.762q0-.6.006-1.194v.011c2.826.277,2.826.277,2.241,5.147C530.641,525.243,528.876,526.741,519.134,527.193Z" transform="translate(-64.644 -191.818)"/>
    <path class="cls-63" d="M652.071,459.15c-.718-.22-1.607-.086-2-.971,3.828-2.538,7.81-4.868,8.932-9.937a3.364,3.364,0,0,1,3.048-2.254c.84-.685,1.293-2.5,2.885-.989-1.447,3.214-3.518,6.059-4.754,9.462C658.991,457.736,655.3,458.447,652.071,459.15Z" transform="translate(-64.644 -191.818)"/>
    <path class="cls-64" d="M605.777,463.965a1.825,1.825,0,0,0-1.968.792c-1.572.519-3.034,1.406-4.757,1.419.508-2.1,3.1-1.532,4-3.133,3.98-3.186,8.692-3.628,13.512-3.495,3.446.1,6.886.389,10.328.593.1,1.595-1.177,1.7-2.223,2.063C618.387,462.941,611.9,461.538,605.777,463.965Z" transform="translate(-64.644 -191.818)"/>
    <path class="cls-54" d="M532.193,516.1c-.632-1.766,1.1-4.559-2.241-5.147.465-3.042,3.221-3.01,5.272-3.776a30.842,30.842,0,0,1,4.848-1.007c.436.3,1.144.346,1.087,1.126l1.175,1.356-1.339.377c-.644-.017-1.289-.057-1.932-.048-5.479.078-5.46.083-6.094,5.406A6.27,6.27,0,0,1,532.193,516.1Z" transform="translate(-64.644 -191.818)"/>
    <path class="cls-65" d="M683.329,428.172l-1.286-1.014c5.889-.919,11.644-2.254,16.819-5.4.507.353,2.361-.022.785,1.455-.779.73-2.068.743-2.589,1.837C693,428.354,688.656,430.438,683.329,428.172Z" transform="translate(-64.644 -191.818)"/>
    <path class="cls-66" d="M541.158,507.3l-1.087-1.126a31.345,31.345,0,0,1,15.9-2.042q.037.44.042.881C550.886,504.648,546.008,505.882,541.158,507.3Z" transform="translate(-64.644 -191.818)"/>
    <path class="cls-67" d="M624.869,461.136c.712-.254,1.579-.192,2.021-.994l10.954,1.051-.942.944C632.767,463.3,628.547,465.478,624.869,461.136Z" transform="translate(-64.644 -191.818)"/>
    <path class="cls-1" d="M295.762,403c-1.311,2.172-3.429,4.009-2.885,6.952C290.89,406.412,292.116,404.2,295.762,403Z" transform="translate(-64.644 -191.818)"/>
    <path class="cls-1" d="M189.912,429.74a1.726,1.726,0,0,1-1.563-1.526c-.112-.8.557-1.136,1.208-1.091.962.068,1.974.35,1.786,1.634A1.275,1.275,0,0,1,189.912,429.74Z" transform="translate(-64.644 -191.818)"/>
    <path class="cls-1" d="M335.817,414.955a6.561,6.561,0,0,0,.01-5.913C338.782,411.7,338.781,412.318,335.817,414.955Z" transform="translate(-64.644 -191.818)"/>
    <path class="cls-53" d="M483.818,544.846l1.156,1.1c-1.993-.12-2.877,2.369-4.934,2.1L482.959,544A1.242,1.242,0,0,1,483.818,544.846Z" transform="translate(-64.644 -191.818)"/>
    <path class="cls-1" d="M311.063,423.177l7.88-.015A8.254,8.254,0,0,1,311.063,423.177Z" transform="translate(-64.644 -191.818)"/>
    <path class="cls-1" d="M337.041,383.89c1.387,1.87.78,4,.789,6.051C336.241,388.1,337.287,385.91,337.041,383.89Z" transform="translate(-64.644 -191.818)"/>
    <path class="cls-1" d="M307.1,410.037a3.876,3.876,0,0,1-5.136-.022Z" transform="translate(-64.644 -191.818)"/>
    <path class="cls-52" d="M548.017,510.077c1.741.046,3.608-.655,5.1.862C551.394,510.787,549.491,511.7,548.017,510.077Z" transform="translate(-64.644 -191.818)"/>
    <path class="cls-1" d="M301.841,404.939a4.442,4.442,0,0,1,4.179-2A4.933,4.933,0,0,1,301.841,404.939Z" transform="translate(-64.644 -191.818)"/>
    <path class="cls-1" d="M327.027,410.123c1.827.155,3.347.521,1.972,2.873Z" transform="translate(-64.644 -191.818)"/>
    <path class="cls-1" d="M301.049,415.15h4.9A3.643,3.643,0,0,1,301.049,415.15Z" transform="translate(-64.644 -191.818)"/>
    <path class="cls-68" d="M429.671,346.633c4.582-2.691,8.2-6.349,13.676-5.741,1.995.222,4.18.43,4.679,2.814.45,2.153-1.39,3.14-2.893,4.161-.271.184-.581.312-.866.478C437.049,352.543,437.049,352.544,429.671,346.633Z" transform="translate(-64.644 -191.818)"/>
    <path class="cls-69" d="M429.553,333.353A19.14,19.14,0,0,1,433.2,334.8c1.6.993,2.118,2.247.557,4.019-4.184,4.75-10.087,5.584-15.068,2.015-1.607-1.151-2-1.917-.037-3.185C421.457,335.836,427.137,333.311,429.553,333.353Z" transform="translate(-64.644 -191.818)"/>
    <path class="cls-70" d="M453.579,318.855l16.656,4.514c-.116.335-.13.8-.337.913C459.621,330.073,463.171,331.768,453.579,318.855Z" transform="translate(-64.644 -191.818)"/>
    <path class="cls-69" d="M292.883,373.187c-8.742,5.393-8.739,5.391-14.615-1.358-.864-.992-1.775-1.942-2.4-2.629-.272-.722-.065-1.069.335-.953C281.555,369.8,286.9,371.406,292.883,373.187Z" transform="translate(-64.644 -191.818)"/>
    <path class="cls-69" d="M299.7,353.584a48.367,48.367,0,0,1,8.935-4.885,6.732,6.732,0,0,1,5.768-.024c1.752.816,4.12,1.2,4.363,3.556.248,2.4-2.159,2.962-3.608,4.232C309.018,361.846,305.057,356.311,299.7,353.584Z" transform="translate(-64.644 -191.818)"/>
    <path class="cls-71" d="M328.683,337.012c4.533-2.917,8.171-5.877,13.266-5.127a7.479,7.479,0,0,1,3.691,1.191c2.606,1.97,2.708,3.275.317,5.47-4.622,4.242-7.574,4.5-13.017,1.113Z" transform="translate(-64.644 -191.818)"/>
    <path class="cls-72" d="M929.686,727.508c.686,2.107.262,3.445-2.415,4.742A8.308,8.308,0,0,1,929.686,727.508Z" transform="translate(-64.644 -191.818)"/>
    <path class="cls-73" d="M252,448.545c4.143-2.834,8-5.912,13.391-5.551,2.094.14,4.179.629,4.825,2.783.676,2.253-1.663,2.9-2.96,4.032a7.414,7.414,0,0,1-1.307.718C259.129,454.328,258.738,454.278,252,448.545Z" transform="translate(-64.644 -191.818)"/>
    <path class="cls-73" d="M238.6,441.08c4.467-2.441,8-5.632,13.08-5.094,2.057.217,4.326.669,4.83,2.786.492,2.062-1.735,3.031-3.217,3.986C247.166,446.7,246.316,446.592,238.6,441.08Z" transform="translate(-64.644 -191.818)"/>
    <path class="cls-68" d="M291.905,426.287c-2.419,2.53-5.446,3.2-7.776,4.959-1.067.8-1.73.192-2.408-.707a57.169,57.169,0,0,1-5.912-8.806Z" transform="translate(-64.644 -191.818)"/>
    <path class="cls-74" d="M410.724,396.659l17.3,4.8c-2.023,2.813-5.155,3.3-7.4,5.023-1.131.868-2.049.145-2.857-.924C415.71,402.824,413.526,400.178,410.724,396.659Z" transform="translate(-64.644 -191.818)"/>
    <path class="cls-75" d="M683.329,428.172c4.853.177,9.223-1.771,13.729-3.119-1.767,4.158-2.87,5.187-7.848,5.769-2.355.276-4.189.973-5.406,2.929-4.159,6.685-11.288,7.418-17.967,9.038-1.428.346-1.842-1.174-2.741-1.808a24.849,24.849,0,0,1-.233-2.961c.283-7.722.622-8.047,8.309-7.99A39.259,39.259,0,0,0,683.329,428.172Z" transform="translate(-64.644 -191.818)"/>
    <path class="cls-76" d="M662.049,445.988c-.9,1.375-2.781,2.221-2.933,3.916-.5,5.619-4.352,7.359-9.047,8.274-2.246-3.913-.119-7.317,1.777-10.32,2.007-3.178,5.888-3.145,9.294-3.459C661.821,444.337,661.857,445.377,662.049,445.988Z" transform="translate(-64.644 -191.818)"/>
    <path class="cls-25" d="M572.061,479.891c-4.271-11.012-3.011-12.82,9.028-12.885,4.3-.023,8.591.01,12.887.018,1.665,5.458,4.613,10.163,8.032,14.708,3.2,4.259,4.811,9.458,6.713,14.365,1.875,4.836-.439,7.673-5.724,7.818-5.978.164-11.965.01-17.947-.005a28.877,28.877,0,0,0-6.9-12.842C575.287,487.813,574.387,483.457,572.061,479.891Z" transform="translate(-64.644 -191.818)"/>
    <path class="cls-24" d="M483.818,544.846l-.86-.847c1.4-3.6,4.444-4.6,7.88-4.837,1.886-.13,3.716-.308,4.812-2.075,4.236-6.83,11.137-8.306,18.335-9.21,4.324,2.269,4.352,8.689.055,12.261-9.283-.831-18.214,1.453-27.206,3.137A11.727,11.727,0,0,0,483.818,544.846Z" transform="translate(-64.644 -191.818)"/>
    <path class="cls-77" d="M529.946,512.141c.007.164.019.328.021.492.107,10.447-2.554,13.176-12.914,13.246,1.507-3.045,2.939-6.131,4.542-9.125C523.357,513.462,526.838,513.1,529.946,512.141Z" transform="translate(-64.644 -191.818)"/>
    <path class="cls-78" d="M624.869,461.136c3.913,1.516,8.027.612,12.034,1-2.94,4.3-7.572,2.958-11.482,2.991-6.544.055-13.1-.731-19.644-1.163,2.355-2.569,5.566-2.686,8.669-2.832C617.912,460.969,621.394,461.121,624.869,461.136Z" transform="translate(-64.644 -191.818)"/>
  </g>
</svg>
