<svg id="Layer_1" data-name="Layer 1" xmlns="http://www.w3.org/2000/svg" viewBox="0 0 679.262 877.123">
  <defs>
    <style>
      .cls-1 {
        fill: #dfe2e6;
      }

      .cls-2 {
        fill: #e3e6eb;
      }

      .cls-3 {
        fill: #bac3c7;
      }

      .cls-4 {
        fill: #bdc5c9;
      }

      .cls-5 {
        fill: #ced5db;
      }

      .cls-6 {
        fill: #d3d9de;
      }

      .cls-7 {
        fill: #e8eaed;
      }

      .cls-8 {
        fill: #c5ccd1;
      }

      .cls-9 {
        fill: #eff0f2;
      }

      .cls-10 {
        fill: #f3f4f5;
      }

      .cls-11 {
        fill: #0ebfed;
      }

      .cls-12 {
        fill: #94979c;
      }

      .cls-13 {
        fill: #93969b;
      }

      .cls-14 {
        fill: #94969b;
      }

      .cls-15 {
        fill: #344872;
      }

      .cls-16 {
        fill: #354972;
      }

      .cls-17 {
        fill: #354973;
      }

      .cls-18 {
        fill: #354872;
      }

      .cls-19 {
        fill: #b97678;
      }

      .cls-20 {
        fill: #b87375;
      }

      .cls-21 {
        fill: #eeedef;
      }

      .cls-22 {
        fill: #efeef0;
      }

      .cls-23 {
        fill: #d9585a;
      }

      .cls-24 {
        fill: #d12628;
      }

      .cls-25 {
        fill: #c28284;
      }

      .cls-26 {
        fill: #bc8082;
      }

      .cls-27 {
        fill: #c59193;
      }

      .cls-28 {
        fill: #d53537;
      }

      .cls-29 {
        fill: #d53a3c;
      }

      .cls-30 {
        fill: #d33234;
      }

      .cls-31 {
        fill: #d33739;
      }

      .cls-32 {
        fill: #d9575a;
      }

      .cls-33 {
        fill: #d2292b;
      }

      .cls-34 {
        fill: #bc8284;
      }

      .cls-35 {
        fill: #d12b2d;
      }

      .cls-36 {
        fill: #d04b4d;
      }

      .cls-37 {
        fill: #cd2d2f;
      }

      .cls-38 {
        fill: #c49496;
      }

      .cls-39 {
        fill: #cca3a5;
      }

      .cls-40 {
        fill: #d32f31;
      }

      .cls-41 {
        fill: #d32426;
      }

      .cls-42 {
        fill: #eeeff1;
      }

      .cls-43 {
        fill: #ededf0;
      }

      .cls-44 {
        fill: #edeef0;
      }

      .cls-45 {
        fill: #ecedf0;
      }

      .cls-46 {
        fill: #ececef;
      }

      .cls-47 {
        fill: #f0f0f2;
      }

      .cls-48 {
        fill: #efeef1;
      }

      .cls-49 {
        fill: #efeff1;
      }

      .cls-50 {
        fill: #e9c8ca;
      }
    </style>
  </defs>
  <title>VoiceCoach_upright_wrong</title>
  <g>
    <path class="cls-1" d="M662.055,180.948c2.563.106,3.09,2.271,3.917,4.015,5.271,11.106,10.46,22.25,15.741,33.351,1.281,2.692,2.91,5.218,4.181,7.915a11.712,11.712,0,0,1,1.062,6.8c-2.064,1.149-.266,2.3.168,3.187,13.289,27.034,26.053,54.321,39.1,81.471q29.722,61.856,59.084,123.885c11.206,23.6,22.546,47.133,33.807,70.706q31.633,66.219,63.281,132.432,18.485,38.747,37.1,77.436c4.235,8.836,8.845,17.515,12.225,26.751-.362,3.6,1.224,6.842,1.878,10.252a38.676,38.676,0,0,1-2.783,23.9c-1.062,2.322-2.667,5.89-5.434,4.6-2.508-1.169.044-4.134.929-6.081,4.82-10.6,3.723-21.076-.306-31.566-4.308-11.216-9.986-21.8-15.118-32.63-14.4-30.406-28.982-60.73-43.432-91.115-9.515-20.007-19.187-39.94-28.705-59.946-18.036-37.907-36.243-75.732-54.292-113.632-11.6-24.36-23.46-48.6-34.983-72.994-19.495-41.271-39.436-82.328-58.982-123.574q-17.869-37.708-36-75.294C640.775,152.475,627.335,124,613.593,95.669c-4.6-9.485-9.368-18.668-18.136-25.3-9.906-7.5-20.7-8.235-32.251-5.932-2.644.527-6.912,2.973-7.642.344-.94-3.386,3.864-3.5,6.506-4.351,8.107-2.612,16.309-3.134,24.535-.459a7.018,7.018,0,0,0,3.442.235c9.3,3.378,15.875,10.035,20.858,18.227,7.427,12.211,13.008,25.394,19.159,38.26,4.437,9.28,8.818,18.6,13.286,27.862,5.915,12.26,11.42,24.724,17.79,36.763.785,1.483,1.022,3.145,1.806,4.6,1.447,3.846,3.525,7.4,5.275,11.1-1.775-3.774-3.739-7.459-5.4-11.291C662.565,184.134,661.364,182.693,662.055,180.948Z" transform="translate(-258.016 -54.044)"/>
    <path class="cls-2" d="M584.952,908.036c-2.77-2.7-4.5-6.1-6.148-9.512-13.985-28.9-28.042-57.757-41.83-86.747-6.427-13.513-12.773-27.064-19.3-40.532q-16.967-35.018-33.61-70.193c-6.89-14.585-13.795-29.159-20.844-43.669-11.555-23.782-22.872-47.68-34.279-71.535Q418.4,563.8,407.884,541.73c-10.972-22.955-22.05-45.86-32.861-68.891-2.472-5.266-4.927-10.541-7.508-15.754-1.592-3.216-3.072-6.216-6.5-8.454-3.21-2.1-4.032-6.719-5.769-10.291-5.157-10.6-10.174-21.276-15.319-31.886-.951-1.961-2.151-3.947-1.864-6.085.894-6.675-2.1-11.308-7.182-15.076a8.532,8.532,0,0,1-2.822-3.42c-5.788-13.08-11.991-25.964-18.462-38.719-1.42-2.8-2.925-5.542-1.681-8.929.531-1.446-.267-2.922-.955-4.281-3.907-7.717-7.032-15.9-11.413-23.274-4.523-7.614-7.838-15.731-11.968-23.478a10.457,10.457,0,0,1-1.612-6.166,1.841,1.841,0,0,1,2.057-.33c3.622,6.354,6.532,13.075,9.97,19.527.866,1.625,1.054,3.978,4.025,3.437,1.289-.235,1.755,1.268,2.238,2.341,4.365,9.7,7.648,19.91,13.564,28.883a3.545,3.545,0,0,1,.23,3.792c-1.01,1.93-.135,3.536.8,5.147,6.271,12.784,12.752,25.469,18.132,38.667.573,1.733.943,3.655,3.557,3.079,2.667-.588,3.929,1.009,4.823,3.178.943,2.288,2.112,4.471,3.209,6.688,1.147,2.319,1.926,4.6-.133,6.865-1.5,1.65-.364,3.039.537,4.43,6.382,13.324,13.178,26.451,18.926,40.071,8.793,7.3,11.458,18.312,16.28,27.868,11.319,22.432,21.749,45.314,32.58,67.994q29.375,61.509,58.859,122.966c10.757,22.35,21.561,44.681,32.112,67.127,16.286,34.65,33.289,68.958,49.381,103.7a17.078,17.078,0,0,1,.9,2.328c2.51,8.164,6.977,15.452,10.495,23.159,4.55,9.969,9.553,19.73,14.841,29.357,3.4,6.184,5.242,13.187,8.274,19.619C587.358,908.771,586.092,908.253,584.952,908.036Z" transform="translate(-258.016 -54.044)"/>
    <path class="cls-3" d="M930.973,749.021c-1.892-6.413-5.4-12.123-8.181-18.125-9.3-20.067-19.152-39.879-28.734-59.817q-17.069-35.521-34.04-71.09-15.815-33.076-31.6-66.168-16.672-34.881-33.368-69.751-15.81-33.079-31.592-66.17-15.686-32.857-31.374-65.714-11.725-24.528-23.49-49.038t-23.5-49.036c-.478-1-1.4-1.945-.8-3.379,1.728-.238,1.529,1.863,2.659,2.3,3.1,6.8,6.095,13.655,9.333,20.391,10.889,22.652,21.928,45.232,32.794,67.894q20.611,42.987,41.042,86.061,14.6,30.643,29.193,61.29,22.824,47.743,45.707,95.458,16.594,34.672,33.159,69.358c14.575,30.474,29.271,60.89,43.663,91.45,4.175,8.865,8.648,17.6,12.133,26.806,7.228,19.091,2.91,43.123-16.272,55.8-7.2,4.757-14.421,9.519-22.67,12.372-1.2-3.5,2.03-3.7,3.748-4.594,9-4.71,17.744-9.717,24.86-17.163a21.3,21.3,0,0,0,4.73-6.929c5.467-10.028,7.873-20.525,4.95-31.853C932.424,755.951,930.905,752.666,930.973,749.021Z" transform="translate(-258.016 -54.044)"/>
    <path class="cls-4" d="M663,186c-4.2-6-6.867-12.82-10.075-19.337-4.975-10.108-9.535-20.42-14.427-30.57-7.274-15.092-14.9-30.02-21.948-45.215C612.9,83,609.2,75.244,602.706,69.349c-3.752-3.4-7.515-7.023-12.7-8.36-.929.812-1.731.374-2.514-.252-1.742-1.366-3.831-1.708-5.942-1.989-11.53-2.875-22.456-.087-33.262,3.594-21.8,7.425-42.539,17.436-63.687,26.432q-40.7,17.312-81.192,35.107c-39.653,17.4-80,33.245-118.724,52.73-5.194,2.051-9.027,5.878-12.88,9.727-1.284,1.283-2.369,3.329-4.821,2.5-.08-.027-.135-.245-.13-.372a1.972,1.972,0,0,1,.134-.472c6.471-8.913,15.717-14.223,25.239-19.013,18.121-9.114,37.024-16.507,55.545-24.744,18.816-8.369,37.814-16.33,56.723-24.49q32.485-14.02,64.954-28.078c20.582-8.909,41.121-17.916,61.746-26.725,10.227-4.368,20.607-8.265,31.674-10.2,12.913-2.255,24.26,1.021,34.805,8.387,9.332,6.518,15.159,15.759,20.108,25.608,4.851,9.653,9.16,19.576,13.845,29.315q15.143,31.48,30.425,62.892A8.919,8.919,0,0,1,663,186Z" transform="translate(-258.016 -54.044)"/>
    <path class="cls-5" d="M929.027,792.023c-1.508,5.945-6.444,9.181-10.7,12.663A97.407,97.407,0,0,1,898.911,816.6c-1.509.73-3.744.864-3.872,3.31-14.626,6.562-29.228,13.168-44.066,19.262-12.39,5.088-24.529,10.788-36.77,16.239-1.661.74-3.218,1.752-5.137,1.69-1.255.262-2.484.017-2.958-1.185-.56-1.422.8-2.041,1.737-2.618,4.848-2.986,10.314-4.609,15.523-6.771,23.188-9.626,46.128-19.828,69.078-29.99,10.9-4.827,21.663-10.316,30.027-19.308a18.98,18.98,0,0,0,3.433-4.259,3.138,3.138,0,0,1,1.727-1.4A1.738,1.738,0,0,1,929.027,792.023Z" transform="translate(-258.016 -54.044)"/>
    <path class="cls-1" d="M927,793c-2.076,4.936-6.193,8.086-10.279,11.058-11.27,8.2-23.848,13.974-36.617,19.428-17,7.261-33.792,15.012-50.822,22.2-7.552,3.187-15.384,5.709-23.1,9.77l2.882,1.649A11.814,11.814,0,0,1,804,859c-1.88-1.194-4.608,1.286-6.143-1.422.352-2.436,2.42-2.961,4.215-3.766,29.45-13.208,59.236-25.65,88.71-38.8,11.689-5.214,23.224-10.927,32.346-20.358C924.122,793.62,925.225,792.407,927,793Z" transform="translate(-258.016 -54.044)"/>
    <path class="cls-5" d="M748,882.986c-1.144.912-1.989,2.118-3.447,2.733q-29.281,12.34-58.51,24.806c-5.026,2.149-9.935,4.569-14.887,6.889-1.648.772-3.2,1.8-5.144,1.639a3.214,3.214,0,0,1-1.968-.74,1.478,1.478,0,0,1-.128-1.352c4.626-3.373,10.157-4.977,15.105-7.728a139.892,139.892,0,0,0,13.763-5.9,43.014,43.014,0,0,0,7.092-3.142c3.693-1.625,7.557-2.858,11.085-4.863,3.954-1.829,8.229-2.889,12.038-5.066,7.463-3.624,15.247-6.51,22.789-9.951,1.121-.511,2.621-1.3,3.494.334C749.869,881.758,748.856,882.434,748,882.986Z" transform="translate(-258.016 -54.044)"/>
    <path class="cls-6" d="M266.992,187.994c3.068.107,3.973-2.755,5.74-4.341,3.428-3.077,6.5-6.585,11.263-7.661.369,2.846-2.192,3.408-3.735,4.722-7.256,6.181-14.354,12.414-17.024,22.174-3.672,13.423-2.075,26.069,5.407,37.806,4.682,7.346,5.68,16.2,10.191,23.634,2.231,3.674,3.905,7.644,7.7,10.078.2,1.886.221,3.589-2.526,2.609l-2.04.01c-4.3-8.744-8.8-17.4-12.842-26.259-3.561-7.8-7.846-15.319-9.694-23.844C256.382,212.839,257.974,199.708,266.992,187.994Z" transform="translate(-258.016 -54.044)"/>
    <path class="cls-5" d="M662,920.993a100.093,100.093,0,0,1-32.215,9.821c-9.4,1.269-18.493-.926-26.78-5.816-.194-1.779,1.093-1.489,2.141-1.542,15.232,7.641,30,3.241,44.643-1.935,3.728-1.317,7.427-2.784,11.125-4.23A3.209,3.209,0,0,1,664,918l0,0C664.672,919.892,662.789,920.078,662,920.993Z" transform="translate(-258.016 -54.044)"/>
    <path class="cls-1" d="M748,882.986c.173-.749,1.023-1.337.425-2.469-7.368,3.212-14.77,6.381-22.105,9.7A7.831,7.831,0,0,1,723,891q-.123-.323-.248-.646a3.231,3.231,0,0,1,.856-1.848,5.5,5.5,0,0,1,2.308-1.38,11.581,11.581,0,0,0,4.726-1.944,14.84,14.84,0,0,1,4.123-2.068,17.939,17.939,0,0,0,4.92-1.706,10.659,10.659,0,0,1,1.25-.477,30.5,30.5,0,0,0,5.546-2.469,10.418,10.418,0,0,1,1.288-.557,57.583,57.583,0,0,0,10.437-4.364c1.9-.957,3.818-2.005,6.086-1.267,1.153.536,1.309,1.7,1.7,2.719C760.167,878.045,755.029,882.651,748,882.986Z" transform="translate(-258.016 -54.044)"/>
    <path class="cls-5" d="M766,875c-1.845.09-1.523-.9-1-2a2.728,2.728,0,0,1,1.733-1.824,15.624,15.624,0,0,0,3.965-1.956,8.221,8.221,0,0,1,2.323-1.141,12.162,12.162,0,0,0,4.749-1.99c2.812-1.414,5.689-2.679,8.6-3.88a18.1,18.1,0,0,0,4.94-1.623,9.535,9.535,0,0,1,1.211-.51,25.6,25.6,0,0,0,4.848-1.913c.212-.056.424-.109.637-.161,1.282-.045,2.593.166,3.815-.421,1.5-.721,2.074-.014,2.181,1.414a27.675,27.675,0,0,1-9.276,4.325c-7.786,2.1-14.906,6.013-22.373,9C770.214,873.175,768.112,874.1,766,875Z" transform="translate(-258.016 -54.044)"/>
    <path class="cls-1" d="M593.9,918.018a10.967,10.967,0,0,1-3.921-3.923,1.712,1.712,0,0,1-.251-2.009c3.125-.853,4.037,2.024,5.82,3.443.536.846,1.078,1.7.4,2.719A1.719,1.719,0,0,1,593.9,918.018Z" transform="translate(-258.016 -54.044)"/>
    <path class="cls-5" d="M590,912l-.015,2.094a13.352,13.352,0,0,1-5.031-6.058c.67-1.269,1.359-.074,2.04-.017C588.892,908.669,590.4,909.615,590,912Z" transform="translate(-258.016 -54.044)"/>
    <path class="cls-5" d="M593.9,918.018l2.093-.009c1.859.272,3.2,1.475,4.609,2.56.834,1.025,2.157,1.861,1.4,3.518A16.05,16.05,0,0,1,593.9,918.018Z" transform="translate(-258.016 -54.044)"/>
    <path class="cls-1" d="M602.006,924.087,599.992,921c2.651-1.3,4.14.03,5.22,2.3q-.107.352-.216.705c-.824.011-1.6.124-1.993.992Z" transform="translate(-258.016 -54.044)"/>
    <path class="cls-1" d="M662,920.993,664,918a1.926,1.926,0,0,1,2.01,1.055A5.6,5.6,0,0,1,662,920.993Z" transform="translate(-258.016 -54.044)"/>
    <path class="cls-7" d="M590,912l-3.006-3.981a5.41,5.41,0,0,0-1.139-3.253,38.8,38.8,0,0,1-5.32-12.17c-1.351-5.425-5.235-9.877-7.812-14.875-6.758-13.108-12.51-26.689-19.21-39.816A10.109,10.109,0,0,1,553,835c2.751-.357,3.2,1.929,4.011,3.635,6.214,13.091,12.534,26.131,18.838,39.179a23.421,23.421,0,0,0,3.972,5.728,16.67,16.67,0,0,1,3.973,6.863c5.821,20.947,20.7,27.519,37.963,30.272,7.568,1.206,14.821-.331,22.068-2.722,21.106-6.964,40.979-16.849,61.265-25.719,24.879-10.878,49.891-21.475,74.5-32.956,13.731-6.406,27.674-12.336,41.351-18.854a21.073,21.073,0,0,1,7.466-2.089c-1.023-.325-2.834.952-3.292-.652-.557-1.949,1.206-2.958,2.712-3.666,6.785-3.189,13.732-6.035,20.456-9.344,20.166-9.923,41.22-17.966,60.717-29.339,9.9-5.775,13.971-14.277,14.671-25.037.721-11.086-3.673-20.843-8.229-30.53-14.6-31.051-29.387-62.017-43.955-93.083-17.328-36.953-34.9-73.787-52.386-110.666-16.268-34.32-32.474-68.669-48.9-102.913-22.126-46.112-43.97-92.36-66.194-138.426-11.074-22.956-22.171-45.9-33.022-68.966-13.969-29.689-28.647-59.036-42.667-88.7-7.187-15.206-14.462-30.381-21.985-45.429-4.019-8.04-9.46-14.849-17.308-19.572-10.466-6.3-21.335-5.754-32.28-1.858-34.56,12.3-67.865,27.674-101.71,41.727q-44.081,18.3-87.955,37.093c-23.444,10-47.039,19.657-69.942,30.883-3.6,1.765-6.9,4.064-10.486,5.82-3.1,1.517-3.589,1.094-3.55-2.62C270.151,191.831,265,204.619,265,219.534c0,6.459,2.557,12.742,6.106,18.284a31.886,31.886,0,0,1,4.5,10.914c1.426,6.717,5.5,12.426,8.683,18.455,1.108,2.1,3.258,4.02,1.7,6.816-2.45.359-3.939-.594-5.017-2.92-2.57-5.542-6.515-10.7-7.893-16.489-2.669-11.215-11.568-19.715-12.622-31.531-1.144-12.817.429-24.656,9.53-34.615,4.25-4.65,9.311-8.33,14-12.456,11.72-7.007,24.2-12.428,36.713-17.817,20.108-8.664,40.153-17.474,60.262-26.134,22.866-9.848,45.8-19.544,68.656-29.409,18.749-8.092,37.366-16.492,56.164-24.467,17.7-7.507,35.033-16.06,53.9-20.429,7.358-1.7,14.918-2.861,22.323.233,1.926.872,4.136.908,5.974,2.037a2.032,2.032,0,0,0,2.026.983c-1.7,2.19-3.425.266-4.944-.172-10.247-2.953-19.794-.6-29.44,3.212,1.469,1.626,2.487.2,3.564.032,1.3-.2,2.565-.627,3.846-.952a40.76,40.76,0,0,1,18.626-.58c11.791,2.565,20.68,9.791,26.57,20.16,9.412,16.57,16.838,34.152,25.208,51.255,9.639,19.7,19.272,39.4,28.573,59.257,6.628,14.151,13.439,28.211,20.154,42.319C692.737,257.734,703.2,280,714.011,302.1c7.3,14.912,14.342,29.946,21.5,44.925q16.221,33.938,32.445,67.875,10.828,22.654,21.655,45.308c11.415,23.841,22.972,47.615,34.22,71.534q10.293,21.889,20.824,43.66c7.367,15.206,14.293,30.625,21.578,45.871,7.078,14.815,14.461,29.486,21.538,44.3,7.724,16.169,15.153,32.48,22.9,48.638,5.152,10.747,10.616,21.341,15.356,32.29,5.909,13.648,7.281,27.129-1.369,40.781,3.506-1.769,3.6-1.724,4.779-4.217,4.064-8.593,4.57-17.477,2.3-26.666-.585-2.364-2.68-4.711-.762-7.378l3.053,9.938c2.616,11.856.823,22.908-6.03,33.036l-1,1c-9.561,10.008-21.382,16.682-33.786,22.305-13.692,6.208-27.67,11.783-41.4,17.917-6.654,2.974-13.273,6.021-19.982,8.876-10.172,4.328-20.283,8.8-30.408,13.234-1.348.591-2.846,1.062-3.427,2.67h0a12.465,12.465,0,0,1-4.835,1.959c-8.685,2.76-16.889,6.65-25.043,10.659C760.6,872.2,754.192,876.585,747,879c-2.07.859-4.228,1.541-6,3l-1,0c-1.6.841-3.433,1.085-5,2l-4,2c-1.6.841-3.433,1.085-5,2l-2,1a27.2,27.2,0,0,0-3.313,2.295,6.224,6.224,0,0,1-1.22.6,49.554,49.554,0,0,0-10.523,4.433,8.6,8.6,0,0,1-1.234.526,36.188,36.188,0,0,0-6.1,2.546,5.081,5.081,0,0,1-1.241.553c-5.459,2.4-11.039,4.522-16.364,7.218a8.8,8.8,0,0,1-1.193.634,29.8,29.8,0,0,0-6.089,2.522,5.447,5.447,0,0,1-1.2.575c-2.816.8-5.3,2.333-7.911,3.595a6.246,6.246,0,0,1-1.292.483c-4.923,2.111-10.119,3.525-14.934,5.906a8.838,8.838,0,0,1-3.351,1.253A16.3,16.3,0,0,0,641.191,924a10.7,10.7,0,0,1-5.033,1.286c-2.249.058-4.519-.224-6.731.454a7.4,7.4,0,0,1-1.562.244c-2.779-.305-5.554-.914-8.353-.594-9.82,1.122-17.352-3.629-24.513-9.393Z" transform="translate(-258.016 -54.044)"/>
    <path class="cls-8" d="M681.128,225.295l-8.463-17.084,1.141-.548,8.556,17.1Z" transform="translate(-258.016 -54.044)"/>
    <path class="cls-4" d="M663,186a34.579,34.579,0,0,1,5.664,12.166C666.408,194.28,663.482,190.7,663,186Z" transform="translate(-258.016 -54.044)"/>
    <path class="cls-9" d="M286,274c-2.644-7.2-7.192-13.442-10.245-20.443-.941-2.157-2-4.175-1.768-6.632.318-3.336-2.128-5.489-3.667-7.978-6.077-9.825-8.447-20.22-5.295-31.579a48.424,48.424,0,0,1,9.588-18.892c2.651-3.124,6.313-4.762,9.084-7.587.723-.738,1.8-1.284,2.638-.411,1,1.035-.2,1.751-.793,2.455-.634.753-1.351,1.435-2.092,2.211,1.293,1.219,1.8-.1,2.475-.5,10.26-6.161,21.249-10.813,32.064-15.867,13.973-6.53,28.366-12.047,42.4-18.409,10.267-4.653,20.794-8.731,31.177-13.131,9.3-3.939,18.477-8.158,27.844-11.918,28.01-11.244,55.584-23.522,83.508-34.979,17.8-7.3,35.369-15.141,53.532-21.522,18.292-6.427,34.185-2.219,46.05,14.091,5.018,6.9,8.433,14.655,11.768,22.459,1.558,3.646,3.522,7.117,5.257,10.69q16.206,33.365,32.383,66.745c8.818,18.238,17.69,36.451,26.321,54.778q12.115,25.723,24.635,51.247c10.8,22.077,21.224,44.342,31.823,66.52q16.529,34.586,33.078,69.161,15.021,31.467,29.979,62.965c8.765,18.466,17.581,36.909,26.185,55.449,6.719,14.477,13.677,28.835,20.586,43.219,11.006,22.916,21.693,45.986,32.541,68.978,8.781,18.612,17.786,37.122,26.344,55.836,6.625,14.489,14.517,28.475,19.456,43.643,3.928,12.063,3.487,24.083-4.554,35-3.257,4.422-8.008,6.41-12.408,8.845-22.547,12.477-46.4,22.224-69.759,33.021-3.664,1.694-7.246,3.564-11.376,5.605,3.042,1.677,4.386-.982,6.894-.643-2.618,2.9-6.124,3.457-9.081,4.613-5.1,1.992-9.88,4.616-14.88,6.787-16.241,7.052-32.193,14.766-48.361,21.989-18.631,8.323-37.372,16.4-56.071,24.574-15.659,6.842-31.236,13.883-47.026,20.41-8.845,3.656-17.862,7.215-27.595,7.776a38.194,38.194,0,0,1-10.308-.74c-15.312-3.378-27.878-10.607-34.61-25.659a5.5,5.5,0,0,1-.7-2.84,9.109,9.109,0,0,0-2.171-6.5c-11.239-14.667-16.876-32.22-25.164-48.4-.674-1.316-1.076-2.846-2.684-3.432-7.917-17.5-16.808-34.541-24.66-52.081-5.084-11.356-10.978-22.344-16.284-33.613-12.164-25.833-24.674-51.5-37.029-77.248-7.759-16.167-15.716-32.245-23.17-48.552-6.821-14.92-14.114-29.617-21.161-44.422-9.263-19.461-18.281-39.051-28.1-58.258-5.424-10.613-9.851-21.731-15.007-32.487-5.52-11.516-11.384-22.867-17.055-34.311-.953-1.923-2.3-3.708-2.511-5.936-.133-1.4-.7-2.286-2.206-1.9-3.119.8-2.7-1.411-2.822-3.192.6-1.916-.173-3.608-1-5.213-5.449-10.548-9.937-21.56-15.493-32.056-.6-1.143-.828-2.59-2.5-2.731a11.161,11.161,0,0,1-2.731-3.982c4.364-2.679,4.365-2.679,2.122-7.228-.809-1.64-1.661-3.259-2.433-4.917-2.243-4.821-2.231-4.827-7.354-3.251A13.821,13.821,0,0,1,332.01,379c1.386-1.367.622-2.843-.02-4.1-5.34-10.408-9.667-21.3-15.194-31.616-.68-1.269-1.167-2.789-2.8-3.286-1.137-1.931-4.8-3.553-.632-6.121.746-.46.307-1.45-.226-2.2-6.492-9.113-9.869-19.705-14.13-29.876-.253-.6-.461-1.7-1.031-1.407-4.678,2.407-4.118-2.258-5.163-4.05-2.67-4.578-4.85-9.443-7.229-14.191-.815-1.627-1.824-3.192-1.576-5.143C286.09,276.946,286.018,275.457,286,274Z" transform="translate(-258.016 -54.044)"/>
    <path class="cls-10" d="M314,340c2.043-1.936,2.512.192,3.11,1.333,2.227,4.247,4.574,8.455,6.43,12.865,2.839,6.745,6.258,13.2,9.425,19.774a11.615,11.615,0,0,1,1.464,4.185c.1,2.048-1.356,1.23-2.417.84Z" transform="translate(-258.016 -54.044)"/>
    <path class="cls-10" d="M344,403c2.388-1.824,2.726.507,3.343,1.78,3.549,7.322,7.147,14.626,10.451,22.06,2.015,4.534,5.085,8.543,6.431,13.406.4,1.452.954,2.609-1.225,2.754Z" transform="translate(-258.016 -54.044)"/>
    <path class="cls-1" d="M928,792c1.236-2.83,2.681-5.588,3.667-8.5,2.255-6.667,3.971-13.433,2.4-20.588a18.774,18.774,0,0,1-.037-3.946c3.941,11.869,1.318,22.745-5,33.063Z" transform="translate(-258.016 -54.044)"/>
    <path class="cls-1" d="M587.983,60.006a8.752,8.752,0,0,1-5.974-2.037C584.24,57.946,586.434,58.032,587.983,60.006Z" transform="translate(-258.016 -54.044)"/>
    <path class="cls-1" d="M664,918h-3l-.187-.631c1.63-1.915,4.115-2.262,6.184-3.373,3.093-1.124,5.948-2.784,9-4a3.112,3.112,0,0,1,2.522-.452l.482.458c-3.359,2.7-7.383,4.148-11.241,5.888C666.432,916.495,664.927,916.7,664,918Z" transform="translate(-258.016 -54.044)"/>
    <path class="cls-1" d="M693,904.006a34.773,34.773,0,0,1-14,6L679,910c.085-2.669,2.823-1.792,4-3,3.307-.724,5.723-3.875,9.445-3.471Z" transform="translate(-258.016 -54.044)"/>
    <path class="cls-1" d="M723,891c-3.422,3.051-7.724,3.994-12,5q-.1-.333-.2-.665c2.521-2.6,6.2-2.747,9.193-4.343a2.19,2.19,0,0,1,3-.006Z" transform="translate(-258.016 -54.044)"/>
    <path class="cls-1" d="M711.007,896.008c-3.007,3.12-7.159,3.719-11,5l-.22-.6c.173-.67.727-1.01,1.216-1.406,2.366-.924,4.673-1.986,7-3a2.391,2.391,0,0,1,3,0Z" transform="translate(-258.016 -54.044)"/>
    <path class="cls-1" d="M700,901a10.106,10.106,0,0,1-7,3L693,904c1.638-2.622,3.777-4.075,7-3Z" transform="translate(-258.016 -54.044)"/>
    <path class="cls-1" d="M636,924a8.038,8.038,0,0,0,5-1c2.288-.826,4.732-1.106,7-2l3-1c3.457-.047,6.149-3.9,10-2.006L661,918c-2.845,2.858-6.878,3.3-10.363,4.489-9.339,3.179-18.649,7.242-28.833,6.419-5.854-.473-11.961-.709-16.81-4.9L605,924a2.747,2.747,0,0,1,3.246-.362c6.753,3.3,13.8,1.476,20.751,1.366C631.2,923.7,633.812,925.349,636,924Z" transform="translate(-258.016 -54.044)"/>
    <path class="cls-2" d="M747,879c6.874-3.295,13.287-7.664,21-9l.242.59c-.193.661-.751,1-1.244,1.388L765,873c-2.429-.32-4.455.725-6.548,1.759C754.791,876.569,751.277,878.835,747,879Z" transform="translate(-258.016 -54.044)"/>
    <path class="cls-2" d="M741,882c1.331-2.338,3.512-2.975,6-3A11.178,11.178,0,0,1,741,882Z" transform="translate(-258.016 -54.044)"/>
    <path class="cls-2" d="M723,890.994,720,891c.734-1.865,2.284-2.1,4-2Z" transform="translate(-258.016 -54.044)"/>
    <path class="cls-2" d="M726,888a5.675,5.675,0,0,1,5-2A5.676,5.676,0,0,1,726,888Z" transform="translate(-258.016 -54.044)"/>
    <path class="cls-2" d="M735,884a5.675,5.675,0,0,1,5-2A5.677,5.677,0,0,1,735,884Z" transform="translate(-258.016 -54.044)"/>
    <path class="cls-2" d="M768,870c2.444-3.036,6.215-3.846,9.543-4.84,5.373-1.605,9.637-5.842,15.457-6.16.627,1.147-.449,1.443-1,2h0c-1.6.825-3.431,1.089-5,2l-8.993,4c-1.6.828-3.439,1.078-5.007,2l-1.991,1.005A2.411,2.411,0,0,1,768,870Z" transform="translate(-258.016 -54.044)"/>
    <path class="cls-1" d="M792,861l1-2c1.722-.061,3.2-1.349,5-1C797.042,861.081,794.323,860.645,792,861Z" transform="translate(-258.016 -54.044)"/>
    <path class="cls-1" d="M787,863a5.661,5.661,0,0,1,5-2A5.724,5.724,0,0,1,787,863Z" transform="translate(-258.016 -54.044)"/>
    <path class="cls-1" d="M773,869a5.651,5.651,0,0,1,5.007-2A5.738,5.738,0,0,1,773,869Z" transform="translate(-258.016 -54.044)"/>
    <path class="cls-1" d="M768,870l3.009.005a5.313,5.313,0,0,1-4.011,1.97Z" transform="translate(-258.016 -54.044)"/>
    <path class="cls-2" d="M629,925c-6.766,2.026-13.523,3.787-20.146-.475-1.187-.764-2.552-.46-3.851-.529-1.054-2.029-2.942-2.662-5.011-2.992-1.441-.853-3.289-1.163-4-3L595,916c2.485-.094,3.527,2.243,5.385,3.25,5.756,3.118,11.58,5.628,18.345,4.759C622.219,923.56,625.6,924.458,629,925Z" transform="translate(-258.016 -54.044)"/>
    <path class="cls-2" d="M700,900.994a10.1,10.1,0,0,0-7,3c-3.744-.369-6.25,3.38-10,3,5.4-4.016,11.676-6.062,18-8Z" transform="translate(-258.016 -54.044)"/>
    <path class="cls-2" d="M661,917.994c-3.609-.713-6.384,2.729-10,2.006a62.388,62.388,0,0,1,16-6C665.473,916.045,662.528,915.958,661,917.994Z" transform="translate(-258.016 -54.044)"/>
    <path class="cls-2" d="M711,896l-3,0a23.215,23.215,0,0,1,12-5C717.577,893.706,713.321,893.111,711,896Z" transform="translate(-258.016 -54.044)"/>
    <path class="cls-2" d="M676,910c-2.658,2.1-5.5,3.8-9,4C669.658,911.9,672.5,910.2,676,910Z" transform="translate(-258.016 -54.044)"/>
    <path class="cls-2" d="M708,896a10.01,10.01,0,0,1-7,3A10.008,10.008,0,0,1,708,896Z" transform="translate(-258.016 -54.044)"/>
    <path class="cls-2" d="M683,907l-4,3-3,0A10.008,10.008,0,0,1,683,907Z" transform="translate(-258.016 -54.044)"/>
    <path class="cls-2" d="M648,921c-2.03,1.73-4.461,2.054-7,2C643.03,921.27,645.461,920.946,648,921Z" transform="translate(-258.016 -54.044)"/>
    <path class="cls-2" d="M636,924c-2.1,1.941-4.676.6-7,1C631.1,923.059,633.676,924.4,636,924Z" transform="translate(-258.016 -54.044)"/>
    <path class="cls-10" d="M611.23,909.458c-.278,3.9-.407,4.061-4.78,2.208-7.68-3.254-12.925-9.081-16.76-16.329a5.466,5.466,0,0,1-.425-3.851c1.19-5.939-.733-9.829-6.013-12.553-3.841-1.982-5.308-5.825-6.9-9.409-4.449-9.991-9.712-19.587-14.237-29.527-3.507-7.7-7.434-15.189-11.043-22.834-4.735-10.03-9.306-20.13-14.393-30-6.6-12.808-12.583-25.93-18.763-38.949-2.765-5.824-5.749-11.58-8.528-17.42-6.5-13.658-12.96-27.337-19.556-40.949-8.549-17.645-17.272-35.207-25.81-52.857-6.442-13.316-12.421-26.863-19.122-40.045-10.694-21.038-20.017-42.725-30.723-63.761-8.583-16.864-16.662-33.993-24.607-51.17C377.7,456.359,364.84,431.2,352.474,405.8c-10.532-21.636-20.664-43.473-30.654-65.366-5.584-12.239-11.2-24.482-17.1-36.549-8.091-16.569-15.562-33.445-24.165-49.764-1.656-3.141-2.651-6.151-1.3-9.884,1.3-3.6-1.629-8.272-5.351-9.2a3.567,3.567,0,0,1-2.64-2.655c-2.674-7.584-3.947-15.409-1.991-23.281.605-2.435.85-6.912,5.88-5.436.493.145,1.546-.7,1.951-1.331,2.286-3.574,5.427-1.871,8.027-1.017,2.449.8,3.016,3.434,2.839,5.864-.685,9.4,3.587,17.16,7.459,25.281,2.186,4.585,4.264,9.31,6.633,13.791,5.277,9.982,7.7,21.1,13.005,31.057,7.563,14.193,13.835,29.031,20.984,43.419,8.723,17.556,16.543,35.525,25.246,53.087,10.258,20.7,20.115,41.6,29.783,62.588,5.21,11.309,10.325,22.688,15.781,33.857,9.113,18.656,17.6,37.6,26.743,56.246,11.119,22.672,21.623,45.655,32.249,68.566,8.666,18.686,17.849,37.136,26.127,56,6.665,15.187,14.041,30.039,20.854,45.159,8.244,18.295,16.987,36.374,25.4,54.6,5.964,12.929,11.86,25.9,17.973,38.765,5.91,12.44,11.323,25.115,16.98,37.675,4.952,10.995,10.517,21.757,14.739,33.024,3.717,9.92,9.233,19,12.5,29.116,1.349,4.181,4.406,7.731,7.476,11.066C609.93,902.682,612.6,904.815,611.23,909.458Z" transform="translate(-258.016 -54.044)"/>
    <path class="cls-11" d="M709.448,715.667c6.938-2.983,13.808-5.793,20.537-8.9,2.521-1.166,3.9-.932,5.006,1.69,1.287,3.062,2.761,6.053,4.3,9,.967,1.847.876,2.836-1.29,3.758q-19.041,8.106-37.953,16.512c-2.319,1.032-3.134.294-4.086-1.717Q683.69,710.078,671.2,684.256c-1.237-2.542-.544-3.433,1.737-4.351,4.155-1.672,8.294-3.417,12.3-5.405,2.72-1.349,4.163-1.221,5.575,1.9,5.269,11.636,10.852,23.129,16.328,34.67C707.849,712.555,708.618,714.015,709.448,715.667Z" transform="translate(-258.016 -54.044)"/>
    <path class="cls-12" d="M399.352,362.567c5.927,1.381,8.219,3.437,8.751,7.677.566,4.506-1.3,7.74-6.264,10.259-3.254,1.652-6.7,2.915-9.98,4.529-1.889.931-2.958.7-3.894-1.291q-6.03-12.854-12.274-25.607c-1.074-2.188-.567-3.369,1.6-4.231,3.237-1.287,6.384-2.812,9.65-4.015,3.89-1.433,7.69-1.941,11.069,1.487S401.8,358.489,399.352,362.567Z" transform="translate(-258.016 -54.044)"/>
    <path class="cls-13" d="M569.337,288.622c5.765,1.281,8.21,3.419,8.763,7.336.68,4.822-.842,7.756-5.835,10.364-3.371,1.761-6.971,3.079-10.389,4.757-1.708.839-2.663.619-3.5-1.146q-6.262-13.265-12.678-26.456c-.912-1.868-.242-2.748,1.406-3.425,3.827-1.574,7.555-3.458,11.49-4.677,3.595-1.114,7.231-1,9.857,2.549C570.9,281.225,572.252,284.571,569.337,288.622Z" transform="translate(-258.016 -54.044)"/>
    <path class="cls-14" d="M443.5,351.4c4.843,3.608,9.592,2.7,14.12-.578,1.648-1.193,3.046-2.719,1.842-5.076a4.219,4.219,0,0,0-4.936-2.424c-2.12.369-4.264.627-6.366,1.08-7.154,1.54-12.42-.715-13.916-6.033-1.586-5.641,2.058-11.518,8.712-13.686a15.05,15.05,0,0,1,11.187.457c1.973.9,2.079,2.17,1.255,4.046-.908,2.066-1.758,1.584-3.364.715-3.794-2.052-7.449-.958-10.682,1.448-1.469,1.093-2.519,2.722-1.848,4.783.634,1.948,1.969,2.808,4.076,3.047a9.394,9.394,0,0,0,4.386-.309c2.738-1.017,5.566-.83,8.379-.935a7.753,7.753,0,0,1,8.108,5.382c1.314,3.466,1.148,6.857-1.77,9.656-4.692,4.5-9.972,7.164-16.656,5.208C441.278,356.791,441.154,356.4,443.5,351.4Z" transform="translate(-258.016 -54.044)"/>
    <path class="cls-13" d="M514.6,314.156c.182,1.34-1.125,1.575-2.134,2.026-2.428,1.086-4.86,2.165-7.316,3.185-1.869.776-2.66,1.827-1.47,3.812a30.918,30.918,0,0,1,1.967,4.039c.758,1.822,1.87,1.977,3.57,1.206,3.936-1.786,7.981-3.332,11.893-5.168,1.94-.91,2.89-.518,3.8,1.386,1,2.089-.271,2.621-1.7,3.242-5.491,2.388-11.021,4.691-16.454,7.2-2.036.941-2.975.389-3.843-1.489-3.982-8.607-7.982-17.207-12.133-25.734-1.146-2.354-.275-3.23,1.767-4.083q7.819-3.269,15.529-6.793c1.7-.78,2.689-.679,3.51,1.137.88,1.947-.1,2.734-1.654,3.393-3.52,1.495-6.99,3.116-10.556,4.488-2.491.958-2.992,2.32-1.655,4.573a36.994,36.994,0,0,1,1.75,3.59c.671,1.473,1.511,1.9,3.126,1.1,2.674-1.334,5.554-2.26,8.2-3.635C513.536,310.217,513.9,312.136,514.6,314.156Z" transform="translate(-258.016 -54.044)"/>
    <path class="cls-15" d="M549.755,242.129c4.272-1.837,8.533-3.7,12.822-5.495,1.113-.466,2.357-1.73,3.466-.031,1.051,1.611,1.962,3.2-.734,4.329q-8.735,3.665-17.37,7.564c-1.707.775-2.389.113-3.057-1.29q-6.431-13.5-12.928-26.958c-.618-1.281-.449-2.007.98-2.61,5.8-2.449,11.57-4.989,17.33-7.541,1.959-.868,2.6.317,3.333,1.775,1.015,2.017-.651,2.266-1.744,2.761-3.479,1.575-6.942,3.223-10.53,4.511-3.026,1.087-3.423,2.626-1.661,5.1a4.721,4.721,0,0,1,.612,1.36c1.013,3.321,2.915,3.889,5.9,2.195,2.01-1.141,4.282-1.811,6.335-2.887,1.73-.907,2.591-.413,3.48,1.2,1.1,1.993.125,2.6-1.531,3.181a27.315,27.315,0,0,0-4.552,2c-1.665.957-4.589.855-4.808,2.934-.274,2.606,1.765,4.885,2.932,7.248A1.35,1.35,0,0,0,549.755,242.129Z" transform="translate(-258.016 -54.044)"/>
    <path class="cls-14" d="M472.652,329.464c1.49-5.416,3.093-10.8,4.426-16.259.812-3.323,3.107-4.426,6.333-5.007a52.47,52.47,0,0,1-3.2,12.439c-1.106,3.071-.755,4.987,2.464,6.8,5.463,3.074,10.536,6.841,15.911,10.409-3.468,3.244-6.3,2.824-9.535,0-2.857-2.5-6.264-4.365-9.414-6.532-1.638-1.127-2.734-.783-3.253,1.143-.732,2.715-1.562,5.393.355,8.061a23.6,23.6,0,0,1,1.977,4.03c.854,1.864-.248,2.691-1.744,3.448-1.675.847-2.4.037-3.05-1.354q-6.131-13.11-12.332-26.187c-.738-1.552-1.011-2.65.911-3.638,2.192-1.127,2.946,0,3.75,1.694,1.765,3.723,3.624,7.4,5.444,11.1Z" transform="translate(-258.016 -54.044)"/>
    <path class="cls-13" d="M530.239,398.5c-1.145-10.891-2.218-21.446-3.4-31.988-.187-1.666-.973-3.332,1.382-4,1.913-.545,3.6-2.272,5.786.061,5.341,5.688,11.1,10.985,16.394,16.716,1.587,1.718,3.551,2.993,4.966,4.837.742.966,2.566,1.985,1.075,3.232-1.225,1.025-3.009,2.418-4.872.632-.12-.115-.217-.256-.343-.364-1.856-1.586-3.133-4.872-5.649-4.419-3.508.632-6.8,2.546-10.126,4.053-1.973.9-.845,2.51-.661,3.923C535.5,396.651,535.3,396.956,530.239,398.5Z" transform="translate(-258.016 -54.044)"/>
    <path class="cls-12" d="M414.284,374.608c-1.122-10.88-2.187-21.7-3.389-32.5-.262-2.356.979-3.262,2.79-4.013,1.382-.574,2.6-1.329,4.025.134,7.914,8.138,15.892,16.213,23.939,24.4-2.595,2.468-4.6,2.982-7.274.194-4.394-4.583-4.5-4.242-10.526-1.819-3.817,1.536-6.536,3.052-4.953,8.01C419.929,372.257,418.275,374.387,414.284,374.608Z" transform="translate(-258.016 -54.044)"/>
    <path class="cls-13" d="M611.961,288.315c-3.458,3.77-6.019,2.573-7.908-.185-2.5-3.653-5.342-3.651-8.747-1.651a7.753,7.753,0,0,1-1.817.808c-3.8,1.056-5.362,3.36-4.546,7.364.632,3.1-.009,5.661-4.446,5.973-1.073-3.16-.612-6.682-1.153-9.986-1.176-7.17-1.55-14.469-2.325-21.708-.233-2.178.04-3.767,2.41-4.745,2.077-.857,3.4-.946,5.171.876C596.221,272.888,604.066,280.5,611.961,288.315Z" transform="translate(-258.016 -54.044)"/>
    <path class="cls-13" d="M458.9,286.562c-2.7,2.59-4.6,2.547-6.931-.076-4.146-4.67-4.313-4.522-9.907-1.963a16.247,16.247,0,0,1-2.266,1.029c-3.354.94-4.2,2.893-3.492,6.34.943,4.582.659,4.64-3.656,6.6-1.753-1.643-1.165-3.991-1.42-5.947-1.155-8.85-1.958-17.746-3.047-26.606-.261-2.121.655-3.081,2.342-3.763,1.632-.659,3.113-1.861,4.922.006,7.122,7.349,14.362,14.583,21.535,21.884A26.389,26.389,0,0,1,458.9,286.562Z" transform="translate(-258.016 -54.044)"/>
    <path class="cls-13" d="M504.739,246.78c-.6,4.218-2.526,7.334-6.593,9.226-6.5,3.021-6.282,3.088-3.438,9.659.7,1.614,4.129,3.655.438,5.7-3.756,2.085-4.1-1.457-5.081-3.432-3.761-7.6-7.258-15.329-11.088-22.892-1.328-2.622-.8-3.881,1.806-4.848,3.112-1.155,6.08-2.731,9.236-3.724C497.562,234.1,504.513,239.058,504.739,246.78Z" transform="translate(-258.016 -54.044)"/>
    <path class="cls-13" d="M466.638,247.834c4.991.022,8.49,3,10.125,8.631,1.214,4.176-.787,8.181-5.044,10.823-2.463,1.529-6.731,1.471-7.149,4.522-.323,2.353,2.077,5.056,3.185,7.638.593,1.381,2.05,2.8-.489,4.04-2.406,1.17-3.251-.08-4.135-1.905-3.9-8.063-7.791-16.135-11.818-24.137-1.437-2.855-.944-4.336,2.218-5.356C457.9,250.679,461.769,247.739,466.638,247.834Z" transform="translate(-258.016 -54.044)"/>
    <path class="cls-14" d="M507.542,372.915a8.3,8.3,0,0,1,5.872,1.647c1.354,1.007,3.1,1.471,1.257,3.658-1.267,1.506-1.726,2.549-4.13.954a8.068,8.068,0,0,0-12.508,6.771,17.431,17.431,0,0,0,6.873,14.309c4.9,3.834,11.629,1.528,13.638-4.4a4.11,4.11,0,0,0,.328-1.442c-.126-2.56,1.642-2.517,3.345-2.411,2.35.146,1.844,2,1.743,3.38-.366,4.985-3.327,8.215-7.572,10.315a14.5,14.5,0,0,1-18.489-4.925c-3.271-4.809-6.427-9.811-5.3-16.042C493.986,377.025,499.433,372.762,507.542,372.915Z" transform="translate(-258.016 -54.044)"/>
    <path class="cls-13" d="M524.939,295.036a62.6,62.6,0,0,0-5.759,2.458c-1.97,1.062-3.18,1.09-4.171-1.27-.951-2.266.674-2.508,1.947-3.061,6.382-2.771,12.813-5.433,19.16-8.283,1.846-.829,2.987-.914,3.95,1.156.986,2.122-.417,2.517-1.8,3.226-2.272,1.166-5.939,1.089-6.494,3.722-.5,2.383,1.792,4.842,2.937,7.227q3.66,7.627,7.4,15.215c.867,1.753,1.6,3.238-.815,4.531-2.6,1.391-3.144-.452-3.927-2.09-3.215-6.732-6.389-13.483-9.648-20.193C527.187,296.575,526.932,295.016,524.939,295.036Z" transform="translate(-258.016 -54.044)"/>
    <path class="cls-16" d="M606.5,254.344c1.424.26,1.63,1.586,2.11,2.572,3.273,6.713,6.585,13.411,9.648,20.221,1.124,2.5,2.206,3.211,4.8,1.861,3.38-1.761,7.007-3.041,10.462-4.668,2.156-1.015,2.86.111,3.734,1.806,1.01,1.958-.324,2.277-1.527,2.8-5.483,2.388-11,4.7-16.445,7.175-1.564.71-2.408.41-3.107-1.059-4.273-8.986-8.6-17.946-12.828-26.955C602.569,256.449,604.632,254.142,606.5,254.344Z" transform="translate(-258.016 -54.044)"/>
    <path class="cls-16" d="M583.176,374.912c-.107,1.363-1.191,1.607-2.047,1.985-5.306,2.346-10.643,4.622-15.944,6.976-1.6.712-2.63.709-3.508-1.172-4.134-8.851-8.379-17.652-12.658-26.434-.83-1.7-.643-2.511,1.211-3.354,1.951-.886,2.853-.628,3.758,1.325,3.2,6.905,6.708,13.671,9.771,20.634,1.3,2.958,2.627,3.6,5.5,2.086,3.352-1.764,6.908-3.145,10.391-4.656C582.421,371.1,582.521,373.422,583.176,374.912Z" transform="translate(-258.016 -54.044)"/>
    <path class="cls-17" d="M663.82,265.735c.087,1.2-.884,1.334-1.583,1.643-5.475,2.414-10.99,4.739-16.436,7.219-1.926.877-2.655.009-3.4-1.552q-6.2-13.068-12.508-26.082c-.777-1.6-.927-2.519,1.091-3.39,2.08-.9,2.974-.341,3.839,1.5,3.109,6.624,6.54,13.107,9.384,19.84,1.5,3.557,3.149,3.836,6.248,2.143a92.493,92.493,0,0,1,9.118-4.013A2.989,2.989,0,0,1,663.82,265.735Z" transform="translate(-258.016 -54.044)"/>
    <path class="cls-16" d="M508.71,228.138c1.865-.111,1.983,1.516,2.516,2.607,3.2,6.562,6.5,13.089,9.442,19.767,1.306,2.961,2.682,3.484,5.5,1.969,3.056-1.646,6.369-2.806,9.525-4.275,1.821-.848,2.879-.737,3.831,1.37s-.074,2.619-1.578,3.265c-5.183,2.227-10.379,4.426-15.512,6.762-1.945.885-2.956.481-3.866-1.458-4.087-8.714-8.222-17.408-12.5-26.032C504.475,228.893,507.3,229.1,508.71,228.138Z" transform="translate(-258.016 -54.044)"/>
    <path class="cls-18" d="M609.148,363.212c.372,1.337-.58,1.719-1.519,2.128-5.483,2.389-10.99,4.724-16.427,7.212-1.686.772-2.412.119-3.067-1.259-4.193-8.822-8.353-17.66-12.642-26.436-.893-1.828-.439-2.678,1.256-3.429,1.615-.715,2.671-.723,3.548,1.161,3.286,7.06,6.829,14,10.038,21.1,1.22,2.7,2.452,3.288,5.128,1.846,3.194-1.721,6.666-2.916,9.945-4.491C607.889,359.85,608.565,361.352,609.148,363.212Z" transform="translate(-258.016 -54.044)"/>
    <path class="cls-19" d="M568.936,524.977c-2.579-1.711-4.655-.212-6.766,1.06a13.657,13.657,0,0,1-1.151.789,11.014,11.014,0,0,0-9.5,6.754c-1.029,2.262-2.881,3.968-4.416,5.873-1.491.613.071,1.435-.133,2.138-1.968,4.291-2.547,9.048-4.818,13.288-2.413,4.506-2.545,4.682-7.084,2.937-8.945-3.439-17.8-4.449-26.973-.039-10.18,4.895-20.686,9.113-31.075,13.568a30.71,30.71,0,0,1-6.572,1.948c1.282-2.013,3.473-2.667,5.345-3.737a134.772,134.772,0,0,1,24.6-10.547,22.137,22.137,0,0,0,8.477-5.047c1.444-.007,2.1-1.73,3.588-1.655a43.02,43.02,0,0,1,21.931,1.989c2.749,1,4.463.351,5.552-2.253,1.573-3.761,3.924-7.473.817-11.57.525-1.669,2.227-.5,3.115-1.292,2.4-3.836,5.544-7.137,7.709-11.163a5.669,5.669,0,0,1,5.811-3.1,7.414,7.414,0,0,0,4.3-.937c2.087-2.2,4.7-1.44,7.2-1.268A1.5,1.5,0,0,1,568.936,524.977Z" transform="translate(-258.016 -54.044)"/>
    <path class="cls-20" d="M720.995,463.552c4.564-1.732,8.676-4.559,13.531-5.589,3.3-1.158,6.685-2.136,9.466-4.409,3.877-2.1,7.8-4.053,12.352-4.752.089,1.975-1.331,1.95-2.2,2.5-8.36,5.25-17.725,8.206-26.858,11.671a19.98,19.98,0,0,0-9.577,7.593c-2.237,3.208-4.888,5.956-9.541,4.487a3.356,3.356,0,0,0-3.944,1.44c-3.657,5.415-8.926,7.059-15.161,6.377-.2-1.322.833-1.591,1.695-2.011,4.646-1.39,9.234-2.849,12.4-6.935a4.434,4.434,0,0,1,4.422-1.822c4.162.877,6.606-1.3,8.625-4.442C717.53,465.969,719.826,465.421,720.995,463.552Z" transform="translate(-258.016 -54.044)"/>
    <path class="cls-21" d="M644.925,495.739a1.345,1.345,0,0,0-.518-.691c-2.885-1.583-5.925-2.911-8.433-5.115-.457-.887-1.307-.935-2.147-1.005a1.072,1.072,0,0,1,.4-1.37,9.322,9.322,0,0,1,10.785.116c3.611,2.359,7.645,4.007,11.062,6.681l2.841,1.621c.808.652,1.966,1.19.8,2.481C654.308,500.178,649.339,499.467,644.925,495.739Z" transform="translate(-258.016 -54.044)"/>
    <path class="cls-22" d="M568.936,524.977l.149-1.847c1.341-1.038,3.038-.595,4.51-1.084,6.808-.39,11.225,4.54,16.554,7.441,1.61,1.215,4.669,2.182,3.561,4.442-1.213,2.477-4.249,1.8-6.651.924a45.686,45.686,0,0,1-10.013-5.223c-2.787-.961-4.834-3.07-7.214-4.666l-.449.018Z" transform="translate(-258.016 -54.044)"/>
    <path class="cls-23" d="M602.715,529.78c.941-9.26-.381-18.526.107-27.8.235-4.459.989-8.845,1.218-13.31.355-6.936,4.137-8.938,10.518-6.258,3.516,1.477,6.766,3.554,10.464,4.619.12,1.049-.555,1.436-1.4,1.688-3.378.174-5.877-2.095-8.8-3.191-4.862-1.826-7.458-.533-8.155,4.55a125.049,125.049,0,0,0-.928,28.353c.389,4.291.807,8.642-1.593,12.61C603.09,531.285,602.537,530.949,602.715,529.78Z" transform="translate(-258.016 -54.044)"/>
    <path class="cls-24" d="M720.995,463.552c-.51,2.207-2.319,3.258-3.965,4.455-6.961,3.035-13.929,1.6-20.784-.243-5.61-1.51-5.327-1.526-8.189,3.67-1.737,3.154-.445,7.306-3.678,9.777-1.652-1.961-.785-4.13-.531-6.249a9.375,9.375,0,0,1,1.472-4.655c1.488-2.517,1.611-6.068,4.27-7.577,2.841-1.612,4.932,1.677,7.548,2.286C705.261,466.909,713.283,468.008,720.995,463.552Z" transform="translate(-258.016 -54.044)"/>
    <path class="cls-25" d="M602.715,529.78,603.878,531c3.127,2.583,7.725,2.765,10.272,6.3-.042.225-.086.451-.13.677-4.082-.133-7.064-3.316-10.964-3.953a2.876,2.876,0,0,1-1.679.631,4.619,4.619,0,0,0-2.807.295,1.726,1.726,0,0,1-1.1.031c-.307-.111-.73-.412-.9-.305-6.268,3.81-11.559.883-16.812-2.383-1.658-1.031-3.558-1.7-4.853-3.269A1.476,1.476,0,0,1,577,529c2.922,1.5,5.8,3.088,8.779,4.457,2.418,1.111,4.97,1.64,7.6.2-.065-2.214-2.373-2.306-3.476-3.538.059-.673.657-.781,1.1-1.049,2.507,1.92,4.814,3.883,8.526,3.095C601.276,531.8,601.857,530.836,602.715,529.78Z" transform="translate(-258.016 -54.044)"/>
    <path class="cls-26" d="M683.847,474.962c.616,1.95-.768,4.34,1.315,5.966,2.285-1.412,4.438-1.992,6.029.96-.8.126-1.647.155-2.128.977l-3.867-.8a3.5,3.5,0,0,1-1.94.794c-7.675-1.09-12.783,3.733-12.746,12.057a1.97,1.97,0,0,1-.474,1.9,5.24,5.24,0,0,0-3.158,1.908c-1.193,1.212-2.576,1.913-4.141.487.591-1.566,2.938-1.4,3.222-3.272,1.949-4.131,3.912-8.255,5.841-12.394,1.3-2.783,3.621-5.04,6.466-4.281C682.664,480.432,683.173,477.909,683.847,474.962Z" transform="translate(-258.016 -54.044)"/>
    <path class="cls-9" d="M625.677,529.09c5.084,2.257,5.283,2.891,2.322,7.41-1.074,1.64-2.031,3.374-3.253,4.9-2.285,2.848-5.495,2.23-6.748-1.2,3.64-1.846,6.153-4.458,6.018-8.87A3.217,3.217,0,0,1,625.677,529.09Z" transform="translate(-258.016 -54.044)"/>
    <path class="cls-27" d="M623.893,488.194c.552-.219,1.03-.508,1.129-1.165,2.606-2.658,5.25-2.628,7.93-.113a.825.825,0,0,1,.005,1.339c-1.861,1.007-4.2-.711-5.932,1.045-1.139,6.472-1.618,12.96-.3,19.463a4.593,4.593,0,0,1-.756,3.253l-.843-.031c-1.846-1.657-1.483-3.907-1.545-6.006C623.409,500.048,623.662,494.12,623.893,488.194Z" transform="translate(-258.016 -54.044)"/>
    <path class="cls-28" d="M543.875,539.181c-.7,1.156-1.891.8-2.917.958-1.292,1.319-3.061,1.051-4.646,1.4-3.292.716-6.408,1.841-8.614,4.539-2.821,3.449-6.284,3.925-10.256,2.527-1.687-2.18.67-1.828,1.519-2.423,2.99.908,5,.259,6.956-2.611,3.3-4.833,8.661-5.489,14.1-5.164A27.208,27.208,0,0,1,543.875,539.181Z" transform="translate(-258.016 -54.044)"/>
    <path class="cls-29" d="M560.8,526.076l1.367-.04c-.669,5.623-3.653,10.235-6.888,14.578-2.122,2.848-5.414,1.59-8.313.976.194-.788-2.363-.312-.8-1.731,7.417.335,10.019-4.952,12.351-10.565A9.531,9.531,0,0,1,560.8,526.076Z" transform="translate(-258.016 -54.044)"/>
    <path class="cls-30" d="M670.036,496.81q0-.819-.009-1.638a20.9,20.9,0,0,0,8.476-9.332c.8-1.847,2.677-2.882,4.444-3.839l2.25.06c-2.268,4.5-5.917,8.063-8.448,12.433C675.6,496.471,672.675,497.149,670.036,496.81Z" transform="translate(-258.016 -54.044)"/>
    <path class="cls-31" d="M633.043,488.013l-.092-1.1c2.113-1.384,4.344-2.629,6.948-1.925,6.206,1.677,11.779,4.524,16.176,9.363-3.537-1.786-7.143-3.45-10.592-5.392-3.71-2.089-7.421-2.683-11.384-.922A.617.617,0,0,1,633.043,488.013Z" transform="translate(-258.016 -54.044)"/>
    <path class="cls-26" d="M644.925,495.739c4.753,2.476,9.721,3.525,15.036,2.252,1.332-.678,2.209-.564,2.126,1.221C655.821,500.747,649.75,501.321,644.925,495.739Z" transform="translate(-258.016 -54.044)"/>
    <path class="cls-32" d="M591,529.077l-1.1,1.049c-5.109-2.872-9.521-7.254-15.916-7.336-.284-1.648,1.325-1.005,1.922-1.587C581.8,522.172,585.98,526.434,591,529.077Z" transform="translate(-258.016 -54.044)"/>
    <path class="cls-27" d="M625.677,529.09,624.993,531a1.082,1.082,0,0,1-1.521-.391c-.494-6.392-1.364-12.838,2.56-18.625l-.059.031c1.172,5.012-.037,9.945-.6,14.885C625.281,527.747,624.923,528.436,625.677,529.09Z" transform="translate(-258.016 -54.044)"/>
    <path class="cls-33" d="M518.96,546.177l-1.976,1.6a7.333,7.333,0,0,1-5.082,5.234c-1.067.137-1.207,3.216-3.029.953,1.777-2.1,3.564-4.2,5.326-6.314A4.026,4.026,0,0,1,518.96,546.177Z" transform="translate(-258.016 -54.044)"/>
    <path class="cls-34" d="M624.144,531.024l.849-.023c-.175,6.945-1.492,8.676-6.994,9.2-1.493-.446-3.076-.731-3.98-2.229l-.041.068c.115-.115.236-.336.345-.33C619.291,537.961,622.353,535.43,624.144,531.024Z" transform="translate(-258.016 -54.044)"/>
    <path class="cls-35" d="M575.907,521.2l-1.922,1.587a14.906,14.906,0,0,1-4.9.34,14.351,14.351,0,0,0-7.392.851c.307-1.183.9-2.2,2.26-2.082C567.98,522.263,571.9,521.1,575.907,521.2Z" transform="translate(-258.016 -54.044)"/>
    <path class="cls-36" d="M662.086,499.212a2.161,2.161,0,0,0-2.126-1.221l-1.043-2.016c2.351.661,4.7,1.677,7.042-.042.057,2.221.035,2.243-3.222,3.272l-.325.015Z" transform="translate(-258.016 -54.044)"/>
    <path class="cls-37" d="M743.992,453.555c-2.186,3.552-5.762,4.118-9.466,4.409A36.183,36.183,0,0,1,743.992,453.555Z" transform="translate(-258.016 -54.044)"/>
    <path class="cls-38" d="M635.974,489.932a23.486,23.486,0,0,1,8.433,5.115A11.124,11.124,0,0,1,635.974,489.932Z" transform="translate(-258.016 -54.044)"/>
    <path class="cls-39" d="M577,529l-2.1.013a8.031,8.031,0,0,1-5.066-4.05C572.831,525.229,574.376,528.071,577,529Z" transform="translate(-258.016 -54.044)"/>
    <path class="cls-40" d="M633.043,488.013l1.057.027q-.155.438-.274.887l-6.8.373C628.625,486.971,630.995,488.245,633.043,488.013Z" transform="translate(-258.016 -54.044)"/>
    <path class="cls-41" d="M601.091,534.078l1.965-.062c-1.4,3.01-3.267,3.306-5.586.957a.317.317,0,0,0,.515.033A3.4,3.4,0,0,1,601.091,534.078Z" transform="translate(-258.016 -54.044)"/>
    <path class="cls-9" d="M398.189,366.862c2.211-.212,3.612,1.236,4.428,3.474a4.127,4.127,0,0,1-1.941,5.131,50.894,50.894,0,0,1-7.189,3.341,1.757,1.757,0,0,1-2.486-.915c-.939-1.941-1.917-3.865-2.79-5.835A1.458,1.458,0,0,1,389,370C391.841,368.7,394.478,366.809,398.189,366.862Z" transform="translate(-258.016 -54.044)"/>
    <path class="cls-9" d="M390.577,353.949c3,.047,5.335,2.212,5.228,4.839-.1,2.587-6.028,7.017-9.358,7-1.025-.005-4.794-6.033-4.763-7.617C381.711,356.781,387.767,353.905,390.577,353.949Z" transform="translate(-258.016 -54.044)"/>
    <path class="cls-42" d="M572.994,297.672a3.944,3.944,0,0,1-1.646,3.447,11.781,11.781,0,0,1-2.543,1.534c-7.937,3.421-6.021,4.1-10.063-4.031-.59-1.188-.866-2.11.66-2.8,2.712-1.218,5.317-2.785,8.376-2.924A4.8,4.8,0,0,1,572.994,297.672Z" transform="translate(-258.016 -54.044)"/>
    <path class="cls-42" d="M565.946,284.359a4.241,4.241,0,0,1-1.661,3.818,16.605,16.605,0,0,1-2.581,1.5c-6.076,3.049-7.33,2.5-9.3-4.044-.186-.621-.549-1.6-.277-1.882,2.134-2.252,5.058-3.1,7.937-3.7a4.6,4.6,0,0,1,5.339,2.767A12.152,12.152,0,0,1,565.946,284.359Z" transform="translate(-258.016 -54.044)"/>
    <path class="cls-43" d="M532.193,368.574l10.041,9.126c0,1.2-.474,1.4-.908,1.533-2.476.76-4.953,3.421-7.241,2.294-2.346-1.156-.717-4.546-1.242-6.893C532.414,372.714,531.65,370.829,532.193,368.574Z" transform="translate(-258.016 -54.044)"/>
    <path class="cls-44" d="M426.551,354.566c-8.514,4.667-8.506,4.666-9.751-4.221-.228-1.632-.566-3.248-.8-4.878-.041-.282.165-.6.28-.976Z" transform="translate(-258.016 -54.044)"/>
    <path class="cls-45" d="M588.317,284.436c-1.968-4.732-1.147-9.744-2.148-13.169l11.2,8.862A37.612,37.612,0,0,1,588.317,284.436Z" transform="translate(-258.016 -54.044)"/>
    <path class="cls-46" d="M434.09,267.752c3.69,3.977,7.346,6.6,9.6,10.517-.31.34-.471.658-.724.772-8.584,3.857-7.427,5.313-8.843-4.921A53.157,53.157,0,0,1,434.09,267.752Z" transform="translate(-258.016 -54.044)"/>
    <path class="cls-42" d="M492.8,240.924a6.07,6.07,0,0,1,6.178,5.833c.164,2.935-4.759,7.119-8.425,7.158-1.444.016-5.381-6.366-5.466-8.859C485.041,243.517,489.752,240.992,492.8,240.924Z" transform="translate(-258.016 -54.044)"/>
    <path class="cls-42" d="M465.744,252.866a6.52,6.52,0,0,1,5.956,6.086c0,2.747-6.035,7.328-9.233,7.006-1.042-.1-5.448-7.7-5.284-9.113C457.363,255.3,462.763,252.792,465.744,252.866Z" transform="translate(-258.016 -54.044)"/>
    <path class="cls-47" d="M511.9,553.009a30.342,30.342,0,0,1,5.082-5.234c1.626.141,3.26.224,4.876.439a3.56,3.56,0,0,0,3.839-1.574c3.532-5.874,9.1-6.856,15.258-6.5,3.15.708,3.608,2.9,2.911,5.557a26.587,26.587,0,0,1-1.653,4.116c-1.072,2.367-1.145,5.605-3.667,6.773-2.439,1.129-4.474-1.7-6.809-2.081-5.837-.954-11.69-2.361-17.672-1.139C513.242,553.534,512.5,553.9,511.9,553.009Z" transform="translate(-258.016 -54.044)"/>
    <path class="cls-48" d="M560.8,526.076c-.708,4.633-3.378,8.368-5.764,12.188-2.263,3.623-5.769,1.8-8.865,1.595,2.661-4.052,5.083-8.295,8.089-12.073C555.681,526,558.424,525.951,560.8,526.076Z" transform="translate(-258.016 -54.044)"/>
    <path class="cls-49" d="M691.192,481.888c-1.86-1.257-3.984-.863-6.029-.96-1.124-5.461,1.977-9.815,3.9-14.442a2.677,2.677,0,0,1,4.018-1.5c7.62,3.814,15.75,3.707,23.947,3.017-2.035,3.829-4.3,7.117-9.542,5.143a2.94,2.94,0,0,0-3.477,1.338C701.137,479.461,696.052,480.449,691.192,481.888Z" transform="translate(-258.016 -54.044)"/>
    <path class="cls-9" d="M624.144,531.024c-1.027,7.1-2.088,7.832-10.165,7.012-2.482-2.6-5.978-3.366-9.055-4.843-1.3-.623-1.228-1.214-1.046-2.2,1.652-9.037-.544-18.1.206-27.149.4-4.768.513-9.57,1.148-14.3.839-6.259,3.9-7.913,9.687-5.494,3.038,1.271,5.986,2.757,8.975,4.145.811.67,1.643.94,1.391,2.6-.936,6.156-.3,12.385-.225,18.587.012.985,0,1.98.972,2.607C624.367,518.229,624.883,524.689,624.144,531.024Z" transform="translate(-258.016 -54.044)"/>
    <path class="cls-50" d="M601.091,534.078c-.731,1.328-2.033.745-3.106.928C598.507,532.978,599.386,532.146,601.091,534.078Z" transform="translate(-258.016 -54.044)"/>
    <path class="cls-22" d="M682.947,482a122.487,122.487,0,0,0-7.219,10.686c-1.152,1.872-3.495,2.336-5.7,2.485-1.274-.294-2.2-.672-1.306-2.313,1.267-2.317,2.27-4.78,3.563-7.082C675.052,480.849,677.279,480.107,682.947,482Z" transform="translate(-258.016 -54.044)"/>
  </g>
</svg>
