<svg id="Layer_1" data-name="Layer 1" xmlns="http://www.w3.org/2000/svg" viewBox="0 0 1050.234 621.341">
  <defs>
    <style>
      .cls-1 {
        fill: #efeff5;
      }

      .cls-2 {
        fill: #eff0f6;
      }

      .cls-3 {
        fill: #d7dde8;
      }

      .cls-4 {
        fill: #d9dfea;
      }

      .cls-5 {
        fill: #d0d9e5;
      }

      .cls-6 {
        fill: #ebe8f1;
      }

      .cls-7 {
        fill: #cdd2e0;
      }

      .cls-8 {
        fill: #ced3e1;
      }

      .cls-9 {
        fill: #dce0ea;
      }

      .cls-10 {
        fill: #cdd0df;
      }

      .cls-11 {
        fill: #c2cfdd;
      }

      .cls-12 {
        fill: #c2c8d8;
      }

      .cls-13 {
        fill: #dfe6ee;
      }

      .cls-14 {
        fill: #ced0df;
      }

      .cls-15 {
        fill: #dbdce8;
      }

      .cls-16 {
        fill: #d7d9e6;
      }

      .cls-17 {
        fill: #c4d6e2;
      }

      .cls-18 {
        fill: #dbdee9;
      }

      .cls-19 {
        fill: #ced8e3;
      }

      .cls-20 {
        fill: #cfd6e3;
      }

      .cls-21 {
        fill: #cedbe6;
      }

      .cls-22 {
        fill: #fcfcfc;
      }

      .cls-23 {
        fill: #f0f0f6;
      }

      .cls-24 {
        fill: #f0f1f7;
      }

      .cls-25 {
        fill: #f1f2f7;
      }

      .cls-26 {
        fill: #e1e7ef;
      }

      .cls-27 {
        fill: #e3e5ee;
      }

      .cls-28 {
        fill: #999aa2;
      }

      .cls-29 {
        fill: #40527b;
      }

      .cls-30 {
        fill: #9a9ba2;
      }

      .cls-31 {
        fill: #41537b;
      }

      .cls-32 {
        fill: #42537c;
      }

      .cls-33 {
        fill: #42547c;
      }

      .cls-34 {
        fill: #d4dae6;
      }

      .cls-35 {
        fill: #dddce8;
      }

      .cls-36 {
        fill: #e8e9f1;
      }

      .cls-37 {
        fill: #e8e7f0;
      }

      .cls-38 {
        fill: #d9e0ea;
      }

      .cls-39 {
        fill: #e4e7f0;
      }

      .cls-40 {
        fill: #e0e7ef;
      }

      .cls-41 {
        fill: #c8d1df;
      }

      .cls-42 {
        fill: #c5cedd;
      }

      .cls-43 {
        fill: #cfd7e4;
      }

      .cls-44 {
        fill: #ced5e2;
      }

      .cls-45 {
        fill: #cad4e1;
      }

      .cls-46 {
        fill: #cfdae5;
      }

      .cls-47 {
        fill: #cbd6e2;
      }

      .cls-48 {
        fill: #d2dae6;
      }

      .cls-49 {
        fill: #c3d3e0;
      }

      .cls-50 {
        fill: #d6e1ea;
      }

      .cls-51 {
        fill: #b4c8d7;
      }

      .cls-52 {
        fill: #b7c6d6;
      }

      .cls-53 {
        fill: #dde4ed;
      }

      .cls-54 {
        fill: #99aec3;
      }

      .cls-55 {
        fill: #9eb3c6;
      }

      .cls-56 {
        fill: #9bb0c4;
      }

      .cls-57 {
        fill: #9ab0c4;
      }

      .cls-58 {
        fill: #94a9be;
      }

      .cls-59 {
        fill: #96acc1;
      }

      .cls-60 {
        fill: #515560;
      }

      .cls-61 {
        fill: #868ba5;
      }

      .cls-62 {
        fill: #8394ad;
      }

      .cls-63 {
        fill: #626b7d;
      }

      .cls-64 {
        fill: #6c7690;
      }

      .cls-65 {
        fill: #e6e9f1;
      }

      .cls-66 {
        fill: #535b71;
      }

      .cls-67 {
        fill: #40c955;
      }

      .cls-68 {
        fill: #999ba2;
      }

      .cls-69 {
        fill: #2dbe4a;
      }

      .cls-70 {
        fill: #9a9ca3;
      }

      .cls-71 {
        fill: #2ebf4c;
      }

      .cls-72 {
        fill: #1bc2f2;
      }

      .cls-73 {
        fill: #32c04f;
      }

      .cls-74 {
        fill: #e8e8f1;
      }

      .cls-75 {
        fill: #abdfba;
      }

      .cls-76 {
        fill: #edeff5;
      }

      .cls-77 {
        fill: #f6f6fa;
      }

      .cls-78 {
        fill: #eeedf4;
      }

      .cls-79 {
        fill: #ebeaf0;
      }

      .cls-80 {
        fill: #cfd9e5;
      }

      .cls-81 {
        fill: #d0dae6;
      }

      .cls-82 {
        fill: #ccdde7;
      }

      .cls-83 {
        fill: #77819c;
      }

      .cls-84 {
        fill: #95aabf;
      }

      .cls-85 {
        fill: #99afc3;
      }

      .cls-86 {
        fill: #8096af;
      }

      .cls-87 {
        fill: #98acc1;
      }

      .cls-88 {
        fill: #96abc0;
      }

      .cls-89 {
        fill: #879bb4;
      }

      .cls-90 {
        fill: #97abc1;
      }

      .cls-91 {
        fill: #7f9ab0;
      }

      .cls-92 {
        fill: #8ea8bc;
      }

      .cls-93 {
        fill: #576174;
      }

      .cls-94 {
        fill: #697b91;
      }

      .cls-95 {
        fill: #eff1f6;
      }

      .cls-96 {
        fill: #eeeef4;
      }

      .cls-97 {
        fill: #ececf2;
      }
    </style>
  </defs>
  <title>VoiceCoach_down_correct</title>
  <g>
    <path class="cls-1" d="M486,173.016c27.915-6.258,52.571,1.613,76.106,16.463,17.117,10.8,35.051,20.306,52.615,30.4q29.15,16.753,58.292,33.52,28.522,16.357,57.08,32.651,32.406,18.588,64.778,37.235,28.955,16.6,57.954,33.126c18.723,10.717,37.535,21.274,56.024,32.407,14.646,8.819,29.737,16.9,44.579,25.4,19.162,10.97,38.263,22.047,57.408,33.046q28.506,16.375,57.048,32.688,30.036,17.207,60.077,34.4,27.048,15.419,54.185,30.683c6.507,3.654,12.746,7.7,18.849,11.974.926,3.026,3.679,5.172,4.085,8.455a18.312,18.312,0,0,1-.937,13.6,7.389,7.389,0,0,1-.641,1.3c-2.378,2.924-5.217,5.407-7.833,8.109a12.381,12.381,0,0,1-1.654,1.339c-2.107,1.3-4.089,2.775-6.107,4.2-1.458,1.032-2.974,2.219-4.963,1.146-.587-1.434.33-2.34,1.14-3.288a8.565,8.565,0,0,1,1.139-.948c2.568-1.624,4.449-4,6.621-6.059,4.116-3.9,4.4-8.592,3.218-13.82-2.332-10.3-10.663-14.966-18.733-19.38-6.426-3.514-12.314-7.857-18.882-11.134-15.879-7.921-30.238-18.54-46.4-26.062-5.779-2.69-11.1-6.616-16.627-9.99-1.9-1.157-3.691-2.2-5.94-2.316a6.894,6.894,0,0,1-4.857-2.312c-5.5-6.145-13.239-8.819-20.022-12.94-13.01-7.9-26.539-14.893-39.531-22.887-8.071-4.966-17.014-8.861-25.283-13.691-6.128-3.579-12.54-6.7-18.377-10.783a6.117,6.117,0,0,0-4.352-1.03c19.968,11.829,39.527,22.844,58.985,34.029,26.43,15.193,52.913,30.294,79.325,45.516,5.34,3.078,10.782,5.984,16.016,9.243,5.086,3.167,5.053,4.994-.122,7.968-21.233,12.2-42.558,24.247-63.717,36.579-39.021,22.223-77.913,44.672-116.858,67.029-24.52,14.076-48.976,28.27-73.681,42.021-1.643.863-3.168,1.933-4.791,2.833-2.359,1.432-4.774,2.774-7.079,4.3C849.423,696.481,834.467,704.5,820,713.36c-3.925,2.4-7.284,2.532-11.51.031-12.3-7.282-24.776-14.292-37.146-21.472-2.081-1.208-4.677-1.961-5.628-4.619a2.158,2.158,0,0,1,1.4-1.62c7.577,2.321,13.8,7.236,20.653,10.928a218.735,218.735,0,0,1,20.3,11.8c4.379,3.006,7.916,2.677,12.314.085,21.1-12.431,42.407-24.5,63.664-36.661q70.06-40.073,140.022-80.318c15.757-9.024,31.461-18.14,47.27-27.068,1.873-.873,3.538-2.113,5.349-3.1.8-.459,1.586-.945,2.35-1.469,15.251-8.559,30.323-17.427,45.528-26.063,1.222-.694,3.258-.937,3.133-2.756-.1-1.406-1.888-1.69-3.011-2.335q-112.022-64.3-224.03-128.621Q834.99,362.436,769.31,324.8c-4.834-2.765-10.627-3.259-15.574-6.257-3.023-1.833-6.829-2.773-9.709-4.958-7.336-5.566-16.16-5.395-24.542-7.024-3.476-.676-6.741-.266-10.22.079-3.377.335-7.633-.512-11.474-1.043-3.1-.429-6.232-1.293-9.4-.249a3.227,3.227,0,0,1-3.652-.946c-3.255-3.787-7.005-2.956-10.872-1.284-2.242.969-4.332,2.546-6.742-.021-1.087-1.158-2.944.493-4.309.035a31.973,31.973,0,0,0-20.368.177c-4.813,1.577-9.211-1.923-14.015.4-2.427,1.176-5.96-.186-8.571-1.748-3.6-2.152-6.942-1.821-10.351.247-2.506,1.52-4.932,2.323-6.761-.967.1-2.936,2.7-3.534,4.577-4.689,4.45-2.735,9.249-4.9,13.674-8.168-2.183-1.11-3.5.177-4.913.88a39.256,39.256,0,0,0-5.988,3.57c-5.167,3.87-9.894,3.451-14.959-.335-4.254-3.18-9.273-5.181-13.842-7.907-1.476-.881-3.046-2.139-5.09-1.149.124,2,1.893,2.164,3.085,2.818,6.119,3.361,12.109,6.942,18.07,10.568,1.789,1.088,3.907,2.034,4.345,4.51-.557,3.089-2.622,4.222-5.525,4.273-12.433-4.317-25.35-6.9-38-10.451a5.939,5.939,0,0,0-3.453-.048c-2.489.8-3.749,1.8-1.677,4.577,2.391,3.211,6.327,5.623,6.059,10.407-1.461.9-2.523-.014-3.531-.862-1.565-1.316-3.492-1.838-5.309-2.618-4.016-1.724-6.635-.327-8.191,3.569-2.19.754-4.207-.342-6.306-.574-4.1-.452-7.8.767-11.34,2.706-1.847,1.013-3.488,2.589-5.861,2.21-1.973-2.454-3.872-3.722-7.679-3.459-3.22.222-7.634-.334-10.16-3.845-.136-2.554-1.089-3.908-3.72-2.3-3.129,1.91-6.491,3.43-9.5,5.518-3.47,2.407-6.674,2.2-10.167-.062-5.169-3.35-10.526-6.41-15.831-9.544-1.639-.968-3.224-2.488-5.838-1.265,2.57,3.38,6.527,4.449,9.6,6.709,1.528,1.123,3.92,1.36,4.014,3.948-1.572,4.692-5.231,7.575-9.038,10.277-1.8,1.277-3.816,2.079-6.05.906-1.215-1.734.3-2.731,1.1-3.883,2.674-3.852,2.345-5.634-1.73-7.8-4.719-2.513-9.715-2.19-14.581-.7-3.834,1.173-7,3.821-10.535,5.681-1.865.981-1.741,2.194-.136,3.439.906.7,1.927,1.377,1.928,2.739-1.374,1.984-3.229,3.261-5.639,2.477-1.506-.49-1.305,1.008-2.1,1.206-10.75-1.673-18.936,3.888-27.074,9.575-2.59.361-5.622-.644-7.27,2.592-.391.767-1.472.419-2.288.307-5.073-.691-5.075-.684-4.589,4.707a2.774,2.774,0,0,1-.186,1.436c-2.972,1.586-7.357,1.3-7.98,6.01-5.061.544-3.378-3.756-4.562-6.461-3.926.778-6.4,4.528-10.4,5.545-1.205.306-2.4,1.776-4.382,1.527-3.629-.456-6.667.513-7.532,4.7-.421,2.041-1.429,3.349-3.746,3.1-1.93-.206-3.491,1.134-5.211,1.4-5.411.835-9.735,3.338-13.821,6.909-2.619,2.289-5.758,4.548-9.856,2-1.65-1.027-3.624.356-5.015,1.5-6.491,5.348-13.8,9.463-20.756,14.123-6.98,4.679-12.709,10.8-18.6,16.711-2.686-.219-4.723-1.909-6.984-3.089a13.224,13.224,0,0,0-4.4-2.286c-.385-.157.011.3.1.3,1.53-.09,2.581,1.035,3.837,1.677a45.166,45.166,0,0,0,6.554,3.588,10.664,10.664,0,0,1,1.308.363,63.024,63.024,0,0,0,5.884,3.173,9.126,9.126,0,0,1,1.126.678,7.514,7.514,0,0,0,5.336,1.889c12.37,6.15,24.052,13.517,36.03,20.353,42.175,24.069,84.169,48.454,126.388,72.446,4.626,2.629,9.056,5.6,13.844,7.946,4.881,3.161,10.1,5.743,15.039,8.8,1.62,1,3.78,1.579,4.15,3.951-1.824,3.243-3.777.784-5.366-.1-10.478-5.812-20.754-11.979-31.191-17.867-31.74-17.9-63.3-36.127-95-54.111-21.561-12.234-43.982-22.806-65.391-35.277a37.446,37.446,0,0,0-7.381-3.016c-13.643-4.445-26.173-11.433-39.1-17.467-8.426-3.933-17.431-6.606-25.366-11.653-2.972-1.89-1.953,1.3-2.469,2.458-5.883.287-9.509-3.922-13.759-6.894a9.186,9.186,0,0,0-4.06-3.52,4.924,4.924,0,0,1-1.444-1.587c-1.768-3.887-5.225-7.043-5.15-11.726.115-7.268,2.958-13.412,8.677-17.749a192.263,192.263,0,0,1,19.9-13.33c15.265-8.822,30.392-17.894,45.776-26.5,12.776-7.143,25.538-14.316,38.21-21.635,20.445-11.808,41.3-22.884,61.58-35,9.823-5.867,20.12-11.037,29.953-16.9,10.568-6.3,21.142-12.662,31.936-18.474,12.3-6.622,24.157-14.1,36.882-19.918,5.163-2.361,9.714-5.743,14.81-8.251a138.206,138.206,0,0,1,17.048-6.821C487.281,174.475,485.23,173.921,486,173.016Z" transform="translate(-167.835 -170.853)"/>
    <path class="cls-2" d="M175,352.99c2.659-5.34,7.546-8.442,12.015-11.964,1.013,1.275.319,2.361-.37,3.45-.6.8-1.366,1.449-2.019,2.2-7.905,9.135-8.242,14.428-1.556,24.6,4,5.622,9.933,8.829,15.676,12.105q51.346,29.3,102.63,58.7c29.319,16.726,58.575,33.561,87.975,50.147,34.35,20.109,69.037,39.628,103.565,59.426q47.248,27.091,94.5,54.174c41.44,23.829,83.023,47.408,124.469,71.227,39.426,22.658,78.951,45.144,118.342,67.863,12,6.92,24.14,13.55,38.266,15.174,9.824,1.129,19.59,1.121,29.275-1.128,14.348-3.3,26.928-10.632,39.528-17.739,36.423-20.544,72.633-41.464,108.934-62.224,40.207-22.993,80.336-46.121,120.578-69.052,10.719-6.108,21.36-12.337,31.21-19.808,3.2-2.43,6.22-5.05,7.859-8.875,2.912-6.1,2.144-11.874-1.159-17.628-1.022-1.781-2.835-3.284-2.713-5.645,3.768,1.089,5.708,4.249,7.974,7.039,3.878,13.139,1.566,19.769-9.787,28.68-6.036,4.738-12.494,8.838-18.914,13.006-22.594,12.438-44.76,25.626-67.17,38.386-35.868,20.422-71.611,41.061-107.418,61.588q-34.215,19.614-68.406,39.273a368.572,368.572,0,0,1-37.568,18.481,35.531,35.531,0,0,1-14.107,2.806c-5.161.025-10.322.049-15.484,0-11.98-1.1-22.169-6.84-32.3-12.622q-69.245-39.5-138.408-79.147-38.114-21.951-76.291-43.792-66.727-38.369-133.576-76.526c-19.368-11.1-38.781-22.123-58.077-33.349a63.02,63.02,0,0,0-6.67-3.41,14.683,14.683,0,0,1-4.283-2.567c-3.391-2.787-7.522-4.355-11.16-6.736-.411-.2-.806-.432-1.2-.664-4.676-2.436-8.923-5.621-13.732-7.83-33.717-18.856-66.98-38.5-100.587-57.544-27.089-15.35-53.813-31.35-81.145-46.255-9.38-5.115-18.215-10.954-27.217-16.6C176.228,373.787,172.323,364.8,175,352.99Z" transform="translate(-167.835 -170.853)"/>
    <path class="cls-3" d="M175,352.99c2.6,2.739-.208,5.6.117,8.514,1.164,10.454,8.355,15.955,16.259,20.557,31.643,18.423,63.483,36.505,95.217,54.772,27.743,15.969,55.405,32.081,83.182,47.991,8.766,5.021,17.752,9.658,26.232,15.174a27.107,27.107,0,0,0,14,8h0c2.108,5.587,7.3,5.886,12.011,7,1.376.582,2.254,2.144,3.984,2.031,1.223,2.205,3.219,3.745,4.815,5.628,1.108,1.307,2.993,2.315,2.168,4.566-3.953.971-6.5-1.981-9.416-3.6-9.586-5.32-18.841-11.223-28.511-16.4a11.035,11.035,0,0,1-1.241-.558c-1.157-.634-2.348-1.21-3.554-1.755a11.483,11.483,0,0,1-1.172-.606,36.578,36.578,0,0,0-7.768-3.675c-13.224-6.173-25.2-14.534-37.938-21.558-6.8-3.75-13.616-7.467-20.334-11.359-3.611-2.211-6.994-4.845-11.176-6-8.483-5.388-17.823-9.419-25.514-16.067-7.373-5.74-15.972-9.487-23.755-14.574-3.267-2.135-6.477-4.8-10.742-4.947-8.4-3.473-15.826-8.633-23.436-13.485-8.99-6.931-19.14-11.866-29.1-17.173-9.865-5.257-17.5-13.116-23.693-22.337a21.105,21.105,0,0,1-3.618-14.123A11.156,11.156,0,0,1,175,352.99Z" transform="translate(-167.835 -170.853)"/>
    <path class="cls-4" d="M1044.034,711.023c-4.837,4.392-10.89,6.834-16.436,10.048-31.7,18.364-63.34,36.831-95.364,54.612-14.009,7.778-28.557,14.965-45.237,15.324a30.871,30.871,0,0,1-11.992,0c-17.416.5-32.124-6.9-46.293-15.866-17.392-11.008-35.592-20.626-53.369-30.972-20.072-11.682-40.28-23.13-60.443-34.658q-32.192-18.4-64.4-36.779-32.784-18.811-65.492-37.754c-.484-1.041-1.9-1.826-.905-3.275,1.906-1.1,3.562-.221,5.129.76,16.933,10.6,34.512,20.1,51.888,29.914,15.34,8.661,30.563,17.556,45.993,26.075,14.519,8.016,28.65,16.877,43.131,24.927,13.022,7.239,25.443,15.5,38.765,22.253,12.586,6.379,24.465,14.1,37,20.667a145.363,145.363,0,0,1,17.381,10.541c2.364,1.645,4.979,2.9,7.3,4.618,13.366,5.161,26.1,11.723,41.024,12.626,9.665.585,19.364.8,28.514-1.152,9.531-2.036,19.37-4.688,27.7-10.528,1.559-1.093,3.406-1.333,5.136-1.838,8.153-2.383,14.786-7.447,21.684-12.058,1.97-.907,3.979-1.721,5.977-2.563,6.893-2.939,12.966-7.338,19.428-11.033,17.1-9.776,34.271-19.436,51.25-29.423.621-.3,1.269-.547,1.913-.791,2.967-1.087,4.69-4.051,7.679-5.114A3.892,3.892,0,0,1,1044.034,711.023Z" transform="translate(-167.835 -170.853)"/>
    <path class="cls-5" d="M1216.922,596c-1.424,10.648-8.9,17.335-16.412,23.5-15.327,12.586-33.13,21.386-50.194,31.285-19.377,11.241-38.741,22.51-58.294,33.438-8.956,5.005-17.435,10.913-27.022,14.768-.072-3.4,2.949-3.971,5.012-5.231,4.172-2.547,8.632-4.642,12-8.331,2.651-5.8,2.267-7.141-2.736-9.527-3.1-1.132-5.176.946-7.457,2.368a9.846,9.846,0,0,1-1.166.741c-6.379,2.766-11.908,7.069-18.16,10.068-2.219.916-4.189,2.443-6.666,2.731a2.638,2.638,0,0,1-2.009-.811c-.2-1.39.651-2.148,1.691-2.768,13.543-8.081,27.312-15.77,40.8-23.949,10.205-6.187,20.5-12.256,30.921-18.079,3.167-1.77,6.247-4.621,10.49-3.489,1.237,2.805-.735,3.934-2.708,4.864-13.855,6.525-26.637,14.955-39.949,22.443a13.277,13.277,0,0,1-4.614,2.09c4.519.718,6.793,4.163,9.586,6.865,5.212-3.66,5.585-5.056,2.141-8.058-3.136-2.9.353-3.17,1.533-2.882,7.434,1.817,12.354-2.889,18.07-6.084,3.9-2.18,8.01-4.769,12.946-4.237,3.546-.63,3.663-3.439,3.923-6.154,2.684-3.311,5.261.395,7.895.1,1.915-.676,2.614-2.648,4.063-3.816,1.525-1.267,2.681-3.381,5.233-2.3.617.038.463,1.494.923.934a26.323,26.323,0,0,0,4.6-6.984c2.245-.56,4.277-2.826,6.846-.911,1.912-.05,2.76-1.845,4.239-2.589,1.9-1.033,3.025-3.342,5.536-3.368,3.052.747,3.595-2.147,5.145-3.563,2.026-2.605,3.736-6.183,7.822-2.506.246.222.747-.454,1-.868a7.856,7.856,0,0,0,1.467-5.992,2.121,2.121,0,0,1,.765-1.092c8.569,1.464,13.451-5.093,19.037-9.384,4.657-3.578,10.314-6.66,12.383-12.926C1215.729,595.906,1216.413,595.851,1216.922,596Z" transform="translate(-167.835 -170.853)"/>
    <path class="cls-6" d="M186,343.992l1.014-2.966c6.394-3.764,12.263-8.321,18.743-11.991,19.342-10.955,38.522-22.195,57.791-33.278q53.714-30.9,107.473-61.713c30.27-17.263,60.585-34.453,91.078-51.317A99.107,99.107,0,0,1,486,173.016l2.216,1.7c-7.588,3.357-15.537,5.955-22.494,10.185-8.661,5.266-17.926,9.308-26.611,14.493-10.5,6.268-21.463,11.748-32.106,17.781-7.413,4.2-14.55,8.89-21.944,13.128-11.659,6.682-23.586,12.91-35.111,19.811-11.063,6.624-22.936,11.873-33.726,18.762-10.324,6.591-21.113,12.334-31.66,18.424-18.742,10.821-37.682,21.321-56.44,32.137-10.885,6.277-21.632,12.743-32.216,19.516-5.854,3.746-10.256,8.406-12.284,15.019-1.072,3.5-1.3,7.018.944,10.491,1.309,2.026,3.071,3.96,3.426,6.542-3.54.243-4.994-2.484-6.151-4.913-3.128-6.565-3.541-13.087,1.657-19.021A11.973,11.973,0,0,0,186,343.992Z" transform="translate(-167.835 -170.853)"/>
    <path class="cls-7" d="M326.026,486.881c-10.6-4.7-20.181-11.238-30.3-16.81-5.039-2.775-10.309-5.254-14.739-9.054-5.1-6.878-12.929-9.986-19.91-14.208-3.3-2-6.6-4.182-10.392-5.306a6.46,6.46,0,0,1-.048-2.172c.1-1.468.071-2.939.084-4.409a7.781,7.781,0,0,1,.507-2.915c1.395-2.109,2.528-.917,3.332.435,2.723,4.58,6.675,7.163,11.663,9.131,5.411,2.135,10.368,5.487,15.245,8.787a7.162,7.162,0,0,1,1.266.556c12.788,6.722,25.274,13.966,37.647,21.4,3.3,1.983,6.4,4.21,7.677,8.136C328.217,482.863,328.866,485.428,326.026,486.881Z" transform="translate(-167.835 -170.853)"/>
    <path class="cls-8" d="M383.038,519.895c-18.214-10.3-36.62-20.285-54.075-31.878a2.34,2.34,0,0,1,1.195-1.561c1.759-.959,3.543-1.9,3.51-4.319.126-1.684-.071-3.4.516-5.034.7-1.592,1.981-1.58,3.268-1,3.735,1.674,7.468,3.392,8.974,7.685-.423,2.734,1.042,4.066,3.329,5.314,11.313,6.175,22.41,12.736,33.574,19.175,2.948,1.7,5.389,3.818,6.539,7.15C390.353,521.943,389.978,522.188,383.038,519.895Z" transform="translate(-167.835 -170.853)"/>
    <path class="cls-9" d="M584,632l1.006,2.98q-27.075-15.353-54.145-30.717-26.167-14.928-52.257-29.992-29.356-16.869-58.7-33.755-14.458-8.316-28.91-16.641a1.918,1.918,0,0,1,1.268-2.384,3.285,3.285,0,0,1,2.192.215c20.437,11.08,40.177,23.374,60.429,34.788,17.5,9.863,34.79,20.125,52.386,29.8,14.533,7.989,28.644,16.7,43.276,24.521a228.674,228.674,0,0,1,26.319,16.147c1.344.875,2.8,1.548,4.2,2.337A8.131,8.131,0,0,1,584,632Z" transform="translate(-167.835 -170.853)"/>
    <path class="cls-10" d="M251.974,439.915l-.991,1.107c-2.229.951-3.906-1.092-5.959-1.1a71.2,71.2,0,0,1-14-7.978c-7.843-7.317-17.39-12.087-26.819-16.7-9.994-4.9-18.753-11.274-27.192-18.3-4.341-4.085-6.521-9.314-7.913-14.959,1.371-1.02,2.269-.113,2.738.946,2.915,6.575,8.763,9.658,14.826,12.353,2.469,1.1,3.93,2.36,4.557,5.165.883,3.953,4.986,6.647,8.351,6.133,3.584-2.592,6.668-.112,9.651,1.237a50.086,50.086,0,0,1,8.727,5.646c2.037,1.5,3.949,2.861,6.744,1.372,1.829-.975,2.789.087,2.527,2.124-.063,1.471-1.526,2.715-.679,4.328.3.32.579.639.888.942,6.283,4.725,13.517,7.849,20.078,12.088,1.177.76,1.831-.072,2.654-.558.851.022,1.212.529,1.3,1.305C251.73,436.673,250.968,438.386,251.974,439.915Z" transform="translate(-167.835 -170.853)"/>
    <path class="cls-11" d="M1216.922,596c-3.615,8.911-11.7,13.279-18.881,18.56-1.2.883-2.678,1.515-3.613,2.615-3.032,3.567-6.444,4.1-10.423,1.824-1.271.959-2.637,1.1-3.11-.6a4.128,4.128,0,0,1,1.979-4.7c5.626-3.517,10.079-8.5,15.51-12.252a9.432,9.432,0,0,0,3.278-3.621,106.861,106.861,0,0,0,7.509-10.272,10.867,10.867,0,0,1,1.189-1.752c1.273-1.707,1.669-3.774,2.407-5.7.542-1.417.89-3.37,3.239-2.1l1,4c1.134,1.514-.159,3.473.919,5q0,1.01,0,2.021c-1.137,1.874.274,4.136-.914,6Q1216.983,595.511,1216.922,596Z" transform="translate(-167.835 -170.853)"/>
    <path class="cls-12" d="M200,407c-.181,1.027.423,2.593-1.389,2.6-1.768.006-8.317-6.58-8.6-8.591-.294-2.1-.858-3.479-3.248-4.394-7.056-2.7-13.519-6.345-16.349-14.091-.11-.3-.864-.366-1.316-.541q-.09-2.51-.181-5.019a12.939,12.939,0,0,1,0-6.961l.157,0c1.013-1.932.031-4.665,2.888-6.548a50.266,50.266,0,0,0,10.282,18.553c3.208,3.575,7.683,5.858,10.181,10.123,1.3,2.654,3.992,3.156,6.394,4.113a6.852,6.852,0,0,1,1.2.7C204.561,400.883,204.561,400.883,200,407Z" transform="translate(-167.835 -170.853)"/>
    <path class="cls-13" d="M1181,605.993c6.157-4.415,12.53-8.563,18.412-13.318,6.367-5.147,12.406-10.724,11.64-20.2-.2-2.522-2.493-4.718-1.076-7.437,1.262,2.375,3.6,4.136,3.979,7.014a23.214,23.214,0,0,1-2.085,11.905c-7.784,11.868-19.756,18.907-31.2,26.378-6.62,4.323-13.745,7.965-20.7,11.807-1.866,1.031-3.657,2.463-5.964,1.1-.572-2.51,1.771-2.433,2.989-3.17C1164.93,615.265,1173,610.691,1181,605.993Z" transform="translate(-167.835 -170.853)"/>
    <path class="cls-14" d="M192,393c-1.891-2.787-4.686-4.592-7.183-6.743-6.612-5.7-10.323-13.249-13.195-21.618l-2.542,5.366a14.842,14.842,0,0,1,2.935-11c1.6,3.925,1.372,8.484,3.75,12.087a72.653,72.653,0,0,0,31.8,27.209c7.668,3.408,15.247,7.637,21.434,13.693-2.566,1.509-4.365-.492-6.352-1.444C214.435,406.617,206.841,401.591,199,397h0C196.886,395.282,193.988,394.938,192,393Z" transform="translate(-167.835 -170.853)"/>
    <path class="cls-15" d="M177.015,396.942c5.022,1.34,8.509,5.271,12.28,8.273,6.594,5.249,14.318,8.178,21.509,12.065a145.362,145.362,0,0,1,19.577,12.844c.429.33.44,1.2.645,1.823-7.477-3.129-14.152-7.731-21.2-11.639-7.639-4.237-15.534-8.044-22.544-13.4A54.828,54.828,0,0,1,177.015,396.942Z" transform="translate(-167.835 -170.853)"/>
    <path class="cls-16" d="M245.024,439.924c2.307-1.375,4,.561,5.959,1.1,6.476,1.217,11.861,4.661,16.987,8.528,1.448,1.093,2.672,2.357,4.552,2.769,4.7,1.03,6.987,4.492,8.47,8.7C269.015,453.964,256.628,447.61,245.024,439.924Z" transform="translate(-167.835 -170.853)"/>
    <path class="cls-17" d="M1083,686c-2.8,3.815-7.083,5.606-10.941,7.961-2.479,1.513-5.3,2.527-7.054,5.044a102.867,102.867,0,0,1-20.967,12.022c-1.1-.071-2.31.169-3.054-1a4.07,4.07,0,0,1-1.187-2.776,7.882,7.882,0,0,1,.511-3.648c2.658-1.979,2.515,1.361,3.8,1.993a6.486,6.486,0,0,0,1.1.618c5.945-2.264,10.985-6.135,16.465-9.2,5.639-3.154,11.386-6.187,16.385-10.415C1079.334,685.514,1081.02,683.269,1083,686Z" transform="translate(-167.835 -170.853)"/>
    <path class="cls-18" d="M1202,558c5.777,7.144,9.759,14.662,5,24-2.344.751-3.478,2.959-5.271,4.371-1.355,1.067-2.464,2.907-4.654,1.649.416-3.825,4.548-4.9,5.925-8.02h0c2.33-4.867,3.634-9.8,1-15-1.177-2.117-1.906-4.488-3.716-6.245-1.059-1.028-.684-1.632.708-1.748Z" transform="translate(-167.835 -170.853)"/>
    <path class="cls-19" d="M329.96,487.122l-1,.894-2.937-1.134c1.406-2.144.875-4.56.974-6.887a23.008,23.008,0,0,0,4.289-4.412,2.018,2.018,0,0,1,2.389,1.136,26.363,26.363,0,0,1,.775,5.816C333.794,484.886,331.6,485.729,329.96,487.122Z" transform="translate(-167.835 -170.853)"/>
    <path class="cls-20" d="M392.084,522.13l-1.093,1.748c-2.613-1.405-5.67-1.921-7.954-3.982.261-.193.634-.61.766-.544,5.054,2.525,5.74-.15,5.192-4.323,1.485-.174,2.8-1.271,4.41-.8a4.049,4.049,0,0,1,.37,2.862C393.28,518.8,393.372,520.7,392.084,522.13Z" transform="translate(-167.835 -170.853)"/>
    <path class="cls-21" d="M1211,584c2.49-3.611,1.175-8.163,2.955-11.949.928,1.9,2.3,3.644,2.05,5.946-2.771.231-1.782,2.8-2.55,4.241-.834,1.572-.836,3.574-2.46,4.754A2.379,2.379,0,0,1,1211,584Z" transform="translate(-167.835 -170.853)"/>
    <path class="cls-22" d="M875,791.009l11.992,0A15.742,15.742,0,0,1,875,791.009Z" transform="translate(-167.835 -170.853)"/>
    <path class="cls-22" d="M168.923,370q0,3.481,0,6.962A6.117,6.117,0,0,1,168.923,370Z" transform="translate(-167.835 -170.853)"/>
    <path class="cls-21" d="M1217.011,595.014c.281-2-.754-4.21.915-6C1217.757,591.033,1218.781,593.236,1217.011,595.014Z" transform="translate(-167.835 -170.853)"/>
    <path class="cls-21" d="M1217.925,586.991c-1.533-1.44-.709-3.314-.919-5C1218.643,583.415,1217.83,585.286,1217.925,586.991Z" transform="translate(-167.835 -170.853)"/>
    <path class="cls-23" d="M453.8,320.912c6,.624,8.917-3.959,12.406-7.47.992-1,1.152-2.746,2.666-3.409,3-1.054,5.049,1.054,7.042,2.5,4,2.893,7.591,3.213,11.644.08,2.45-1.894,5.4-3.14,8.108-4.7,1.511-.867,3.075-2.083,5.035-1.046,4.151,1.736,8.065,3.715,13.016,2.412,2.423-.637,5.17.952,4.285,4.652-3.356,5.762-3.332,5.719,3.2,9.364,5.376,3,10.616,6.242,15.858,9.467a6.564,6.564,0,0,0,7.46.139c3.294-1.949,6.66-3.78,9.8-5.97,1.8-1.257,3.632-2.67,3.009-5.245-.578-2.387-2.6-3.3-4.735-3.97-1.428-.449-2.967-.462-4.343-1.108-1.292-.843-2.148-2.253-3.663-2.817-1.212-.97-2.722-1.73-2.626-3.641.231-5.252,3.4-6.917,8.271-5.06A49.54,49.54,0,0,1,559.011,310c2.619-.382,3.177,1.945,4.358,3.388,1.156,1.412,2.028,3.062,3.474,4.23a1.953,1.953,0,0,0,2.713.119,1.559,1.559,0,0,0-.081-2.26c-3.2-3.925-.629-5.707,2.524-7.647,5.074-3.122,10.091-6.05,16.179-2.789,2.638,1.413,5.133-1.4,7.708-.075,2.439-.5,4.526-1.44,5.174-4.166a1.237,1.237,0,0,1,1.666.07c2.127,1.937,4.03,1.964,6.495.139,3.472-2.569,7.113-2.571,11.162-.287,3.671,2.071,7.915,3.587,12.048.379a3.264,3.264,0,0,1,2.212-.838c7.161,1.549,9.276,1.507,17.689-1.191,1.148-.368,1.718-.391,2.508.513,2.361,2.7,5.629,2.2,8.744,2.492,1.8.169,5.081-4.154,5.373,1.485.943-.213,2.181-.119,2.777-.692,2.455-2.363,5.547-2.151,8.523-2.456.791-.081,2.065-.312,2.33.07,4.71,6.807,12.255,1.557,18.062,4.21,2.089.954,5.73-2.742,7.63,1.606a1.074,1.074,0,0,0,.905-.028c4.156-5.94,9.467-1.1,13.736-.677a87.579,87.579,0,0,1,14.99,2.71c2.572.73,4.753,2.925,7.035,4.565,4.562,3.279,9.913,5.351,14.937,7.26,24.78,9.418,46.151,24.951,69.14,37.536,24.019,13.15,47.5,27.275,71.261,40.906,21.457,12.311,42.987,24.494,64.446,36.8s42.847,24.722,64.3,37.034q28.726,16.488,57.519,32.86c13.837,7.909,27.639,15.88,41.51,23.729,3.673,2.079,1.776,3.389-.435,4.638Q1103.33,547.352,1079,561c-2.283.429-2.787-1.511-3.458-2.862-2.217-4.461-5.855-6.109-10.6-5.7-3.286.286-5.285-1.256-5.44-4.371-.105-2.111-.744-3-2.717-3.3a3.557,3.557,0,0,1-2.513-1.528c-2.483-4.288-6.052-6.687-10.663-8.774-3.639-1.648-5.935-2.591-9.624-.474-4.991,2.864-12.833-1.691-13.865-7.576-.141-.806-.042-2.186-.895-2.06-5.606.829-8.036-5.175-13.324-5.757-5.5-.605-9.877-5.195-15.48-6.539-2.328-.558-4.464-1.079-6.815-.493-1.537.383-3.189,1.765-4.675.278-1.707-1.708.749-3.234.617-5.433-3.661,2.215-5.95,1.032-8.6-1.955a7.522,7.522,0,0,0-8.469-2.076c-2.822,1.16-4.719-1.176-6.668-2.512-2.515-1.725-4.545-2.721-6.633.473a2.774,2.774,0,0,1-3.584.894c-1.1-.438-2.212-.927-3.19.218-.863,1.01-1.618,2.3-3.243,1.244-1.572-1.023-2.349-2.512-1.6-4.28,1.486-3.524-1.631-4.268-3.387-5.69-1.857-1.5-3.4-.505-4.576,1.23a3.517,3.517,0,0,1-1.187.781c-2.881.74-4.355-.956-5.419-3.222-1.379-2.938-3.488-4.344-6.806-3.57a3.625,3.625,0,0,1-2.464-.018c-4.327-2.425-8.577-1.366-13.211-1.1-3.322.191-7.295,1.537-10.662.164a45.164,45.164,0,0,1-15.693-10.183c-1.392-1.443-2.1-1.514-3.974-1.136-5.635,1.139-11.079,3.661-17.04,2.81a3.132,3.132,0,0,0-2.611,1.173c-1.223,1.1-2.86,1.14-3.384-.243-1.256-3.322-3.964-4.039-6.863-4.912-1.863-.561-2.36-2.688-3.524-4.068-1.775-2.106-3.444-4.477-6.69-4.383-.948,2.061,2.7,3.185.733,5-1.547,1.424-3.544.705-5.259.287a10.959,10.959,0,0,0-9.338,1.578c-3.906,2.55-9.459-.485-9.686-5.023-.108-2.158-1.034-2.14-2.46-1.867-4.1.785-8.313-.756-12.4.618a3.135,3.135,0,0,1-2.873-.483c-3.828-2.926-8.3-3.257-12.828-3.132a18.152,18.152,0,0,1-10-2.584c-2.156-1.3-3.47-1.171-5.036.756-1.54,1.9-4.05,3.64-6.049,1.791-5.8-5.365-11.865-2.294-17.8-1.112-6.82,1.359-6.543,1.591-6.839,8.845-.347,8.511,1.579,16.9,1.064,25.394-.09,1.492.144,3.054-.472,4.44-1.026,2.309-2.355,2.7-3.82.268-.938-3.427-.594-6.923-.553-10.381.171-14.547-.707-29.117.959-43.634.226-1.966.1-3.979,1.01-5.808,3.407-3.83,8.214-5.554,12.489-8.051,26.315-15.368,52.2-31.451,78.457-46.916,4.725-2.783,9.561-5.371,14.224-8.259.579-.329-.409-.787.058-.311.056.057-.046.186-.325.352-20.6,12.242-41.44,24.068-62.236,35.968-12,6.864-24.521,12.775-36.291,20.056-1.658,1.025-3.389,2.261-5.59,1.4-1.984-1.809-1.7-4.243-1.719-6.53-.081-7.651.008-15.3-.043-22.954-.045-6.679-1.223-8-7.721-8.156q-10.724-.264-21.456,0c-6.155.14-7.836,1.65-7.651,7.837.479,15.977-1.275,31.891-1.091,47.853a15.424,15.424,0,0,1-.654,5.91,2.279,2.279,0,0,1-1.853,1.384c-2.877-1.853-5.548-3.181-7.936.916-.962,1.651-3.051,1.815-4.958,1.247-2.019-.6-1.479-2.166-1.25-3.741-1.875,3.586-8.614,6.5-11.689,4.262-5.136-3.735-8.584-.713-12.427,1.8a2.459,2.459,0,0,1-1.367.208c-3.787-.559-7.623-1.886-11.033,1.287-1.1,1.022-10.616,1.116-12.21.369-5.305-2.488-7.069-2.112-10.645,2.41a2.248,2.248,0,0,1-2.042,1.147c-4.233-.536-8.407,1.785-12.736.007a4.745,4.745,0,0,0-5.474,1.443c-2.026,2.367-3.681,2.078-5.648-.308-2.884-3.5-3.694-3.361-6.35.167-.3.4-.593.8-.86,1.226-4.074,6.439-4.468,6.437-8.6-.086-.784-1.236-1.4-3.06-3.317-1.6-1.95,1.492-.369,2.455.736,3.493,1.206,1.133,1.22,2.262-.266,3.263-4.181,2.816-8.465,1.9-11.237-2.445-1.105,1.12-1.2,2.7-1.869,4.008-.532,1.047-1.132,2.711-2.1,2.6-4.491-.517-8.455,4.258-13.156,1.179-1.349-.883-2.857-.3-4.344.054-3.7.884-7.267,2.46-11.179,2.347a2.208,2.208,0,0,0-1.869.506c-3.995,5.088-9.658,5.58-15.468,5.72-2.885.07-3.793,2.041-3.534,4.39.287,2.6-1.112,3.566-3.086,4.394-4.273,1.792-8.35,3.966-13.339,1.976-2.047-.817-4.593-.245-6.887.947a4.387,4.387,0,0,1,5.491,2.438c.756,1.462,1.837,3.015.714,4.648-.991,1.442-2.654,1.163-4.137.887-8.271-1.539-16.858-.971-24.942-3.748-8.982-3.557-16.84-9.18-25.2-13.863-19.377-10.852-38.549-22.07-57.8-33.14s-38.507-22.145-57.765-33.21Q299.121,417.383,281,407c-2.061.318-3.41-1.145-5-2l0,0c-2.131-1.69-4.827-2.391-7-4l0,0q-.522-.332-.349-.665T269,400c2.847-3.056,4.851-6.513,8.567-9.277,3.61-2.685,7.028-6.871,11.181-9.11,4.762-2.568,8.157-7.064,13.548-8.673,2.888-.862,4.02-4.478,7.034-5.6,1.547-.577,2.928-1.665,4.708-1.175,5.054,1.392,9.2,0,12.108-4.34.813-1.212,1.975-2.445,3.055-2.28,5.149.787,8.961-4.255,14.144-3.01,1.45.348,1.388-.887,1.662-1.85,1.757-6.189,5.435-7.939,11.459-5.388-.231-2.785-.29-5.013,3.756-3.349,2.81,1.156,3.095-2.915,5.6-3.721,3.178-1.024,5.788-3.968,4.33,2.526-.424,1.889.394,4.052,3.139,4.151,2.232-.115,3.137,1.654,4.212,3.074,3.319,4.385,6.849,8.605,10.11,13.036.944,1.283,2.057,3.353,3.875,2.254,1.905-1.151-.174-2.551-.7-3.759-.766-1.751-.73-3.447.865-4.48,5.216-3.379,10.078-8.1,17.245-4.962,1.634.714,3.472,1.251,5.49-.04-4.216-1.374-8.459-2.692-12.751-3.794-5.489-1.409-10.976-2.825-16.405-4.439-1.589-.472-3.851-.174-4.264-2.655-.581-1.588-1.73-2.706-1.367-4.928.626-3.834,1.612-5.115,5.219-2.865.833.52,2.47,1.861,2.918.478,1.6-4.951,4.631-2.79,7.494-1.9,1.851-.525,3.158.67,4.578,1.472,6.8,3.837,13.652,7.586,20.441,11.443,2.218,1.261,4.379,2.109,6.961.633a7.941,7.941,0,0,1-1.972-.673c-8.538-4.5-8.6-5.522-.686-11.094,4.777-3.363,4.918-5.5.584-9.174-.88-.748-1.929-1.342-2.128-2.632-.179-.685-.555-2.165.364-1.7,2.746,1.377,4.473-1.056,6.726-1.236,1.827-1.274,3.126.225,4.516.932,5.049,2.566,9.749,5.739,14.668,8.532,1.477.839,2.913,2.273,4.969.97-.82-2.076-2.815-2.423-4.209-3.485-1.294-.986-3.29-1.606-3.015-3.577.245-1.759,2.043-2.513,3.507-3.281C451.555,320.517,452.671,320.038,453.8,320.912Z" transform="translate(-167.835 -170.853)"/>
    <path class="cls-24" d="M649.366,466.04c.419-5.211,4.878-4.9,8.108-6.641a1.859,1.859,0,0,1,1.395.229c8.032,4.087,9.466,3.749,14.554-3.448.166-.235.561-.308.862-.464,1.193.837.307,1.692.076,2.571-.3,1.137-2.035,2.466-.259,3.4a3.391,3.391,0,0,0,4.466-1.025c.393-.531.657-1.162,1.073-1.672,3.244-3.989,4.243-3.808,6.394,1.124.146,1.715-1.233,2.251-2.357,2.836-10.9,5.672-21.309,12.223-32.1,18.1a12.424,12.424,0,0,1-2.861,1c-2.026.327-4.117.215-6.088.928a13.922,13.922,0,0,1-5.6-.008,22.748,22.748,0,0,0-10.952-.025c-3.689.9-7.75-.374-11.183,1.947a25.132,25.132,0,0,0-1.623,16.645,2.98,2.98,0,0,1,.1,1.458c-4.647,4.973-11.053,7.2-16.772,10.417-16.472,9.27-32.6,19.121-49.075,28.388-2.035,1.145-4.18,1.982-6.23,3-.142.27-.626.258-.627.69.165-.4.543-.594.884-.87,9.244-3.862,17.32-9.8,26.188-14.271,15.267-7.7,29.994-16.379,44.827-24.864a13.473,13.473,0,0,1,5.124-1.86c26.589-.478,53.169-.072,79.748-.231,10.236-.061,20.513.676,30.662-1.368,2.71-.6,1.8-2.8,1.878-4.467.475-10.3-1.691-20.516-.972-30.824a29.075,29.075,0,0,1,.465-4.423c.2-.883.637-2.156,1.918-1.861,4.882,1.123,9.247-.389,13.716-2.111a6.222,6.222,0,0,1,6.464,1.134c5.861,4.686,7.317,4.171,11.2-3.232,4.773,5.486,11.142,5.808,17.645,5.458a4.92,4.92,0,0,1,2.857.45c7.263,4.225,14.991,3.075,22.718,2.036,2.008-.27,3.536.066,2.469,2.615-.535,1.279-2.442,3.17-.532,3.666,2.507.652,5.221,4.364,7.623,1.562,4.13-4.817,8.445-1.963,12.8-1.384.618.082,1.245.095,1.849.139.115-.542.33-1,.215-1.106-1.254-1.188-4.566-1.384-2.754-4.1,1.61-2.411,4.173-1.6,6.159-.054,1.563,1.219,3.44,2.512,4.181,4.207,1.371,3.141,3.147,4.7,6.7,4.411,4-.33,1.61,4.183,3.557,5.181,2.563,1.314.788-4.257,4.772-2.935,7.352,2.441,13.989-1.152,20.688-4.123-.385,3.665,2.554,5.489,5.569,7.281,3.723,2.214,7.412,4.483,11.134,6.7,1.693,1.008,2.735-.463,3.939-1.171.955-.561,2.484-2.258,2.724-1.586,1.789,5.023,4.38,1.5,6.9,1.111,2.869-.445,6.147-1.7,8.438,1.855.665,1.033,2.573.793,3.79.292,4.42-1.817,6.63.468,7.872,4.225.847,2.561,2.482,3.322,4.924,3.026,1.316-4.254,2.972-4.914,6.064-2.432,1.161.932,2.356,1.821,3.513,2.757,1.29,1.045,3.069,2,.562,3.689-1.844,1.245-1.112,2.727.178,3.672,2.359,1.728,1.68-1.077,2.182-1.8.9-1.3,1.654-2.209,3.054-.778,2.02,2.066,3.271,2.23,4.685-.825,1.1-2.383,3.335-3.232,5.541-.716a6.525,6.525,0,0,0,.991,1.1c5.29,3.743,5.294,3.737,9.919-1.571-.976,3.737-.72,5.769,3.341,4.17,2.008-.79,2.794,1.322,3.488,2.806,1.355,2.9,3.04,3.941,5.64,1.292,1.051-1.071,2.3-1.7,3.284-.082.839,1.38.977,2.885-.937,3.707-1.033.444-1.815,1.134-1.005,2.231.684.926,1.414,0,2.138-.3,2.946-1.212,5.685-.866,8.9-.167,7.038,1.528,12.3,7.356,19.756,7.557a3.208,3.208,0,0,1,2.748,1.951c1.131,2.677,3.042,3.221,5.663,2.378s3.255.5,3.012,2.851c-.509,4.925,2.474,7.589,7.056,6.266.862-.249,1.514-.572,2.161.286.688.913,1.37,2.223,2.752,1.425,2.054-1.187-1.121-2.53.21-4.175,2,1.352,4.089,3.935,6.782,1.068a1.044,1.044,0,0,1,.906.125c1.947,6,11.342,3.06,12.408,10.649.425,3.027,4.36,2.986,7.228,3.02-1.461,6.129-1.369,5.5,5.338,6.486,3.555.522,8.258,1.292,9.663,6.315.417,1.49,1.826,2.7,2.78,4.043a2.069,2.069,0,0,1-2,1c-2.5-.384-3.931,1-5,3-11.666,7.647-24.065,14.038-36.115,21.027q-31.027,17.994-62.168,35.793-26.354,15.13-52.744,30.2-28.946,16.615-57.86,33.283c-15.552,8.933-31.153,17.782-46.65,26.81-2.059,1.2-3.5.471-5.057-.424Q789.182,698.881,767,686c-2.368.7-4.209-.656-6.033-1.71-15.816-9.144-31.71-18.155-47.46-27.415-37.288-21.6-74.742-42.907-112.1-64.381-27.844-16.005-55.773-31.865-83.5-48.063a64.569,64.569,0,0,0-6.565-3.483,9.714,9.714,0,0,1-1.155-.7,33.367,33.367,0,0,0-5.819-3.279,9.744,9.744,0,0,1-1.159-.7,32.938,32.938,0,0,0-5.84-3.3,9.638,9.638,0,0,1-1.154-.692,32.3,32.3,0,0,0-5.753-3.266,9.176,9.176,0,0,1-1.127-.68,21.922,21.922,0,0,0-4.441-2.625c-.787-.382-1.559-.789-2.307-1.245-1.42-1.051-3-1.846-4.485-2.8-.57-.422-.728-1.115-1.1-1.67q-7.589-4.538-15.179-9.076c-1.387-.829-3.135-1.183-3.823-2.924,8.3.128,16.493,1.384,24.7,2.433,1.283.164,2.84,1.193,3.644-.128.865-1.422-.74-2.717-1.25-4.071-.575-1.527-1.55-1.822-3.159-1.388-1.344.363-2.644,1.54-4.283.785,3.073-4.315,7.039-5.607,11.745-3.909,2.37.855,12-1.188,13.435-2.867.184-.215.42-.564.363-.78-1.953-7.355,2.187-7.907,7.768-7.123,1.743.245,3.792.449,4.118-2.3.16-1.354,1.191-1.661,2.12-.775,2.468,2.352,3.6,1.78,3.909-1.488.119-1.28,1.021-2.434,2.285-2.176,5.17,1.055,9.629-.99,14.153-2.88,1.238-.517,2.3.034,3.295.629,2.412,1.44,4.9,3.894,6.4-.956a1.028,1.028,0,0,1,1.664-.384c4.792,3.5,5.47-.412,6.613-3.613a22.241,22.241,0,0,1,1.648-3.571,1.285,1.285,0,0,1,1.659-.726,1.475,1.475,0,0,1,.892,1.6c-.445,4.944,1.666,5.709,5.446,3.149,1.392-.942,2.974.835,4.269-.733a5.9,5.9,0,0,0-.627-1.156c-.982-1.141-3.934.237-3.554-2.473.332-2.371,2.7-3.4,4.437-4.435,1.581-.942,1.866,1.1,2.451,2.247,3.338,6.563,3.365,6.55,7.427,1.023,4.664-6.346,4.709-6.38,9.5-.2.976,1.258,2.09,1.636,2.629.278,1.93-4.86,5.755-2.985,8.92-2.537,2.433.344,4.639,1.778,6.8-.753.953-1.116,2.135.218,3.171.569.814.275,2.253.418,2.046-.272-1.676-5.586,3.255-3.356,5.213-4.544,3.018-1.831,5.228-.5,7.261,1.881a1.605,1.605,0,0,0,2.614-.163c1.363-2.081,2.583-2.411,4.042-.128a2.127,2.127,0,0,0,1.2.714c3.494-3.731,8.977-2.538,13.874-5.041.883.229-.422,2.647,2.519,4.3.315.739-.544.285-1.071-.64C648.8,466.388,648.889,467.907,649.366,466.04Z" transform="translate(-167.835 -170.853)"/>
    <path class="cls-25" d="M871,683l4-3c3.63.07,6.47-2.241,9.605-3.488,4.677-1.86,9.189-3.453,14.338-3.276,4.051.139,7.563-2.491,11.521-3.1,3.853-.59,7.848-1.355,9.2,3.905,1.855-.266,2.21-2.184,3.65-2.662,2.031-.674,4.158-1.909,6.1-.116,2.5,2.313,4.4,5.5,8.584,4.838.383-.061,1.021.579,1,1-.2,4.5,4.21,5.6,6.219,8.667,2.143-2.408,4.032-6.145,7.57-1.652,1.144,1.452,1.192-.274,1.488-.673.954-1.287,1.965-2.421,3.708-1.629,1.592.724,1.809,2.146,1.681,3.789-.475,6.067,1.817,7.062,5.95,10.954,5.712,5.379,9.939,2.335,14.69-.056,8.738-4.4,17.672-8.328,26.192-13.289,5.81-3.383,11.774-7,18.427-9.455,6.767-2.5,13.338-6.582,19.735-10.43,4.988-3,9.843-6.206,15.542-7.8,4.437-1.239,7.725-4.524,11.62-6.721,12.578-7.093,25.85-12.853,38.507-19.8a7.532,7.532,0,0,1,3.83-1c1.363.036,2.739.192,3.3,1.714.547,1.5-.212,2.587-1.365,3.423A53.928,53.928,0,0,1,1111.4,636q-20.256,11.744-40.212,23.99a7.465,7.465,0,0,1-1.2.732,69.5,69.5,0,0,0-16.043,9.379,6.71,6.71,0,0,1-1.191.7,47.175,47.175,0,0,0-12.9,7.356,7.154,7.154,0,0,1-1.177.708c-5.195,2.726-10.81,4.732-15.171,8.886a14.391,14.391,0,0,1-5.524,3.044c-6.422,2.374-11.879,6.542-17.851,9.75-4.5,2.415-9.191,4.608-13.233,7.833a10.526,10.526,0,0,1-1.711,1.172,19.143,19.143,0,0,0-5.356,2.7,9.644,9.644,0,0,1-1.144.724c-5.432,2.726-10.526,6.033-15.724,9.161a7.9,7.9,0,0,1-1.2.662,23.273,23.273,0,0,0-5.861,3.358,7.815,7.815,0,0,1-1.2.654,22.638,22.638,0,0,0-4.759,2.5c-.377.249-.771.468-1.167.683a56.169,56.169,0,0,0-5.1,3.3,7.764,7.764,0,0,1-1.219.639c-5.385,2.564-10.836,5.017-15.134,9.348-11.062,6.6-22.252,12.891-35.08,15.509a42.32,42.32,0,0,1-7.878.521c-18.847,1.519-35.046-5.659-50.929-14.772q-81.039-46.5-162.065-93.015c-51.157-29.3-102.387-58.48-153.41-88.014-24.936-14.434-50.194-28.3-75-42.964a21.09,21.09,0,0,0-3.183-1.439c-16.179-8.557-32.133-17.5-47.192-27.946a5.966,5.966,0,0,0-3.821-2.29,8.129,8.129,0,0,1-3.392-2.009,6.045,6.045,0,0,0-3.877-2.046c-3.611-1.486-7.172-3.057-10.04-5.818a5.883,5.883,0,0,0-3.867-2.154A22.635,22.635,0,0,1,359.458,472a5.005,5.005,0,0,0-3.829-1.965,5.368,5.368,0,0,1-3.3-2.034,4.478,4.478,0,0,0-3.691-1.979,5.268,5.268,0,0,1-3.29-2.028,5.856,5.856,0,0,0-3.035-2.2,6.536,6.536,0,0,1-1.126-.65,25.746,25.746,0,0,0-6.568-4.063,9.075,9.075,0,0,1-1.1-.657,11.281,11.281,0,0,0-3.348-1.715,7.359,7.359,0,0,1-1.157-.612,50.825,50.825,0,0,0-8.553-5.067,9.516,9.516,0,0,1-1.148-.694,33.963,33.963,0,0,0-6.414-3.589,10.031,10.031,0,0,1-1.217-.74c-.277-.192-.576-.352-.828-.564-1.516-1.275-4.964-2-3.493-4.4,1.429-2.339,4.173-.459,6.265.551,6.745,3.256,13.295,6.888,19.943,10.329q27.272,14.112,54.6,28.122c22.222,11.367,44.041,23.507,66.458,34.5,15.364,7.533,30.726,15.1,45.8,23.181,13.913,7.462,27.919,14.8,41.5,22.833,8.131,4.806,16.368,9.489,24.346,14.611,6.5,4.171,13.7,7.469,20.651,10.976,5.947,3,11.586,6.467,17.354,9.714q37.348,21.028,74.427,42.531c11.509,6.646,23.055,13.226,34.569,19.862,16.942,9.759,33.822,19.628,50.907,29.138A3.775,3.775,0,0,1,766,687.007c13.352,8.613,27.669,15.62,40.981,24.234,6.08,3.934,10.094,2.486,15.509-.77C836.109,702.285,850.136,694.779,864,687A18.2,18.2,0,0,0,871,683Z" transform="translate(-167.835 -170.853)"/>
    <path class="cls-24" d="M1070,660a8.029,8.029,0,0,1,3.591-3.309q20.309-11.828,40.55-23.772c1.158-.682,3.411-.992,2.4-3.019-.79-1.577-2.656-.995-4.055-.546-3.651,1.173-6.889,3.36-10.13,5.216-11.54,6.608-24.372,10.815-35.09,18.894a17.507,17.507,0,0,1-6.227,3.019c-7.8,2.02-13.82,7.465-20.926,10.806-4.638,2.181-9.008,6.268-13.305,7.209-7.146,1.565-11.692,7.384-18.589,8.755-1.892.376-3.3,2.728-5.187,3.658-9.617,4.744-19.3,9.347-29,13.937-2.825,1.338-5.458,1.666-6.757-2.157-.182-.535-.935-1.339-1.3-1.279-5.958.969-5.68-4.961-8.363-7.561-1.136-1.1-.321-2.449.545-3.58,1.082-1.412,1.185-2.98-.591-3.721-1.739-.725-2.309.789-2.51,2.172-.232,1.594-.641,3.277-2.531,3.033-2.384-.308-.481-2.078-.674-3.162a1.63,1.63,0,0,0-1.652-1.507,2.5,2.5,0,0,0-2.6,1.116c-.692,1.3-1.181,2.7-1.94,4.487-1.156-1.662-2.02-3.037-3.023-4.3-.763-.963-1.379-2.511-3.128-1.383-.665.429-1.411,1.186-2.115.18-.572-.818-.128-1.587.569-2.151,1.378-1.113.959-2.32.219-3.538-1.105-1.818-1.97-.029-2.861.271-3.592,1.207-3.651-2.743-5.5-4.012-3.4-2.335-5.781-2.779-7.744.7-.689,1.22-1.127,2.573-2.757,2.288-1.549-.27-1.341-1.739-1.3-2.851.095-2.619-1.5-2.88-3.561-2.915-3.927-.066-7.289,1.921-10.915,2.745-4.554,1.034-9.878.354-13.937,1.872-3.631,1.358-7.656,2.468-11.139,4.484-1.25.724-2.333,1.366-3.462-.072q27.442-15.654,54.882-31.312,28.289-16.18,56.549-32.412,28.721-16.43,57.474-32.8c7.349-4.187,14.729-8.319,22.1-12.476a4,4,0,0,0,2.829-.784c5.364-4.777,11.871-4.368,17.808-2.574,4.018,1.214,7.244,4.993,10.13,8.323a9.064,9.064,0,0,0,4.246,3.064c6.13,2.023,12.441,3.448,18.011,7.135,4.076,2.7,9.35,1.9,14.03,2.957,5.411,1.218,8.639,4.61,10.977,8.539,2.162,3.634,3.74,2.808,6.718,1.724,10.147-3.693,19.344-9.6,29.772-12.594.479-.138.933-.376,1.421-.473,2.278-.45,5.088-1.378,6.245,1.23.988,2.229-1.765,3.175-3.186,4.451-5.811,6.22-13.845,9.346-20.331,14.625a16.48,16.48,0,0,1-5.366,3.339,38.531,38.531,0,0,0-13.22,7.135,9.678,9.678,0,0,1-1.145.73,38.126,38.126,0,0,0-5.784,3.171,9.341,9.341,0,0,1-1.084.681c-1.106.561-2.26,1.03-3.328,1.673-.344.225-.7.426-1.059.626a17.655,17.655,0,0,0-3.385,2.691,7.053,7.053,0,0,1-2.285,1.251c-2.078.347-3.535,1.754-5.09,3-9.014,7.174-19.621,11.691-29.371,17.637-5.658,3.451-11.457,6.668-17.217,9.945C1074.432,659.583,1072.577,661.505,1070,660Z" transform="translate(-167.835 -170.853)"/>
    <path class="cls-23" d="M1185,592c.341-1.735,3.658-2.608,2.165-4.413-1.192-1.442-3.673-.611-5.611.134a164.405,164.405,0,0,0-18.542,8.178c-4.758,2.536-10.441,3.768-15.413,6.353-1.948,1.013-3.485.214-3.944-1.587-2.249-8.826-9.661-10.312-16.829-11.511-4.237-.709-8.262-.735-11.808-3.914-1.791-1.606-4.865-1.954-7.439-2.481-8.324-1.706-14.141-6.973-19.343-13.2-.313-.375-.693-1.08-.967-1.045-5.823.754-12.21-2.979-17.488,2.174-1.129,1.1-2.376,1.994-3.78.308q21.509-12.5,43.024-25c7.477-4.322,15.006-8.552,22.53-12.791,3.943-2.222.9-3.3-.786-4.276-11.048-6.433-22.146-12.781-33.232-19.15q-53.775-30.894-107.553-61.781c-5.45-3.13-10.911-6.239-16.627-9.507,1.992-2.2,4.784-2.179,6.013-1.026,2.9,2.721,6.608,4.244,9.854,5.757,6.028,2.81,10.691,7.753,17.061,9.877a44.258,44.258,0,0,1,7.865,4.086c7.572,4.386,14.889,9.283,22.731,13.107,4.607,2.247,9.027,4.942,13.448,7.369,9.53,5.232,18.738,11.083,28.5,15.964,1.829.914,3.22,2.815,4.637,4.416,1.89,2.135,4.029,3.386,6.982,2.976,1.648-.229,2.65,1.05,3.938,1.777,8.482,4.79,16.467,10.369,25.394,14.492a131.5,131.5,0,0,1,22.67,13.525c3.194,2.353,6.823,3.724,10.073,5.751,6.23,3.887,12.689,7.576,19.14,11.074,5.58,3.026,10.462,7.213,16.414,9.573,3.566,1.414,4.623,5.292,6.265,8.126C1200.359,575.732,1196.162,586.938,1185,592Z" transform="translate(-167.835 -170.853)"/>
    <path class="cls-23" d="M713,657c-24.16-13.9-48.208-28.008-72.532-41.619-10.7-5.986-20.9-12.855-32.175-17.862-4.623-2.053-8.613-5.483-13.088-7.926-7.792-4.254-15.526-8.735-23.693-12.138-5.173-2.156-9.252-5.73-14.024-8.345-13.284-7.279-26.138-15.357-39.538-22.405-15.339-8.069-30.395-16.66-46.183-23.946-8.078-3.728-15.848-8.486-23.938-12.334-12.875-6.124-25.231-13.2-37.947-19.609-12.115-6.1-24.121-12.424-36.171-18.655q-22.068-11.411-44.13-22.833c-5.4-2.8-10.809-5.573-16.174-8.433-1.735-.925-3.267-2.35-5.793-1.526,1.051,2.556,4.585,2.12,5.389,4.637-2.142,1.409-3.859-.057-5.5-1-31.679-18.227-63.459-36.277-95.124-54.528a8.792,8.792,0,0,1-1.591-1.187c-1.136-1.3-2.187-2.707-3.875-3.388a2.734,2.734,0,0,1-.91-.9c-.473-1.473-2.946-2.631-1.446-4.3,1.517-1.692,3.4-.209,4.984.628,13.915,7.366,28.409,13.474,42.832,19.735a37.455,37.455,0,0,1,5.692,3c8.362,5.508,18.554,6.577,27.192,11.7,12.337,7.316,25.383,13.424,37.947,20.371q38.21,21.128,76.211,42.633c24.98,14.171,49.81,28.607,74.694,42.945.964.555,1.767,1.778,2.9.29l1,.993c1.5,1.289,3.464,1.793,5,3.007a2.064,2.064,0,0,1,2,.993c1.5,1.281,3.456,1.806,5,3.007l0,0c2.129,1.694,4.826,2.394,7,4l0,0c2.129,1.694,4.826,2.394,7,4l0,0c2.129,1.694,4.826,2.394,7,4l0,0c2.245,1.208,4.156,3.2,7,3q22.383,12.948,44.769,25.891,29.084,16.765,58.2,33.473C640.1,613.33,659.283,624.206,678.4,635.2c11.912,6.853,23.738,13.855,35.6,20.79C713.94,656.6,713.372,656.706,713,657Z" transform="translate(-167.835 -170.853)"/>
    <path class="cls-26" d="M1159,609l5-3c6.553-3.288,12.274-8.011,19-11,4.507-.462,6.648-5.248,10.99-6.015,1.006.331,1.624-.424,2.362-.845L1197,588c2.935-.262,4.058-2.943,6-4.523,1.187-.966,2.019-2.72,4-1.477-2.638,5.731-7.757,8.946-12.646,12.353-18.552,12.928-38.7,23.174-58.187,34.536-21.639,12.618-43.4,25.03-65.14,37.472-19.729,11.29-39.517,22.477-59.255,33.751-19.88,11.355-39.635,22.933-59.625,34.092-16.348,9.126-32.1,19.508-50.292,24.943-1.257.376-2.568.57-3.854.848-3.387-.923-6.654.287-9.966.6a14.172,14.172,0,0,1-4.418.222c-.773-.169-1.719-.449-1.548-1.524.158-1,1.418-.635,1.926-1.28,10.659.44,19.988-3.661,29.123-8.479,4.657-2.457,9.579-4.422,13.882-7.531,5.345-2.981,10.36-6.547,16-9a44.644,44.644,0,0,0,6-4h0a42.717,42.717,0,0,0,6-3h0c2.243-1.491,4.683-2.638,7-4h0c5.726-3.235,11.44-6.491,17-10l0,0c1.955-1.089,3.95-2.1,5.994-3l1-1c10.693-5.953,21.229-12.185,32-18l5-3c5.146-3.332,10.62-6.083,16-9,4.292-3.322,9.266-5.451,14-8v0a137.174,137.174,0,0,1,17-10c8.856-3.295,16.345-9.1,24.641-13.439,7.117-3.719,13.894-8.091,21.033-11.763,2.662-1.37,4.08-4.47,7.326-4.8a18.284,18.284,0,0,1,5-3l2-1.01c1.419-.881,2.611-2.068,4-2.988h0c1.325-.684,2.891-.885,4-2h0c2.174-1.613,4.871-2.31,7-4h0C1149.434,613.924,1154.346,611.685,1159,609Z" transform="translate(-167.835 -170.853)"/>
    <path class="cls-27" d="M206,383q.5,0,.993,0c1.394.921,2.588,2.111,4.007,3,12.024,7.01,24.016,14.076,36.079,21.017q29.771,17.13,59.612,34.138c2.014,1.154,3.928,2.51,6.307,2.846v0c2.131,1.689,4.83,2.383,7,4h0c3.337,2,6.74,3.879,10,6h0c1.289.756,2.869.929,4,2h0c2.589,1.793,5.624,2.87,8,5,1.287.76,2.872.926,4,2.01A3.03,3.03,0,0,0,349,465c1.285.765,2.877.921,4,2.009A3.031,3.031,0,0,0,356,469c1.287.762,2.879.919,4,2.009,2.281,2.282,5.163,3.6,8,4.989,1.285.765,2.877.921,4,2.009,2.838,2.824,6.556,4.18,10,5.992,1.286.764,2.877.919,4,2.01l3,1.99c1.286.763,2.875.922,4,2.006,11.243,8.347,23.8,14.555,35.7,21.819,3.66,2.233,7.527,4.126,11.3,6.174-1.38,3.248-3.343,1.36-4.964.422-12.931-7.479-25.931-14.836-38.908-22.234-2.249-1.282-4.229-3.306-7.129-3.18-8.484-3.43-15.994-8.665-23.936-13.083-18.252-10.153-36.295-20.683-54.411-31.08q-53.919-30.945-107.843-61.88c-7.478-4.275-15.386-7.869-20.8-14.974.7-2.576,2.094-2.742,3.867-1.016a14.092,14.092,0,0,0,5.911,3.533A1.918,1.918,0,0,1,193,375C196.763,378.593,201.369,380.816,206,383Z" transform="translate(-167.835 -170.853)"/>
    <path class="cls-28" d="M541.955,310.15l2.811,2.936c1.414.538.311,4,3.233,2.784,4.443.464,9.812.312,10.945,5.724,1.074,5.131-4.476,6.149-7.491,8.722-7.094,6.053-13.747,5.824-21.037,0-4.49-3.588-9.782-6.243-14.912-8.937-3.657-1.921-4.254-3.29-.185-5.264a14.75,14.75,0,0,0,2.68-2.18c3.146-.193,5.184-2.668,7.866-3.841C531.278,307.722,536.6,307.344,541.955,310.15Z" transform="translate(-167.835 -170.853)"/>
    <path class="cls-29" d="M489.463,283.09c4.833,5.1,9.467,5.424,14.975,1.41,2.465-1.8,5.507-5.683,9.869-1.1l-11.983,7.044c6.539,5.814,7.111,5.893,13.979,1.973,3.027-1.728,6.145-3.316,9.048-5.231,2.424-1.6,4.29-1.113,6.739,1.2-7.231,4.148-14.186,8.127-21.127,12.129a2.529,2.529,0,0,1-2.8-.105c-9.292-5.434-18.6-10.844-28.523-16.623,7.042-4.049,13.367-7.657,19.658-11.321,1.827-1.065,3.951-1.26,4.9.485,1.21,2.225-1.552,2.371-2.722,3.1C497.551,278.5,493.5,280.75,489.463,283.09Z" transform="translate(-167.835 -170.853)"/>
    <path class="cls-28" d="M595.886,304.963c-3.493,2.509-7.077,1.808-10.8.52-3.357-1.16-14.223,2.666-15.972,5.575-1.153,1.919,1.112,2.768,1.708,4.152.5,1.155,2.847,2.111.519,3.525-1.608.978-3.389,2.545-5.233.195-2.347-2.991-4.727-5.956-7.093-8.932-1.822-3.561-4.571-6.448-6.924-9.625-.907-1.224-3.1-2.741-2.032-3.962,1.388-1.588,3.663-3.724,5.882-3.114,13.159,3.615,26.568,6.327,39.48,10.829C595.642,304.2,595.732,304.675,595.886,304.963Z" transform="translate(-167.835 -170.853)"/>
    <path class="cls-28" d="M380.962,343.141,417.6,353.449c-1.992,3.546-5.163,3.573-8.047,2.091-7.35-3.776-12.264,1.322-17.573,4.555-2.582,1.572.226,3.01,1.031,4.369.743,1.256,3.026,2.316.281,3.815-1.695.925-3.08,2.329-4.966-.211-4.84-6.516-10-12.791-15.037-19.163-2.407-3.194.1-4.14,2.352-5.34C377.4,342.627,379.166,342.982,380.962,343.141Z" transform="translate(-167.835 -170.853)"/>
    <path class="cls-28" d="M423,323.9q1.069.634,2.137,1.268c6.285,3.747,6.386,7.436.316,11.552-6.89,4.673-6.89,4.674.273,9.036.845.514,1.7,1,2.8,1.648-2.13,2.435-4.12,3.391-7.179,1.574-8.642-5.132-17.41-10.05-26.127-15.053,3.357-5.82,17.362-11.9,24.4-10.6C420.752,323.536,421.879,323.713,423,323.9Z" transform="translate(-167.835 -170.853)"/>
    <path class="cls-30" d="M453.8,320.912a17.15,17.15,0,0,0-6.562,3.832,71.429,71.429,0,0,1,6.145,3.892c1.149.9,4.392.826,2.7,3.411-1.261,1.928-3.505,2.049-5.731.588-3.61-2.37-7.353-4.545-11.1-6.7-3.009-1.733-6.1-3.318-9.16-4.969l-6.462-4.7c8.221-4.639,15.155-11.079,25.3-9.4a16.253,16.253,0,0,1,5.176,1.663c5.884,3.176,6.247,5.914,1.411,10.6C454.926,319.7,454.37,320.315,453.8,320.912Z" transform="translate(-167.835 -170.853)"/>
    <path class="cls-31" d="M602.726,300.868l-1.666-.07c-8.919-6.28-18.747-11.074-28.274-17.046,2.25-2.681,4.318-3.251,7.286-1.446,6.371,3.875,12.969,7.376,19.333,11.26,2.417,1.475,4.324,1.75,6.783.114,3.294-2.192,6.992-3.783,10.25-6.019,2.706-1.857,4.8-1.74,7.127.846Z" transform="translate(-167.835 -170.853)"/>
    <path class="cls-32" d="M500.7,306.867c-4.912,2.716-9.921,5.273-14.7,8.206-2.851,1.75-5.167,2.16-8.08.063-2.793-2.012-6.016-3.426-9.05-5.1-4.226-2.613-8.5-5.149-12.644-7.888-1.143-.756-4.022-.94-2.7-3.079,1.072-1.738,3.33-2.519,5.7-1.028,4.5,2.827,9.493,4.988,13.618,8.261,6.64,5.268,12.73,5.881,19.291.144,1.714-1.5,4.026-2.295,6-3.519,1.918-1.192,3.45.031,4.314,1.18C503.6,305.64,501.053,305.752,500.7,306.867Z" transform="translate(-167.835 -170.853)"/>
    <path class="cls-33" d="M600.086,267.938c2.854-3.034,5.151-2.985,8.029-1.2,6.074,3.767,12.46,7.033,18.521,10.819,2.822,1.763,5.039,1.694,7.723-.1,3.031-2.026,6.4-3.537,9.457-5.533,2.605-1.7,4.828-1.967,7.191.9-6.482,3.737-12.936,7.435-19.36,11.183a3.317,3.317,0,0,1-3.706,0C618.766,278.677,609.563,273.4,600.086,267.938Z" transform="translate(-167.835 -170.853)"/>
    <path class="cls-34" d="M340.815,287.777A3.64,3.64,0,0,1,343.032,284c12.872-7.279,25.719-14.6,38.631-21.812,3.38-1.887,6.816-1.877,10.005.882-8.9-2.239-14.369,4.554-20.968,7.934C360.6,276.179,350.871,282.085,340.815,287.777Z" transform="translate(-167.835 -170.853)"/>
    <path class="cls-35" d="M191.994,375c-3.17,1.483-4.476-1.448-6.219-2.878-1.47-1.207-2.428-1.882-3.768-.134-7.5-10.979-6.258-19.726,3.989-28,.99.952-.023,1.432-.5,1.995-7.1,8.36-6.126,18.117,2.5,25.021l1,1C190.133,372.865,191.436,373.562,191.994,375Z" transform="translate(-167.835 -170.853)"/>
    <path class="cls-23" d="M970.185,436.612q-11.749-6.652-23.5-13.3c-.724-.41-1.572-.837-1.185-1.84a1.684,1.684,0,0,1,2.423-.972c1.5.585,3.291.663,4.082,2.469a3.382,3.382,0,0,0,2.635,1.994C961.453,426.376,966.94,429.789,970.185,436.612Z" transform="translate(-167.835 -170.853)"/>
    <path class="cls-36" d="M713,657l1-1.007L767,686l-1,1.007Z" transform="translate(-167.835 -170.853)"/>
    <path class="cls-23" d="M940.962,419.776l-22.849-12.89C923.4,404.962,939.011,413.627,940.962,419.776Z" transform="translate(-167.835 -170.853)"/>
    <path class="cls-23" d="M1183,595c-5.861,4.483-11.877,8.7-19,11,6.391-5.581,13.934-9.433,21-14Z" transform="translate(-167.835 -170.853)"/>
    <path class="cls-23" d="M902.642,397.79c6.211-2.2,8.982,1.784,12.42,3.989a1.369,1.369,0,0,1,.257,2.139,1.253,1.253,0,0,1-1.757.283C910.205,402.263,906.874,400.282,902.642,397.79Z" transform="translate(-167.835 -170.853)"/>
    <path class="cls-23" d="M891.177,391.124c4.824-.9,7.308,1.326,10.068,2.365.953.359.932,1.714.373,2.621-.591.957-1.48.462-2.157.064C897.087,394.777,894.753,393.313,891.177,391.124Z" transform="translate(-167.835 -170.853)"/>
    <path class="cls-26" d="M1204,565c3.309,5.244,2.478,10.21-1,15C1204.26,575.062,1205.481,570.121,1204,565Z" transform="translate(-167.835 -170.853)"/>
    <path class="cls-23" d="M1072,565c.4-5.409.7-5.587,5-3C1075.517,563.305,1074.134,564.779,1072,565Z" transform="translate(-167.835 -170.853)"/>
    <path class="cls-26" d="M1203,580c-.538,3.763-4.589,4.892-6,8a1.352,1.352,0,0,1-2.01-.008A38.19,38.19,0,0,1,1203,580Z" transform="translate(-167.835 -170.853)"/>
    <path class="cls-24" d="M871,683c-1.224,3.274-4.083,3.688-7,4A20.53,20.53,0,0,1,871,683Z" transform="translate(-167.835 -170.853)"/>
    <path class="cls-37" d="M262,397c-2.52-.294-4.382-1.858-6.316-3.282,2.508.315,4.886.883,6.316,3.28Z" transform="translate(-167.835 -170.853)"/>
    <path class="cls-37" d="M269,401c2.684.722,5.346,1.484,7,4C273.315,404.284,270.654,403.52,269,401Z" transform="translate(-167.835 -170.853)"/>
    <path class="cls-37" d="M269,400q0,.5,0,1c-2.686-.717-5.346-1.479-7-4v0C264.624,397.323,266.646,399.049,269,400Z" transform="translate(-167.835 -170.853)"/>
    <path class="cls-18" d="M1194.99,587.992,1197,588c-.749,1.21-1.4,2.743-3.067,2.59-.735-.067,0-1.042.057-1.6Z" transform="translate(-167.835 -170.853)"/>
    <path class="cls-37" d="M276,405l5,2C278.408,408.644,277.277,406.637,276,405Z" transform="translate(-167.835 -170.853)"/>
    <path class="cls-6" d="M191.994,375a6.381,6.381,0,0,1-3-3c2.034.064,3.126,1.388,4.005,3Z" transform="translate(-167.835 -170.853)"/>
    <path class="cls-38" d="M433,527c-1.716-3.76-7.042-4.984-7-9.975,18.056,10.237,36.138,20.426,54.16,30.722,19.317,11.035,38.571,22.183,57.866,33.258q33.479,19.216,66.985,38.385c22.206,12.682,44.467,25.266,66.665,37.961,18.16,10.385,36.255,20.886,54.4,31.3q26.563,15.256,53.16,30.453c19.88,11.391,39.716,22.86,59.652,34.153,10.1,5.719,20.16,11.659,32.12,12.74a1,1,0,0,1-.3,1.44c-2.579,1.333-5.186.241-7.692-.145q-7.485-1.153-14.9-2.758c-5.176-3.484-11.554-4.18-16.922-7.238-12.247-6.977-24.258-14.393-36.638-21.1-19.853-10.758-38.8-23.058-58.645-33.823-8.126-4.407-15.958-9.382-24.328-13.37a8.531,8.531,0,0,1-1.3-.642c-11.332-6.713-21.831-14.9-34.427-19.379a8.769,8.769,0,0,1-3.809-3.09c-5.784-4.816-12.8-7.389-19.412-10.706-10.278-6.719-21.405-12-31.667-18.772-4.132-2.725-8.694-4.773-13-7.249C592.7,620.407,577.807,611,562.24,602.806c-9.127-4.8-18.162-9.764-26.8-15.341-8.954-5.781-18.6-10.292-27.648-15.91-8.713-5.407-17.554-10.713-26.646-15.546-9.547-5.076-19.079-10.211-28.089-16.219a22.357,22.357,0,0,0-6.34-2.843c-3.987-2.177-7.712-4.787-11.606-7.119C434.072,529.205,432.605,528.755,433,527Z" transform="translate(-167.835 -170.853)"/>
    <path class="cls-39" d="M389,493.008c-1.071-3.247,1-1.494,1.823-1.042,6.533,3.591,13.049,7.212,19.514,10.924,8.9,5.112,17.757,10.307,26.625,15.48,1.135.662,2.158.847,3.038-.369,8.16,3.363,15.376,8.453,23.029,12.731,20.142,11.257,40.1,22.847,60.109,34.338q31.1,17.855,62.165,35.762,27.224,15.6,54.514,31.091,28.336,16.166,56.658,32.359c19.29,11.078,38.514,22.269,57.8,33.357,29.215,16.8,58.382,33.684,87.719,50.267,12.948,7.319,26.875,11.429,42,10.111-.787,1.018-2.161,2.339.7,1.945,4.054-.56,8.082-1.311,12.133-1.9,1.654-.24,3.335-.261,1.177,1.932a77.513,77.513,0,0,1-48.665-3.854c-13.551-5.62-25.723-13.806-38.465-20.92-17.681-9.871-35.171-20.084-52.735-30.163Q729.2,688.452,700.272,671.83c-17.431-9.981-34.908-19.881-52.336-29.868q-32.4-18.568-64.766-37.209c-17.43-9.983-34.914-19.873-52.353-29.841-16.717-9.556-33.4-19.18-50.111-28.739-18.157-10.383-36.432-20.563-54.476-31.139C413.792,507.742,400.831,501.326,389,493.008Z" transform="translate(-167.835 -170.853)"/>
    <path class="cls-40" d="M871,767v-1c7.451-.457,14.892.447,22.4-.735,6.765-1.066,12.581-4.3,18.442-7.056,20.434-9.6,39.768-21.3,59.281-32.637,19.661-11.427,39.539-22.479,59.278-33.773q30.925-17.695,61.767-35.536,28.717-16.534,57.427-33.079c7.769-4.479,15.508-9.011,23.291-13.466,2.586-1.481,5.1-3.151,8.115-3.726-5.938,5.316-13.408,8.184-19.977,12.491-2.327,1.526-4.68,3.012-7.022,4.516a2.336,2.336,0,0,1-1.115,1.61,31.724,31.724,0,0,0-6.22,3.694,7.5,7.5,0,0,1-1.2.628,74.654,74.654,0,0,0-14.85,9.283c-7.5,5.258-15.73,9.27-23.6,13.884-16.311,9.558-32.612,19.136-49.034,28.5-14.138,8.065-28.48,15.822-42.348,24.3-14,8.557-28.331,16.567-42.524,24.726-13.068,7.513-25.46,16.3-39.243,22.532-8.934,4.038-17.977,7.839-26.835,12.062a44.952,44.952,0,0,1-14.836,4.143c-6.267-.027-12.531.2-18.795-.114A3.623,3.623,0,0,1,871,767Z" transform="translate(-167.835 -170.853)"/>
    <path class="cls-38" d="M410,508c-2.538,2.172-4.69,2.367-5.939-1.273-.377-1.1-.953-1.818-2.115-1.544C397.5,506.232,396.6,503.307,396,500,401.2,501.732,405.487,505.066,410,508Z" transform="translate(-167.835 -170.853)"/>
    <path class="cls-38" d="M422.012,514.993c-2.1-.43-4.1.7-6.36-.038-3.591-1.164-6.161-2.679-5.651-6.958C414.224,509.953,418.469,511.87,422.012,514.993Z" transform="translate(-167.835 -170.853)"/>
    <path class="cls-41" d="M392.947,516.968l.024-3.009a18.214,18.214,0,0,0-8.313-8.216c-10.841-5.766-21.282-12.24-31.986-18.253-2.163-1.215-4.649-1.782-6.574-3.422-3.077-3.348-5.935-7.053-11.177-6.888a1.362,1.362,0,0,1-1.952-.281,2.076,2.076,0,0,0-1.945-.907c-2.006-1.879-4.553-3.121-6.274-5.327.3-1.609-1.693-1.751-1.938-3.014L323,467a6.51,6.51,0,0,1,3.708,1.114q26.322,15.335,52.728,30.526c.837.484,1.707.91,2.562,1.362,2.533,1.6,5.376,2.582,8,4,1.107,1.119,2.673,1.319,4,2h0c10.809,6.841,22.042,12.971,33.006,19.514,7.357,4.39,15.208,7.973,22.214,12.957,8.49,4.844,17.031,9.585,25.44,14.585,9.9,5.887,19.624,12.2,30.178,16.968,2.773,1.252,4.921,3.392,7.39,5.073,2.539,3.374,6.416,4.77,9.943,6.679,1.662.665,3.608.74,4.85,2.3,8.78,4.493,16.228,11.168,25.252,15.268,2.281,1.036,6.258,2.147,4.77,5.118-1.736,3.467-4.888.677-7.176-.71a9.651,9.651,0,0,0-4.647-1.529,8.144,8.144,0,0,1-3.976-1.549c-1.156-2.373-3.248-3.22-5.708-3.458-3.081-.143-4.486-2.8-6.6-4.385a13.725,13.725,0,0,0-4.847-3.134,7.815,7.815,0,0,1-1.642-1.013c-1.262-1.753-3.332-1.47-5.084-2-7.569-4.741-15.461-8.83-23.433-12.863-4.459-2.255-9.54-3.56-13.458-7.719-3.165-3.359-8.808-4.274-13.16-6.777-4.288-2.466-8.594-4.951-12.807-7.518-8.608-5.247-17.584-9.735-26.514-14.365a149.465,149.465,0,0,1-15.171-9.206,37.472,37.472,0,0,0-11.794-5.082c-2.268-.6-3.542-2.692-5.834-2.921-1.191-.577-.887-2.128-1.872-2.838C393.186,517.255,393.066,517.112,392.947,516.968Z" transform="translate(-167.835 -170.853)"/>
    <path class="cls-42" d="M199,397a8.074,8.074,0,0,1,5.05,1.431A143.948,143.948,0,0,0,229,412c7.888,3.942,14.819,9.578,23,13,11.643,6.709,22.866,14.151,35,20l25,15.991c1.619,1.452,5.191.6,4.981,4.212-2.793,1.145-4.706-.861-6.827-1.976-8.2-4.311-15.75-9.834-24.447-13.213a4.65,4.65,0,0,0-4.68.893c-6.8-1.761-11.484-7.523-18.516-9.337-3.453-.891-7.832-3.566-8.69-8.511-.164-.948-.7-2.026-1.952-.787-2,.961-3.44-.367-4.961-1.24-4.259-2.447-8.533-4.866-12.73-7.422-1.589-.968-3.189-2.579-5.351-1.125a2.8,2.8,0,0,1-2.59-.265l-.326-.352c-.953-1.6,1.5-3.1.142-4.711.173-1,.7-3.05-1.173-1.294-2.373,2.23-3.837,1.211-5.893-.2-5-3.435-9.7-7.38-15.79-9.015A4.486,4.486,0,0,0,200,407c.017-.488-.17-1.206.082-1.43C203.915,402.154,201.976,399.521,199,397Z" transform="translate(-167.835 -170.853)"/>
    <path class="cls-43" d="M449,539c-2.972.57-4.359-2.085-6.441-3.26Q421.774,524,401.13,512.011c-2.695-1.563-5.565-3.047-7.131-6.008,6.144,1.131,10.546,5.6,15.871,8.3,7.85,3.979,14.833,9.536,23.13,12.7l14,9C447.829,536.892,449.584,537.166,449,539Z" transform="translate(-167.835 -170.853)"/>
    <path class="cls-44" d="M287,445c-5.059-.085-8.816-3.416-12.968-5.537-6.73-3.437-13.043-7.685-19.612-11.451A6.742,6.742,0,0,1,252,425c6.277.34,10.723,4.708,15.688,7.63q7.4,4.356,14.874,8.617C284.3,442.231,286.118,443.04,287,445Z" transform="translate(-167.835 -170.853)"/>
    <path class="cls-41" d="M316.974,465.1c-.751-2.465-3.745-2.218-4.97-4.11,4.522.435,7.939,2.9,11,6.007L323,467c-1.845,1.457-3.373-.332-5.062-.484C317.293,466.268,316.771,465.928,316.974,465.1Z" transform="translate(-167.835 -170.853)"/>
    <path class="cls-43" d="M390,504a12.494,12.494,0,0,1-8-4A14.047,14.047,0,0,1,390,504Z" transform="translate(-167.835 -170.853)"/>
    <path class="cls-43" d="M394,506c-1.713.091-3.242-.185-4-2A5.459,5.459,0,0,1,394,506Z" transform="translate(-167.835 -170.853)"/>
    <path class="cls-20" d="M541,600l4,1c16.657,8.525,32.922,17.734,49.161,27.037,10.643,6.1,21.093,12.588,31.974,18.336,6.389,3.375,12.717,7.124,18.982,10.841,6.61,3.922,13,8.474,20.472,10.875a25.7,25.7,0,0,1,9.934,6.324c1.957,1.893,3.993,3.537,6.895,3.584,3.294.054,3.916,3.786,6.7,4.78a54.623,54.623,0,0,1,12.309,6.549c7.651,5.225,16.606,8.257,24.118,13.5,7.024,4.9,14.584,8.664,22.129,12.358,8.375,4.1,16.115,9.252,24.11,13.891,6.461,3.749,13.346,6.8,19.565,11.173,5.121,3.6,10.079,7.941,16.667,9.432,5.065,1.147,8.867,5.154,13.2,7.832C824.3,759.426,824.329,764.13,823,768c-15.365-8.889-30.7-17.823-46.1-26.653-11.25-6.451-22.754-12.444-33.831-19.22-9.6-5.869-19.556-11.141-29.3-16.768-13.157-7.6-25.967-15.865-39.485-22.747-11.3-5.755-21.912-12.674-33.1-18.622-10.24-5.446-20.436-11.282-30.311-17.547-7.51-4.764-15.812-8.239-23.063-13.5A5.683,5.683,0,0,0,584,632a3.043,3.043,0,0,1-3-2c-1.1-1.128-2.679-1.305-4-2-8.625-5.171-17.18-10.463-25.892-15.483-10.834-6.242-21.566-12.71-32.468-18.763-13.839-7.683-27.4-15.863-41.327-23.344-17.52-9.413-34.389-19.936-51.912-29.326-8.076-4.328-15.749-9.419-23.53-14.283-2.613-1.633-6.29-1.43-7.97-4.639.017-.218.035-.435.05-.654a2.185,2.185,0,0,1,1.159-1.5c.93.916.229-4.328,2.037-.5,1.688,3.57,5.986,3.1,8.63,3.639,4.307.879,7.736,3.521,10.448,5.635,3.532,2.753,8.02,3.644,11.385,6.9a23.338,23.338,0,0,0,7.11,4.158c7.613,2.73,14,7.608,21.045,11.283,7.5,3.912,14.161,9.326,22.282,12.181,1.768.621,5.689.157,4.83,4.317a7.24,7.24,0,0,0,1.722.69c7.68,2.541,14.724,6.455,21.678,10.454C510.245,581.04,515.151,581.9,518,586c1.875.147,2.984,2.208,5,2l1,1a17.945,17.945,0,0,1,5,3c3.175-.14,3.3,5.066,7,4C537.5,597.54,540.285,597.478,541,600Z" transform="translate(-167.835 -170.853)"/>
    <path class="cls-45" d="M823,768c-.284-1.932-.524-3.872-.863-5.795-.464-2.629-2.2-3.778-4.28-5.544-6.635-5.633-15.6-6.48-22.21-12.266-2.482-2.174-6.945-3.809-9.651-6-4.112-3.326-10.6-2.626-13.045-8.19-8.977-1.532-15.024-8.572-22.823-12.44-8-3.966-16.724-6.9-23.776-13.121-2.536-2.239-7.251-3.3-10.407-5.232-5.631-3.445-11.808-6.039-17.029-10.127-3.733-2.922-8.839-3.573-12.176-6.62-4.773-4.358-12.809-4.064-15.448-11.172-2.163.957-3.082-1.454-4.776-1.763-7.69-1.4-13.6-6.573-20.025-10.281q-22.438-12.941-44.91-25.868c-10.525-6.062-21.067-12.282-31.822-18.038C561.4,611.07,552.228,607.549,545,601c3.183-.568,5.28,1.566,7.607,3.09,1.185.776,2.72,1.545,3.585.351,1.222-1.687-.753-2.251-1.827-2.7a83.6,83.6,0,0,1-20.258-12.329c-2.559-2.057-7.363-.71-8.108-5.414,2.094-.877,3.776.018,5.565,1.067,26.1,15.3,52.485,30.11,78.583,45.409,14.666,8.6,29.635,16.662,44.169,25.481a21.089,21.089,0,0,0,2.752,1.138c4.407,2.236,8.367,5.267,12.912,7.26,2.352,2.388,5.3,3.825,8.254,5.3,10.353,5.153,20.153,11.27,29.97,17.354A20.566,20.566,0,0,0,711,688c5.778,4.56,12.685,7.163,18.948,10.893,8.417,5.013,16.819,10.079,25.388,14.81,11.018,6.084,21.669,12.79,32.719,18.833,6.328,3.461,12.525,7.5,18.753,11.186,7.191,4.258,14.508,8.513,21.986,12.391,3.855,2,8.374,3.012,11.566,6.289.275,3.116,2.052,4.375,4.885,5.9,6.832,3.668,13.724,6.41,21.524,6.69,1.336.048,2.66.523,2.635,2.32-5.707,4.025-12,2.805-17.331.243-5.37-2.579-11.805-2.306-16.437-6.7-1.958-1.86-3.27,2.957-5.641,1.159Z" transform="translate(-167.835 -170.853)"/>
    <path class="cls-46" d="M830,772.007c1.456-.017,1.641-1.266,2.337-2.155,1.19-1.519,2.822-2.527,4.432-.3a9.141,9.141,0,0,0,7.162,3.853c5.9.3,10.267,5.447,16.563,4.8A55.553,55.553,0,0,0,869,777a12.241,12.241,0,0,1,8.1-1.088c4.614.944,9.241-.9,13.824-.258,10.9,1.517,20.058-3.878,29.746-7.187.766-.261,1.843-1.244,2.213-.855,3.631,3.809,4.757-1.048,6.836-2.035,2.785-1.322,5.823-2.45,7.752-5.173.94-1.326,1.561-3.641,3.967-1.752a3.523,3.523,0,0,1,.155,1.3c.044,1.062-.94,2.238.356,3.144,1.07-.08,1.629-.89,2.287-1.547a16.75,16.75,0,0,0,1.829-2.6,28.552,28.552,0,0,1,1.133-2.74c.695-1.094,1.205-2.574,2.757-2.527,1.987.06,1.873,1.987,2.464,3.247a2.394,2.394,0,0,0,.778.8,12.754,12.754,0,0,1,1.472.823c.115.147.227.3.339.449a38.882,38.882,0,0,1-15.063,10.185c-6.337,2.373-12.1,5.826-18.367,8.174-7.315,2.743-14.7,5.53-22.291,7.228-5.489,1.228-11.385.519-17.069,1.018a67.265,67.265,0,0,1-22.863-2.219c-7.135-1.854-14.559-3.317-20.752-7.793C835.995,773.712,831.719,775.93,830,772.007Z" transform="translate(-167.835 -170.853)"/>
    <path class="cls-47" d="M1033.989,715.992,1032,716a56.637,56.637,0,0,0-16.272,8.01,40.442,40.442,0,0,1-14.787,6.2c-1.338-1.6-2.649-2.746-3.533.335-.352,1.226-.3,2.57-1.087,3.67-2.112,1.472-4.161,3.085-6.9,3.2-1.4-.455-.149-2.252-1.45-2.831-2.513,1.347-1.356,3.716-1.571,5.694-1.886,3.015-4.722,2.345-7.493,1.935-1.052-1.148-1.416-2.778-2.65-3.811-1.036-1.855.266-3.057,1.542-3.58,8.434-3.458,14.913-10.789,24.468-12.1,3-.41,5.075-3.062,7.251-5.007,4.912-4.392,11.671-5.386,16.725-9.523,1.655-1.354,3.5-.221,4.434,1.685.573,1.168.568,2.613,1.707,3.507C1033.117,714.135,1034.5,714.489,1033.989,715.992Z" transform="translate(-167.835 -170.853)"/>
    <path class="cls-48" d="M1000.886,729.952a186.487,186.487,0,0,0,23.038-12.354c2.586-1.639,5.274-1.642,8.078-1.594-8.357,6.869-18.461,10.838-27.55,16.518-12.712,7.943-25.964,15.021-38.959,22.514-1.44.83-2.764,1.832-4.493,1.961-1.17-1.795-2.918-3.654.541-4.944a4.829,4.829,0,0,0,2.707-1.164,25.419,25.419,0,0,1,3.253-3.056c1.407-1.015,2.027-2.6,2.84-4.016,1.581-2.763,2.969-1.76,4.37.1,1.817.192,2.639-1.874,4.338-1.909,2-1.637,5.295.652,6.876-2.262.083-1.912.872-3.064,2.994-2.779,2.44-.9,4.444-2.832,7.181-3.021C997.556,732.446,997.887,729.6,1000.886,729.952Z" transform="translate(-167.835 -170.853)"/>
    <path class="cls-46" d="M962,753c-3.909.438.991,3.08-1,4-1.934.862-3.688,2.26-6,2L955,759c-.687-1.191-.159-2.329.142-3.481a19.787,19.787,0,0,1,2.356-4.628,3.052,3.052,0,0,1,.6-.763c1.33-.971,2.008-3.932,3.9-2.734C963.931,748.613,963.509,751.1,962,753Z" transform="translate(-167.835 -170.853)"/>
    <path class="cls-48" d="M1033.989,715.992l-1.979-1.983c.694-3.01,3.836-3.733,5.464-5.874,1.009-.887,1.829-2.387,3.522-1.128q-.008,1.507-.016,3.014C1039.092,712.53,1036.431,714.132,1033.989,715.992Z" transform="translate(-167.835 -170.853)"/>
    <path class="cls-17" d="M1038.009,709c-1.536,2.225-4.039,3.289-6,5-2.944,1.029-1.841-1.327-2-2.479-.34-2.509-1.485-4.2-3.8-2.1-5.271,4.789-12.751,5.646-17.889,10.781-5.463,5.459-14.315,4.776-19.983,9.949-3.458,3.156-9.02,3.138-11.279,7.873-.25,2.955-1.751,5.428-3.069,7.972-1.414-.58-.474-2.387-1.6-3.156-1.912,1.773-1.758,4.983-4.439,6.134-.853-.5-.98-2.645-2.493-1.492-1.481,1.128-1.332,2.846-.487,4.443-.667,1.258-1.867,1.033-2.974,1.067v-4.935c-.979,1.83-2.761,2.7-4.072,4.026-4.366.223-4.241,4.264-5.825,6.852-1.838-.956-.536-3.12-1.852-4.587-2.385,1.091-1.834,4.085-3.485,5.562a18.859,18.859,0,0,0-1.979-.948c-1.406-.182-2.289,1.653-3.807.99-.11-1.614-1.6-1.629-1.639-.606-.168,3.954-3.788,3.893-5.825,5.616-2.06,1.741-4.939,2.236-6.656,4.62-.769,1.069-2.431,2.758-2.742-.631-.071-.772-1.2-.722-2.032-.093-6.078,4.581-14.162,4.126-20.526,8.24-3.2,2.066-6.9-.824-10.715-.35-3.355.417-7.106,1.292-10.852.545-3.543-.707-7.319-.248-10.992-.3-4.636-2.1-9.825-1.084-14.658-2.841-4.272-1.553-7.535-5.1-12.383-5.6-1.118-.115-3.863-2.777-1.958-5.563a1.251,1.251,0,0,1,1.286-.2c3.233,2.716,7.55,3.227,11.054,5.415,1.332.832,2.523-.093,3.69-.687a17.373,17.373,0,0,1,7.3.874c7.573,2.225,15.223.13,22.845.98,4.645.518,9.937-1.745,14.966-2.561,11.233-1.823,20.738-7.731,30.662-12.663,16.674-9.321,33.174-18.941,49.941-28.108,12.807-7,24.957-15.263,37.812-22.258,6.43-3.5,12.542-7.518,18.935-11.064,1.686-.935,3.293-2.372,5.507-1.728l2,0c.515,3.178-3.749,5.052-2.3,8.484a2.849,2.849,0,0,1-2.4,3.039c-1.66,1.371-3.552.705-5.759.473C1038.872,704.283,1039.314,706.332,1038.009,709Z" transform="translate(-167.835 -170.853)"/>
    <path class="cls-49" d="M1202,598c1.137,1.913-.613,2.947-1.6,3.522-6.242,3.649-10.439,9.961-17.13,13-1.361.618-1.508,2.2-1.529,3.443-.025,1.5,1.424.827,2.262,1.033q-.005.508-.011,1.016c.42,2.137-1.877,3.84-.966,6.055-.852,2.536-2.007,4.487-3.946.837-.731-1.377-1.037-.991-2.064-.577-1.746.7-1.762,2.687-3.073,3.643-1.044-.848-1.607-.4-2.223.628-.806,1.343-1.582,2.936-3.672,2.4l-5.141,3.949c-3.512-.936-3.122,2.856-4.889,4.035-.346-.484-3.113-.922-6.038-.954-2.226,1.734-2.112,5.774-5.892,5.977-2.708-.722-3.254,2.212-5.071,3-3.139-.422-3.029,2.355-4,4.065-2.9,1.3-4.89-3.975-8.009-1.112-.01,3.325-2.727,5.308-3.977,8.019-1.2-1.138-2.017-1.507-4.1-.8-7.244,2.464-13.391,6.982-20.014,10.476-3.869,2.041-5.684-2.4-8.536-.612-.117.074-.319.146-.329.236-.086.742.534.6.944.72.288,2.56-3.275,3.324-2.77,5.98-.015.643-.044,1.283-.083,1.924.185,1.037-.926,2-.164,3.066-.684.767-1.376.959-1.829-.163-2.01-4.979-4.008-6.769-9.737-8.239,4.638-2.763,8.873-5.344,13.162-7.831,9.528-5.524,19.133-10.916,28.594-16.55,2.673-1.592,6.909-.939,7.821-5.189.128-.2.255-.405.379-.611,14.385-7.851,28.327-16.492,42.7-24.335,8.952-4.883,16.98-10.878,24.981-17.044C1197.792,599.672,1199.259,597.476,1202,598Z" transform="translate(-167.835 -170.853)"/>
    <path class="cls-50" d="M1044,691c-15.372,8.889-30.71,17.831-46.235,26.459-4.644,2.581-9.165,5.736-13.628,8.807a92.818,92.818,0,0,1-8.519,4.7c-11.312,6.139-22.875,11.816-33.522,19.151-3.043,2.1-6.713,3.282-10.1,4.885-6.455,2.4-12.423,5.937-18.988,8.082-2.029.663-4.03,1.677-6.012-.082,10.009-4.623,20.122-9.034,29.994-13.934,8.376-4.158,15.854-10.026,24.133-14.238,8.1-4.12,15.407-9.519,23.659-13.315,5.817-2.676,10.882-6.7,16.6-9.673,9.575-4.977,18.6-11,27.965-16.394,13.519-7.788,27.189-15.313,40.695-23.125,16.13-9.329,32.142-18.855,48.444-27.894,3.909-2.168,8.263-4.053,11.506-7.428,5.878-2.031,10.315-6.626,16-9,2.354-1.3,4.741-2.537,7-4l1-1c6.1-.969,10.571-5.225,15.782-7.964,13.475-7.082,26.146-15.36,36.923-26.26,1.5-1.521,2.867-3.18,4.3-4.776q0,1.5,0,2.993L1210,588c-7.868,10.385-18.47,17.611-29.349,24.206q-25.232,15.3-51.1,29.554A6.931,6.931,0,0,0,1128,643h0c-5.753,1.151-10.65,4.272-15.545,7.182-16.8,9.991-33.442,20.259-50.538,29.761C1055.785,683.346,1049.962,687.3,1044,691Z" transform="translate(-167.835 -170.853)"/>
    <path class="cls-51" d="M1041,702a3.011,3.011,0,0,0,1.984-3.016c-.569-3.42,1.84-5.155,3.981-7.044,1.477-1.3,3.406-1.905,4.9-3.176,6.64-3.127,12.7-7.287,19.158-10.744l-.019.014c2.608-1.15,4.63-3.836,7.979-3.044,6.507,1.174,7.555,4.053,4,11-1.162-.653-2.019-.378-3.065.512-9.869,8.4-22,13.245-32.547,20.588-1.174.818-2.308,1.44-3.347-.166.665-3.312,3.271-4.82,5.926-6.162,6.523-3.3,12.658-7.277,19.1-10.715a31.571,31.571,0,0,0,8.81-7.222c.756-.861,1.825-1.91,1.023-3.05-1.05-1.492-2.357-.321-3.518.187-7.977,4.429-15.976,8.816-23.765,13.574-3.242,1.98-5.745,4.475-6.7,8.261-.819,1.628.016,3.536-.856,5.155-2.192-.422-1.6-2.979-3.043-3.972q-.437-.327-.294-.657T1041,702Z" transform="translate(-167.835 -170.853)"/>
    <path class="cls-52" d="M1089.038,676.05c-.618-3.286,2.237-4.3,3.962-6.05,4.143,1.008,3.724,3.745,1.973,6.315-1.249,1.834-3.3,3.123-4.99,4.655-1.187-.749-.946-1.933-.932-3.049C1089.734,677.293,1089.994,676.667,1089.038,676.05Z" transform="translate(-167.835 -170.853)"/>
    <path class="cls-53" d="M1071.03,678.021a75.914,75.914,0,0,1-19.021,11.038q-.451-.35-.3-.7t.3-.353C1058.593,685.145,1063.933,679.91,1071.03,678.021Z" transform="translate(-167.835 -170.853)"/>
    <path class="cls-50" d="M1052,688q0,.527,0,1.055c-2.895,3.411-8.155,4.672-9.02,9.927-2.38-3.935,1.9-5.361,3.006-7.984Z" transform="translate(-167.835 -170.853)"/>
    <path class="cls-54" d="M1168.05,633a5.881,5.881,0,0,0,3.13-4c.235-.926.808-1.962,1.969-1.542,1.088.394.752,1.594.8,2.514a45.914,45.914,0,0,1-3.828,4.211C1168.762,635.369,1168.188,634.379,1168.05,633Z" transform="translate(-167.835 -170.853)"/>
    <path class="cls-55" d="M1125.031,659.98c-.005-3.333,2.331-5.5,3.977-8.019C1131.014,656.287,1127.419,657.834,1125.031,659.98Z" transform="translate(-167.835 -170.853)"/>
    <path class="cls-56" d="M1158.02,640.988c.3-3.043,2.652-4.981,3.7-7.692,1.9,1.046,1.075,2.474,1.192,3.658Z" transform="translate(-167.835 -170.853)"/>
    <path class="cls-57" d="M1137.017,653.074c-1.656-3.047,1.191-4.9,2.569-6.233,1.362-1.322,1.2,1.167,1.433,2.168Z" transform="translate(-167.835 -170.853)"/>
    <path class="cls-58" d="M1183.028,626.073l-3.2,1.764,4.167-7.82C1186.061,622.418,1184.2,624.19,1183.028,626.073Z" transform="translate(-167.835 -170.853)"/>
    <path class="cls-59" d="M1146.09,646.011c3.066-.907,2.491-5.4,5.892-5.977-.287,3.143-2.3,5.193-4.6,6.969C1146.289,647.846,1146.159,646.827,1146.09,646.011Z" transform="translate(-167.835 -170.853)"/>
    <path class="cls-53" d="M1078.99,674.99l-7.979,3.044C1073.164,675.691,1075.313,673.337,1078.99,674.99Z" transform="translate(-167.835 -170.853)"/>
    <path class="cls-23" d="M316.974,465.1,318,466c2.451,1.128,5.183,1.764,7,4,1.8,2.208,5.82,2.182,6.024,5.993.689,3.376-.562,4.8-4.025,4-3.933-6.2-10.64-8.755-16.572-12.123-9.018-5.121-17.659-10.96-27.26-15.028a2.225,2.225,0,0,1-1.249-1.965c.146-1.973,1.642-1.845,3-1.927,7.18.913,12.287,6.09,18.493,9.008C308.038,460.134,311.969,463.638,316.974,465.1Z" transform="translate(-167.835 -170.853)"/>
    <path class="cls-60" d="M228.976,422.016c-.756-3.981,1.519-1.819,2.644-1.191,6.054,3.378,12.046,6.867,18.064,10.309.713.408,1.458.76,2.188,1.138q.011,1.313.023,2.625-.392.815-.847.034l-1.095-.782A69.225,69.225,0,0,1,228.976,422.016Z" transform="translate(-167.835 -170.853)"/>
    <path class="cls-61" d="M284.92,448.952l-3,1.928q-.444.032-.889.028C281.52,448.65,282.471,447.31,284.92,448.952Z" transform="translate(-167.835 -170.853)"/>
    <path class="cls-62" d="M251.047,434.93a3.1,3.1,0,0,0,.848-.033q.04,2.51.08,5.02C250.368,438.495,251.19,436.622,251.047,434.93Z" transform="translate(-167.835 -170.853)"/>
    <path class="cls-23" d="M346.1,484.068c3.931-.721,6.5,2.125,9.441,3.78,11.1,6.239,22.108,12.656,33.158,18.991,2.767,1.586,4.791,3.581,4.273,7.12-1.01,1.527-2.451,1.453-3.975,1.069-4.372-6.327-11.641-8.546-17.772-12.307-8.04-4.932-16.336-9.47-24.694-13.847C343.24,487.151,344.735,485.8,346.1,484.068Z" transform="translate(-167.835 -170.853)"/>
    <path class="cls-63" d="M329.96,487.122l3.835-4.22q.664-.724,1.206.1C334.472,485.779,333.058,487.48,329.96,487.122Z" transform="translate(-167.835 -170.853)"/>
    <path class="cls-64" d="M335,483l-1.206-.1q-.413-3-.826-6l1.952.28Q334.962,480.089,335,483Z" transform="translate(-167.835 -170.853)"/>
    <path class="cls-41" d="M392.084,522.13c.08-1.755-.7-3.654.863-5.161l.137.093c1.2,1.464,1.035,3.189.928,4.9l-.11.2Z" transform="translate(-167.835 -170.853)"/>
    <path class="cls-4" d="M577,628c1.711-.091,3.243.178,4,2A5.48,5.48,0,0,1,577,628Z" transform="translate(-167.835 -170.853)"/>
    <path class="cls-65" d="M228.976,422.016a180.54,180.54,0,0,1,20.976,12.132c-.3.848.491,3.238-1.519,1.923-7.3-4.777-15.866-7.54-22.2-13.853Q227.609,422.118,228.976,422.016Z" transform="translate(-167.835 -170.853)"/>
    <path class="cls-66" d="M226.056,417.157c1.676,1.622,1.342,3.184-.142,4.711C221.613,420.166,227.474,418.771,226.056,417.157Z" transform="translate(-167.835 -170.853)"/>
    <path class="cls-21" d="M1128,643c.005-1.4,1.014-1.954,2.061-2.533,15.28-8.445,30.182-17.552,45.394-26.126,10.964-6.18,21.75-13.222,30.469-22.725A50.9,50.9,0,0,1,1210,588c-2.012,3.857-4.256,7.53-8,10-8.256,6.22-16.061,13.212-24.928,18.385-5.766,3.364-11.6,6.816-17.572,9.927-7.351,3.827-14.531,8.014-21.58,12.376A32.885,32.885,0,0,1,1128,643Z" transform="translate(-167.835 -170.853)"/>
    <path class="cls-42" d="M192,393c2.7.691,5.607,1.019,7,4C196.082,396.689,193.226,396.272,192,393Z" transform="translate(-167.835 -170.853)"/>
    <path class="cls-47" d="M1041,702q0,.494,0,.988-.007,2.01-.015,4.02c-1.552-.167-1.958,1.38-2.986,2,.543-3.892-1.318-5.524-5.386-5C1035.092,700.392,1038.465,703.269,1041,702Z" transform="translate(-167.835 -170.853)"/>
    <path class="cls-67" d="M613.716,484.01c3.718-2.93,8.223-1.511,12.341-2.232a40.788,40.788,0,0,1,10.907.076l6.071.006c2.032-.855,4.288.179,6.312-.746.623-.1.817-1.214,1.692-.71,3,.7,6.012-.275,9.02.04,7.167.185,14.331-.077,21.49.1,3.615.087,5.193-1.305,5-5a88.552,88.552,0,0,1,.059-9.49,16.855,16.855,0,0,1,1.119-6.234c1.318-10.079.312-20.224.871-30.334.486-8.789.462-17.619.3-26.425-.087-4.735,2.275-6.882,6.449-7.014,8.967-.283,17.947-.334,26.919-.2,4.8.069,6.763,2.37,6.761,7.191,0,9.309-.131,18.619-.079,27.927.008,1.492-1.22,3.984,2.037,3.944.528,1.861-.942,3.432-.759,5.243-1.791,1.483-1.487,3.537-1.5,5.5q-.214,25.7-.434,51.394c-.015,1.661-.121,3.321-.185,4.981a14.531,14.531,0,0,1-8.752,3.065q-51.68-.189-103.359-.23c-.761-.95-2.865.364-2.939-1.744l-.241-1.123c-.371-.331-.958-.667-.95-1.109C611.966,495.205,611.888,489.5,613.716,484.01Z" transform="translate(-167.835 -170.853)"/>
    <path class="cls-68" d="M333.042,420.527c5.093-2.792,9.5-5.1,13.8-7.6,3.988-2.32,8.294-2.316,12.577-1.764,1.877.242,4.959,1.255,5.2,2.4,1.276,6.115,6.186,4.546,9.976,5.36,2.859.613,5.667,1.517,6.389,4.705.769,3.395-1.865,5.013-4.247,6.613-12.215,8.2-12.229,8.234-24.925,1.1C345.739,427.933,339.742,424.395,333.042,420.527Z" transform="translate(-167.835 -170.853)"/>
    <path class="cls-68" d="M420.778,402.125c-1.163,0-2.327.012-3.489,0-1.645-.021-2.436-.807-2.241-2.5.2-1.776,1.409-1.389,2.588-1.322a20.753,20.753,0,0,0,13.274-3.3c1.561-1.061,3.177-2.326,2.553-4.375-.595-1.951-2.641-1.692-4.282-1.708-4.116-.041-7.7,1.892-11.446,3.195-5.579,1.938-11.208,3.314-16.868.427-4.741-2.418-5.292-5.765-1.6-9.5,5.153-5.2,11.736-6.521,18.705-6.453,1.336.013,3.208.2,2.969,2.471-.262,2.492-1.914,1.556-3.345,1.4a16.812,16.812,0,0,0-11.315,2.884c-1.38.913-2.809,2.165-2.209,4.086.649,2.081,2.591,2.546,4.46,2.415,3.86-.272,7.32-2.071,10.96-3.193,4.883-1.5,9.664-3.692,15-1.727,2.778,1.024,5.429,2.259,6,5.371.555,3.045-1.858,4.881-3.956,6.425A27.138,27.138,0,0,1,420.778,402.125Z" transform="translate(-167.835 -170.853)"/>
    <path class="cls-68" d="M441.9,375.026c.09-4.8.323-8.623-.523-12.408-.42-1.878-.463-3.718,1.535-4.8,1.264-.687,2.433-2.15,4.008-1.458,1.509.663.891,2.346.961,3.6.5,9.114.494,9.041,9.758,10.121,6.012.7,11.994,1.657,18.385,2.554-1.934,3.328-4.668,3.627-7.471,3.319-5.594-.615-11.166-1.429-16.749-2.152-1.3-.168-3.074-1.76-3.613.707-.373,1.708-.654,3.757,1.192,5.024,1.23.844,2.688,1.366,3.876,2.256,1.126.844,3.99.987,2.613,3.132-1.06,1.65-3.081,2.622-5.622,1.027-7.183-4.509-14.581-8.674-21.887-12.986-1.695-1-3.362-2.047-5.14-3.132,3.113-4.158,6-2.3,9.049-.346C435.172,371.333,438.242,372.934,441.9,375.026Z" transform="translate(-167.835 -170.853)"/>
    <path class="cls-68" d="M487.979,351.666c-3.467,2.015-6.581,3.9-9.767,5.652-2.156,1.186-2.689,1.991-.249,3.716,3.767,2.664,7.1,3.466,11.132.348,2.992-2.313,6.617-3.788,9.838-5.829,2-1.269,4.125-1.477,5.22.456,1.257,2.219-1.518,2.411-2.7,3.121-4.978,3-10.1,5.766-15.091,8.747a5.621,5.621,0,0,1-6.47.085c-7.662-4.664-15.361-9.276-23.16-13.707-3.244-1.843-2.716-2.961.127-4.506,5.25-2.852,10.468-5.771,15.6-8.836,2.233-1.335,4.036-1.131,6.09.757-4.556,4.168-10.64,5.913-15.346,9.772,5.943,5.509,6.826,5.5,13.4,1.884C485.475,348.446,483.744,348.3,487.979,351.666Z" transform="translate(-167.835 -170.853)"/>
    <path class="cls-69" d="M730.222,440.144c-2.684-2.173-.451-3.634.759-5.243,13.392-9.051,28.206-15.564,42.154-23.628,20.276-11.722,40.664-23.252,61.039-34.8,1.017-.576,2-1.789,3.5-1.177.216,1.7-1.284,1.822-2.143,2.34q-22.388,13.495-44.832,26.9c-18.357,11.027-36.447,22.5-55.2,32.858C733.757,438.348,731.98,439.228,730.222,440.144Z" transform="translate(-167.835 -170.853)"/>
    <path class="cls-68" d="M417.016,406.615c-2.708,3.868-5.878,3.473-8.756,2.012-7.218-3.665-11.846,1.77-17,4.754-2.473,1.431.43,3.014,1.184,4.405.653,1.2,2.522,2.242.32,3.6-1.485.912-2.995,2.384-4.707.171-5.284-6.83-10.633-13.611-15.913-20.444-.563-.729-1.357-1.763-.086-2.537,2.2-1.338,4.047-3.06,7.239-2.134,11.275,3.268,22.658,6.163,34,9.2C414.375,405.926,415.458,406.206,417.016,406.615Z" transform="translate(-167.835 -170.853)"/>
    <path class="cls-68" d="M553.539,381.983c-3.019,4.076-6.52,3.123-9.456,1.769-7.148-3.3-11.592,2.182-16.725,4.91-2.286,1.214.489,2.938,1.225,4.377.563,1.1,3.062,1.922.87,3.512-1.555,1.128-3.442,2.512-5.235.228q-8-10.185-15.91-20.436c-.509-.662-1.517-1.7-.049-2.456,2.1-1.078,3.63-3.258,6.669-2.37,8.729,2.551,17.543,4.809,26.325,7.177C545.229,379.766,549.209,380.824,553.539,381.983Z" transform="translate(-167.835 -170.853)"/>
    <path class="cls-70" d="M499.059,411.192c-9.8-.287-16.82-2.4-22.455-8-4.032-4-4.013-7.97.279-11.552A24.549,24.549,0,0,1,496,386.088c1.078.119,2.607.067,2.421,1.744a2.382,2.382,0,0,1-2.3,2.266c-2.161.062-4.365-.285-6.483.016-3.715.528-7.575,1.8-8.531,5.763-.976,4.053,2.325,6.188,5.512,7.955,5.972,3.311,12.18,4.576,18.668,1.811,2.433-1.037,5.293-2.6,4.5-5.791-1.03-4.12,1.908-3.721,3.915-3.787,2.944-.1,3.425,2.368,3.122,4.591-.382,2.8-2.286,4.767-4.662,6.18C507.5,409.606,502.591,411.542,499.059,411.192Z" transform="translate(-167.835 -170.853)"/>
    <path class="cls-70" d="M499.234,330.737l24.491,14.582c-2,3.2-4.268,3.248-6.966,1.651-6.3-3.731-12.763-7.214-18.9-11.193-3-1.945-5.261-1.783-8.171,0-2.612,1.6-6.3,5.554-8.473,1.817-1.555-2.669,3.832-3.683,6.186-5.2,4.89-3.151,10.092-5.813,15.116-8.76,2.281-1.338,4.282-1.736,6.176,1.1Z" transform="translate(-167.835 -170.853)"/>
    <path class="cls-31" d="M608.918,350.717c-6.756,3.906-13.251,7.6-19.672,11.42a3.208,3.208,0,0,1-3.678-.166c-9.155-5.4-18.312-10.787-27.59-16.252,2.678-3.249,5.2-3.113,8.353-1.1,6.031,3.838,12.341,7.234,18.407,11.02,2.415,1.507,4.393,1.72,6.845.125,3.484-2.266,7.247-4.1,10.749-6.342C604.73,347.887,606.631,348.09,608.918,350.717Z" transform="translate(-167.835 -170.853)"/>
    <path class="cls-33" d="M581.109,366.745c-6.656,3.848-13.136,7.552-19.563,11.346a3.118,3.118,0,0,1-3.635,0c-9.128-5.458-18.3-10.843-27.587-16.328,2.607-3.338,5.111-3.112,8.24-1.1,5.461,3.506,11.336,6.387,16.679,10.052,3.869,2.654,7.023,2.478,10.674-.118,2.7-1.918,5.841-3.2,8.58-5.07C577.117,363.74,579.008,364.344,581.109,366.745Z" transform="translate(-167.835 -170.853)"/>
    <path class="cls-71" d="M687.724,459.817c1.433,1.651-.28,3.471.279,5.169a8.917,8.917,0,0,1-3.6,3.3c-6.727,3.888-13.433,7.815-20.256,11.531-1.5.819-3.015,2.188-5.015,1.237-2.769.682-5.628,2.486-8.091-.65l35-20.286Z" transform="translate(-167.835 -170.853)"/>
    <path class="cls-24" d="M848.658,470.81a1.1,1.1,0,0,1-1.355,1.04,1.914,1.914,0,0,1-1.974-1.794c-.04-.865.445-1.674,1.492-1.358A2.777,2.777,0,0,1,848.658,470.81Z" transform="translate(-167.835 -170.853)"/>
    <path class="cls-1" d="M548,315.87c-3.057,1.369-3.236-.6-3.232-2.785A2.724,2.724,0,0,1,548,315.87Z" transform="translate(-167.835 -170.853)"/>
    <path class="cls-72" d="M849.859,578.546c5.4-3.212,10.261-5.936,14.94-8.946,3.457-2.224,6.3-1.864,9.825.24,11.048,6.59,22.39,12.684,33.507,19.16,2.412,1.4,4.155,1.56,6.6.041,5.926-3.686,12.195-6.827,18.082-10.57,3.132-1.991,5.589-1.934,8.564.123s6.283,3.669,10.2,5.907c-5.41,3.124-10.222,5.91-15.04,8.684q-13.4,7.717-26.81,15.434c-1.922,1.112-3.6,1.947-5.96.588C886.064,599.038,868.288,589.006,849.859,578.546Z" transform="translate(-167.835 -170.853)"/>
    <path class="cls-73" d="M613.049,503.115c.793.9,3.1-.765,2.939,1.744-22.8,14.148-47.094,25.612-70.255,39.11a6.309,6.309,0,0,1-4.721.942l.064.069c4.312-4.5,10.217-6.522,15.4-9.583C575.17,524.357,594.167,513.833,613.049,503.115Z" transform="translate(-167.835 -170.853)"/>
    <path class="cls-23" d="M613.716,484.01c-1.761,5.921-1.313,11.953-.907,17.982-.31-.113-.785-.134-.905-.351C610.282,498.714,611.546,486.693,613.716,484.01Z" transform="translate(-167.835 -170.853)"/>
    <path class="cls-23" d="M648.019,464.663c1.736,1.828,4.082.637,5.415,2.839l-5.65,1.556Z" transform="translate(-167.835 -170.853)"/>
    <path class="cls-23" d="M636.964,481.854l-10.907-.076A15.712,15.712,0,0,1,636.964,481.854Z" transform="translate(-167.835 -170.853)"/>
    <path class="cls-23" d="M904.812,486.188a1.778,1.778,0,0,1,1.723,1.466c.11,1.038-.762,1.272-1.648,1.256-.918-.017-1.655-.412-1.675-1.37S903.82,486.1,904.812,486.188Z" transform="translate(-167.835 -170.853)"/>
    <path class="cls-74" d="M497,532c-2.687-.718-5.349-1.48-7-4C492.682,528.72,495.345,529.48,497,532Z" transform="translate(-167.835 -170.853)"/>
    <path class="cls-74" d="M504,536c-2.687-.718-5.349-1.48-7-4C499.682,532.72,502.345,533.48,504,536Z" transform="translate(-167.835 -170.853)"/>
    <path class="cls-74" d="M511,540c-2.687-.718-5.349-1.48-7-4C506.682,536.72,509.345,537.48,511,540Z" transform="translate(-167.835 -170.853)"/>
    <path class="cls-74" d="M518,543c-3.225,1.078-5.138-.905-7-3C513.622,540.322,515.645,542.047,518,543Z" transform="translate(-167.835 -170.853)"/>
    <path class="cls-75" d="M541.012,544.911c-.087,2.5-1.282,3.282-3.932,2.482.954-1.877,2.442-2.2,4-2.413Z" transform="translate(-167.835 -170.853)"/>
    <path class="cls-74" d="M490,528c-2.062-.347-3.95-.984-5-3.007C487.054,525.35,488.943,525.984,490,528Z" transform="translate(-167.835 -170.853)"/>
    <path class="cls-74" d="M483,524c-2.063-.346-3.95-.984-5-3.007C480.054,521.35,481.943,521.984,483,524Z" transform="translate(-167.835 -170.853)"/>
    <path class="cls-23" d="M649.346,481.113c-1.948,1.567-4.164.864-6.312.746C644.981,480.274,647.228,481.241,649.346,481.113Z" transform="translate(-167.835 -170.853)"/>
    <path class="cls-23" d="M931.594,495.045c-.264.229-.536.644-.89.734a1.118,1.118,0,0,1-1.463-.85c-.056-.236-.838-.938.24-.91C930.243,494.039,931.111,493.905,931.594,495.045Z" transform="translate(-167.835 -170.853)"/>
    <path class="cls-24" d="M1018,690c-5.842,5.217-13.2,7.915-19.847,11.787-3.9,2.274-7.314,5.713-12.153,6.213,4.626-4.622,10.692-7.01,16.3-9.953C1007.5,695.32,1011.8,690.75,1018,690Z" transform="translate(-167.835 -170.853)"/>
    <path class="cls-24" d="M1070,660c-5.139,4.23-11.082,7.1-17,10A36.8,36.8,0,0,1,1070,660Z" transform="translate(-167.835 -170.853)"/>
    <path class="cls-24" d="M979,712a48.87,48.87,0,0,1-17,10A58.759,58.759,0,0,1,979,712Z" transform="translate(-167.835 -170.853)"/>
    <path class="cls-24" d="M1039,678c-4.963,3.659-10.119,6.973-16,9C1027.4,682.335,1033.085,679.965,1039,678Z" transform="translate(-167.835 -170.853)"/>
    <path class="cls-24" d="M943,733c-5.17,3.291-10,7.192-16,9A37.992,37.992,0,0,1,943,733Z" transform="translate(-167.835 -170.853)"/>
    <path class="cls-24" d="M1053,670c-3.973,3.881-9.266,5.451-14,8A25.1,25.1,0,0,1,1053,670Z" transform="translate(-167.835 -170.853)"/>
    <path class="cls-23" d="M330,454a23.358,23.358,0,0,1-10-6A19.309,19.309,0,0,1,330,454Z" transform="translate(-167.835 -170.853)"/>
    <path class="cls-23" d="M342,461c-2.971-1.18-5.917-2.4-8-5C337.152,456.888,340.227,457.9,342,461Z" transform="translate(-167.835 -170.853)"/>
    <path class="cls-24" d="M962,722c-1.659,2.514-4.319,3.276-7,4C956.817,723.765,958.884,721.967,962,722Z" transform="translate(-167.835 -170.853)"/>
    <path class="cls-23" d="M320,448c-2.682-.723-5.341-1.489-7-4C315.684,444.718,318.347,445.475,320,448Z" transform="translate(-167.835 -170.853)"/>
    <path class="cls-24" d="M949,729a7.72,7.72,0,0,1-6,4A10.056,10.056,0,0,1,949,729Z" transform="translate(-167.835 -170.853)"/>
    <path class="cls-24" d="M955,726c-1.346,2.308-3.516,2.968-6,3C950.73,727.462,952.375,725.753,955,726Z" transform="translate(-167.835 -170.853)"/>
    <path class="cls-24" d="M985,709c-1.727,1.542-3.376,3.24-5.994,3C980.336,709.682,982.511,709.033,985,709Z" transform="translate(-167.835 -170.853)"/>
    <path class="cls-23" d="M386,486.012a5.572,5.572,0,0,1-4-2.01C383.715,483.908,385.25,484.175,386,486.012Z" transform="translate(-167.835 -170.853)"/>
    <path class="cls-23" d="M372,478.01A5.563,5.563,0,0,1,368,476C369.714,475.908,371.249,476.175,372,478.01Z" transform="translate(-167.835 -170.853)"/>
    <path class="cls-23" d="M360,471.012A5.577,5.577,0,0,1,356,469C357.713,468.907,359.249,469.174,360,471.012Z" transform="translate(-167.835 -170.853)"/>
    <path class="cls-23" d="M353,467.01A5.551,5.551,0,0,1,349,465C350.714,464.908,352.249,465.175,353,467.01Z" transform="translate(-167.835 -170.853)"/>
    <path class="cls-23" d="M393,490.007A5.544,5.544,0,0,1,389,488C390.714,487.907,392.247,488.177,393,490.007Z" transform="translate(-167.835 -170.853)"/>
    <path class="cls-23" d="M346,463.01a5.535,5.535,0,0,1-4-2.01C343.715,460.908,345.249,461.177,346,463.01Z" transform="translate(-167.835 -170.853)"/>
    <path class="cls-23" d="M334,456a5.507,5.507,0,0,1-4-2C331.714,453.907,333.246,454.177,334,456Z" transform="translate(-167.835 -170.853)"/>
    <path class="cls-76" d="M1041,636c3.324,4.043,6.4,8.2,5.644,14.775,3.75-2.948,1.43-6.146,2.8-8.718,2.682,3.782,1.195,7.349-.679,10.642-4.7,8.272-12.949,11.238-21.491,12.933-12.027,2.386-24.038,1.972-35.577-2.866a29.383,29.383,0,0,1-9.22-5.812c-8.145-7.864-7.118-17.267,2.6-23.612.6,1.333-2.121,2.688-.1,3.841,1.378.787,2-.772,2.818-1.443,2.734-2.255,6.633-2.208,9.2-4.742,2.173-2.6,5.408-2.474,8.263-2.875,10.032-1.411,19.906-.748,29.386,3.218A14.241,14.241,0,0,1,1041,636Z" transform="translate(-167.835 -170.853)"/>
    <path class="cls-77" d="M1041,636a54.9,54.9,0,0,0-31.352-7.07c-4.325.25-8.379,1.725-12.648,2.068-2.351-.519-1.97-1.4-.255-2.31a26.033,26.033,0,0,1,10.045-2.516c9.286-.817,18.58-.375,27.393,3.082C1037.251,630.459,1041.212,631.264,1041,636Z" transform="translate(-167.835 -170.853)"/>
    <path class="cls-23" d="M1159,609a43.128,43.128,0,0,1-14,8C1148.7,612.642,1153.691,610.539,1159,609Z" transform="translate(-167.835 -170.853)"/>
    <path class="cls-23" d="M1145,617c-1.656,2.519-4.318,3.278-7,4C1139.652,618.478,1142.317,617.722,1145,617Z" transform="translate(-167.835 -170.853)"/>
    <path class="cls-23" d="M1128,627c-1.483,1.306-2.867,2.776-5,3C1124.044,627.959,1125.591,626.76,1128,627Z" transform="translate(-167.835 -170.853)"/>
    <path class="cls-23" d="M1134,623c-.886,1.6-1.975,2.92-4,2.988C1130.887,624.392,1131.979,623.072,1134,623Z" transform="translate(-167.835 -170.853)"/>
    <path class="cls-23" d="M1138,621c-.759,1.815-2.288,2.09-4,2A5.45,5.45,0,0,1,1138,621Z" transform="translate(-167.835 -170.853)"/>
    <path class="cls-1" d="M211,386c-2.018-.088-3.119-1.4-4.006-3C209.025,383.073,210.12,384.394,211,386Z" transform="translate(-167.835 -170.853)"/>
    <path class="cls-78" d="M546.227,319.858c2.318.143,5.086-.032,5.75,2.8.613,2.618-2.012,3.426-3.7,4.715-4.3,3.282-8.48,4-12.757-.042-.9-.845-2.2-1.636-.538-2.576C538.543,322.749,541.664,319.62,546.227,319.858Z" transform="translate(-167.835 -170.853)"/>
    <path class="cls-78" d="M533.129,312.349c2.108.52,4.7.669,5.375,3.035s-1.726,3.3-3.3,4.377c-3.694,2.541-7.281,4.273-11.613.677-2.221-1.844-3.295-2.539-.109-4.277C526.572,314.476,529.609,312.827,533.129,312.349Z" transform="translate(-167.835 -170.853)"/>
    <path class="cls-79" d="M557.991,297.983l16.146,4.346C567.127,309.708,564.136,309,557.991,297.983Z" transform="translate(-167.835 -170.853)"/>
    <path class="cls-78" d="M396.437,352.379c-11.039,6.484-6.959,6.984-17.035-5.225,5.358,1.49,10.365,2.873,15.363,4.288A10.028,10.028,0,0,1,396.437,352.379Z" transform="translate(-167.835 -170.853)"/>
    <path class="cls-78" d="M403.766,332.036c5.529-2.148,9.549-6.954,15.682-3.948,1.463.717,3.251,1.31,3.345,3.273.093,1.924-1.537,2.753-2.929,3.647C413.54,339.071,412.451,338.9,403.766,332.036Z" transform="translate(-167.835 -170.853)"/>
    <path class="cls-78" d="M445.069,310.854A7.117,7.117,0,0,1,450.5,312.8c1.513,1.487,1.436,2.677.038,4.223-4.326,4.783-12.343,4.792-16.513-.022-.7-.807-.7-1.252.034-2.015C435.662,313.308,441.683,310.855,445.069,310.854Z" transform="translate(-167.835 -170.853)"/>
    <path class="cls-80" d="M657,658c-5.528-1.748-9.995-5.532-15.2-7.917-4.775-2.186-8.632-5.985-13.774-7.669-3.882-1.271-7.459-3.784-10.6-6.091-11.962-8.782-25.877-14.1-38.071-22.559-6.419-4.452-14.064-7.858-21.115-11.683-8.783-4.764-17.433-10.018-25.834-15.542-2.056-1.352-4.448-1.273-6.4-2.539-1.105-1.246-2.8-.14-4-1-2.464-3.575-6.965-4.24-10-7-9.213-5.171-18.688-10.021-27.63-15.49-10.062-6.154-20.54-11.7-30.219-18.488-1.661-1.164-4.689.065-5.151-3.022l-2-3a15.823,15.823,0,0,1,6.254,2.426c9.7,6.259,19.9,11.678,29.99,17.282,4.979,2.766,10.083,5.478,14.925,8.622q13.634,8.856,28.141,16.353c4.96,2.571,9.74,5.525,14.435,8.563,9.493,6.142,19.672,11.052,29.462,16.657q15.56,8.909,30.9,18.183c5.517,3.35,11.11,6.918,17.3,9.383,5.109,2.035,9.112,6.4,14.261,8.649,7.246,3.17,13.345,8.287,20.336,11.884C654.155,655.514,657.028,655.305,657,658Z" transform="translate(-167.835 -170.853)"/>
    <path class="cls-81" d="M841,763l-1,0c-7.161-1.667-11.805-8.413-19.4-9.47-2-.279-3.555-2.951-5.6-3.942a219.862,219.862,0,0,1-21.91-12.728c-9.771-6.224-20.055-11.549-30-17.4-11.224-6.6-22.233-13.686-33.893-19.593-5.664-2.869-10.994-6.377-16.924-8.772-.724-.293-.867-2.027-1.279-3.094,6.35.2,10.686,4.89,15.819,7.559a460.7,460.7,0,0,1,40.549,23.392c10.62,6.979,22.061,12.412,32.8,19.143,7.026,4.4,14.913,7.834,21.749,12.392,8.249,5.5,17.494,8.166,26.082,12.514a3.6,3.6,0,0,1-2.36,1.5A6.856,6.856,0,0,1,841,763Z" transform="translate(-167.835 -170.853)"/>
    <path class="cls-82" d="M846,764a2.068,2.068,0,0,1,2-1,220.519,220.519,0,0,0,23,4l2,.006a80.63,80.63,0,0,0,20,0,56.251,56.251,0,0,0,14-4c6.55-.392,12.2-3.491,18.021-6.045,2.256-.99,4.366-2.313,6.979-1.955-11.217,6.3-22.192,13.1-35.692,13.636a20.158,20.158,0,0,0-8.361,2.356c-2.189,1.128-5.813-.261-8.724-.886-2.7-.581-5.5-.916-7.542.919-2.144,1.924-2.888-.8-4.325-.995-3.763-.514-7.9.288-11.355-2.028A10.545,10.545,0,0,1,846,764Z" transform="translate(-167.835 -170.853)"/>
    <path class="cls-81" d="M711,688c-4.444,2.1-7-2.35-9.575-3.907-5.141-3.1-10.367-6.215-15.662-9.016-4.739-2.507-8.842-6.2-14.142-7.714-.708-.2-1.09-1.547-1.623-2.363a2.194,2.194,0,0,1,3,0c2.971,4.69,8.883,3.779,12.841,6.825C693.751,677.915,703.575,681.1,711,688Z" transform="translate(-167.835 -170.853)"/>
    <path class="cls-81" d="M673,665h-3c-5.265-.6-8.611-4.767-13-7-1.2-1.464-3.3-2.028-4-4C659.753,657.511,666.993,660.133,673,665Z" transform="translate(-167.835 -170.853)"/>
    <path class="cls-13" d="M1146,628c-5.232,3.18-9.392,8.266-16,9C1135.152,633.677,1139.767,629.4,1146,628Z" transform="translate(-167.835 -170.853)"/>
    <path class="cls-38" d="M893,767a41.022,41.022,0,0,1-20,0Z" transform="translate(-167.835 -170.853)"/>
    <path class="cls-13" d="M1153,624a8.173,8.173,0,0,1-7,4C1147.818,625.764,1149.887,623.969,1153,624Z" transform="translate(-167.835 -170.853)"/>
    <path class="cls-45" d="M512,576c4.211,1.079,8.163,2.529,10,7C518.669,580.663,513.918,580.355,512,576Z" transform="translate(-167.835 -170.853)"/>
    <path class="cls-42" d="M325,470c-2.328-1.343-5.03-2.032-7-4,1.974-1.2,3.187,1.4,5,1C323.129,468.361,326.12,467.806,325,470Z" transform="translate(-167.835 -170.853)"/>
    <path class="cls-45" d="M541,600c-1.646-1.36-3.911-1.945-5-4C537.606,597.409,541.939,595.409,541,600Z" transform="translate(-167.835 -170.853)"/>
    <path class="cls-83" d="M394.012,521.963c-1.367-1.434-.815-3.231-.929-4.9,3.875-1.216,1.1,2.137,2.027,2.947Z" transform="translate(-167.835 -170.853)"/>
    <path class="cls-45" d="M523,588c-2.587,1.63-3.37-1.244-5-2C519.887,586.116,522.179,585.223,523,588Z" transform="translate(-167.835 -170.853)"/>
    <path class="cls-45" d="M529,592c-2.134-.221-3.517-1.694-5-3C526.41,588.761,527.958,589.959,529,592Z" transform="translate(-167.835 -170.853)"/>
    <path class="cls-84" d="M952.1,758.943c-.085-6.467,1.186-7.962,5.825-6.853L956,756a7.83,7.83,0,0,1-3.078,2.957Q952.513,758.94,952.1,758.943Z" transform="translate(-167.835 -170.853)"/>
    <path class="cls-85" d="M940.98,759.96c1.579-.868,2.317-3.91,5-1.935-.379,1.309-1.06,2.543-.993,3.964-.871,1.6-1.969,2.9-3.966,3.009a5.983,5.983,0,0,1-.061-5Z" transform="translate(-167.835 -170.853)"/>
    <path class="cls-86" d="M944.984,761.988c-2.81-2.109.831-2.6.994-3.964q.4.948.791,1.894Q945.874,760.952,944.984,761.988Z" transform="translate(-167.835 -170.853)"/>
    <path class="cls-17" d="M952.922,758.957,956,756l-1,3Z" transform="translate(-167.835 -170.853)"/>
    <path class="cls-17" d="M940.958,760q.03,2.5.06,5C939.48,763.348,939.552,761.68,940.958,760Z" transform="translate(-167.835 -170.853)"/>
    <path class="cls-87" d="M973.991,746c-.776-3.349,1.068-5.691,3.068-7.972,2.711.3,1.833,2.4,1.99,3.976C977.678,743.738,976.568,745.8,973.991,746Z" transform="translate(-167.835 -170.853)"/>
    <path class="cls-88" d="M1000.886,729.952c-2.082.749-2.357,3.663-4.786,3.994a25.876,25.876,0,0,1,.1-4.8,3.409,3.409,0,0,1,3.559-2.723C1001.891,726.642,1000.784,728.653,1000.886,729.952Z" transform="translate(-167.835 -170.853)"/>
    <path class="cls-89" d="M988.92,736.967q-1.5,1.392-2.994,2.781c-1.346-.942-.9-2.36-.889-3.61.018-2.23,2.116-2.709,3.483-3.741.266-.2,1.419.191,1.615.583C990.948,734.6,989.468,735.667,988.92,736.967Z" transform="translate(-167.835 -170.853)"/>
    <path class="cls-90" d="M964.974,751.933c-3.215-.586-2.077-2.864-1.477-4.506.56-1.532,1.935-2.849,3.829-2.194,2.2.76.574,2.461.628,3.75Z" transform="translate(-167.835 -170.853)"/>
    <path class="cls-45" d="M846,764l10,4c-.119,1.439-1.271,2.524-2.28,1.884-4.089-2.6-9.855-2.1-12.72-6.886A8.256,8.256,0,0,1,846,764Z" transform="translate(-167.835 -170.853)"/>
    <path class="cls-91" d="M1033.731,706.35c.6,2.5-.113,3.623-1.927,4.868C1031.516,709.024,1032.4,707.894,1033.731,706.35Z" transform="translate(-167.835 -170.853)"/>
    <path class="cls-92" d="M1089.038,676.05c.839-.174,2.01-1.54,2.43-.251.531,1.627-1.046,2.022-2.417,2.124Q1089.045,676.985,1089.038,676.05Z" transform="translate(-167.835 -170.853)"/>
    <path class="cls-93" d="M1043.908,701.912a10.658,10.658,0,0,1,5.787-8.789c8.351-4.817,16.787-9.483,25.19-14.21,3.156.642,3.9,2.163,2.16,4.78a16.384,16.384,0,0,1-5.669,4.806c-8.028,4.7-16.265,9.04-24.266,13.794C1046.161,702.857,1044.684,704.332,1043.908,701.912Z" transform="translate(-167.835 -170.853)"/>
    <path class="cls-94" d="M1043.908,701.912c4.481-.179,7.2-3.893,10.968-5.6a141.5,141.5,0,0,0,18.886-10.934c1.907-1.253,6.167-3.411,1.122-6.461,1.874-1.462,4.055-2.276,5.634-.069,1.506,2.106-.5,3.638-1.857,5.083-7.351,7.835-17.432,11.432-26.321,16.871-2.968,1.816-6.116,3.3-8.3,6.132l.017.029C1044.034,705.276,1042.118,703.647,1043.908,701.912Z" transform="translate(-167.835 -170.853)"/>
    <path class="cls-95" d="M659.129,481.053,688,464.986c1.519,17.064,1.517,17.189-15.408,16.979C668.121,481.909,663.474,483.318,659.129,481.053Z" transform="translate(-167.835 -170.853)"/>
    <path class="cls-1" d="M368.458,421.984c2.408-.007,5.068.237,5.709,2.867.635,2.606-2.256,3.188-3.839,4.486-4.367,3.581-8.588,3.177-12.87-.166-1.127-.88-1.839-1.7-.3-2.575C360.716,424.577,363.984,421.78,368.458,421.984Z" transform="translate(-167.835 -170.853)"/>
    <path class="cls-1" d="M354.422,414.954c2.659.037,5.464.292,6.01,2.83.512,2.379-2.408,3.094-3.992,4.46-4.32,3.725-8.153,2.092-12.026-.64-1.108-.782-1.911-1.661-.206-2.54C347.55,417.339,350.559,414.714,354.422,414.954Z" transform="translate(-167.835 -170.853)"/>
    <path class="cls-96" d="M379.257,400.611l16.2,4.51C388.262,412.462,386.62,412.044,379.257,400.611Z" transform="translate(-167.835 -170.853)"/>
    <path class="cls-97" d="M515.56,376.32a4.041,4.041,0,0,1,1.438-.165c4.862,1.4,9.71,2.849,14.725,4.333C524.243,387.71,523.3,387.453,515.56,376.32Z" transform="translate(-167.835 -170.853)"/>
  </g>
</svg>
