<svg id="Layer_3" data-name="Layer 3" xmlns="http://www.w3.org/2000/svg" viewBox="0 0 402 871">
  <defs>
    <style>
      .cls-1 {
        fill: #fff;
      }
    </style>
  </defs>
  <title>white_plain</title>
  <path class="cls-1" d="M862,116.69V908.31A39.806,39.806,0,0,1,822.31,948H499.69A39.806,39.806,0,0,1,460,908.31V116.69A39.806,39.806,0,0,1,499.69,77h49.36c-.04.5-.05,1-.05,1.51v1.98A25.586,25.586,0,0,0,574.51,106H748.49A25.586,25.586,0,0,0,774,80.49V78.51c0-.51-.01-1.01-.05-1.51h48.36A39.806,39.806,0,0,1,862,116.69Z" transform="translate(-460 -77)"/>
</svg>
